<svg xmlns="http://www.w3.org/2000/svg" xmlns:xlink="http://www.w3.org/1999/xlink" width="108" height="108" viewBox="0 0 108 108">
  <defs>
    <filter id="Fondo" x="0" y="0" width="108" height="108" filterUnits="userSpaceOnUse">
      <feOffset dy="3" input="SourceAlpha"/>
      <feGaussianBlur stdDeviation="3" result="blur"/>
      <feFlood flood-opacity="0.161"/>
      <feComposite operator="in" in2="blur"/>
      <feComposite in="SourceGraphic"/>
    </filter>
  </defs>
  <g id="Group_1144347" data-name="Group 1144347" transform="translate(-588 -4001)">
    <g id="Group_1144151" data-name="Group 1144151">
      <g transform="matrix(1, 0, 0, 1, 588, 4001)" filter="url(#Fondo)">
        <g id="Fondo-2" data-name="Fondo" transform="translate(9 6)" fill="#fff2ee" stroke="#ff8a60" stroke-width="3">
          <circle cx="45" cy="45" r="45" stroke="none"/>
          <circle cx="45" cy="45" r="43.5" fill="none"/>
        </g>
      </g>
      <g id="Group_1144150" data-name="Group 1144150" transform="translate(614.423 4022.416)">
        <path id="Path_979099" data-name="Path 979099" d="M46.291,58v1.715a1.72,1.72,0,0,1-1.715,1.715h-6.86A1.72,1.72,0,0,1,36,59.715V58Z" transform="translate(-4.988 -8.12)" fill="#fcd770"/>
        <path id="Path_979100" data-name="Path 979100" d="M40.718,46H33v6.86l2.573,3.43H45.863l2.573-3.43V46Z" transform="translate(-4.56 -6.411)" fill="#b27946"/>
        <path id="Path_979101" data-name="Path 979101" d="M39.423,40.587H31.705V40.45a17.225,17.225,0,0,1-7.6-7.581V32.86a3.42,3.42,0,0,0,3.31-3.422V26.017A11.118,11.118,0,0,0,23.91,17.9,17.136,17.136,0,1,1,47.141,40.45v.137Z" transform="translate(-3.265 -0.997)" fill="#ffeaa7"/>
        <path id="Path_979102" data-name="Path 979102" d="M14.145,48.833v8.575a2.573,2.573,0,0,1-5.145,0V47.83a17.611,17.611,0,0,0,3.413.866V48.7A12.869,12.869,0,0,0,14.145,48.833Z" transform="translate(-1.141 -6.671)" fill="#f0d0b4"/>
        <path id="Path_979103" data-name="Path 979103" d="M20.145,47.83v9.579a2.573,2.573,0,0,1-5.145,0V48.833A15.929,15.929,0,0,0,20.145,47.83Z" transform="translate(-1.996 -6.671)" fill="#f0d0b4"/>
        <path id="Path_979104" data-name="Path 979104" d="M20.787,19.143a11.088,11.088,0,0,0-3.91-2.393l-3.868,4.408L9.288,16.793a11.163,11.163,0,0,0-7.3,10.453v2.581a3.429,3.429,0,0,0,3.43,3.43h.849l.017,9.433A17.5,17.5,0,0,0,8,43.4a17.611,17.611,0,0,0,3.413.866v.009a12.869,12.869,0,0,0,1.732.129,15.929,15.929,0,0,0,5.145-1,17.5,17.5,0,0,0,1.715-.712L20,34.115h.866a.566.566,0,0,0,.12-.009,3.42,3.42,0,0,0,3.31-3.422V27.263A11.118,11.118,0,0,0,20.787,19.143Z" transform="translate(-0.143 -2.244)" fill="#e6e9ed"/>
        <path id="Path_979105" data-name="Path 979105" d="M18.555,26V38.006H9.98v-3.43h3a2.144,2.144,0,1,0,0-4.288h-3V26h8.575Z" transform="translate(-1.281 -3.561)" fill="#ff826e"/>
        <path id="Path_979106" data-name="Path 979106" d="M18.089,16.643l-3.868,4.408L10.5,16.686A11.025,11.025,0,0,1,14.35,16h.009A11.176,11.176,0,0,1,18.089,16.643Z" transform="translate(-1.355 -2.137)" fill="#fcd770"/>
        <path id="Path_979107" data-name="Path 979107" d="M14,2a6,6,0,0,1,0,12.006h-.009A6,6,0,0,1,14,2Z" transform="translate(-0.999 -0.142)" fill="#f0d0b4"/>
        <path id="Path_979108" data-name="Path 979108" d="M35.631,38.116a2.573,2.573,0,1,1,.515-1.544A2.57,2.57,0,0,1,35.631,38.116Z" transform="translate(-4.275 -4.701)" fill="#fcd770"/>
        <path id="Path_979109" data-name="Path 979109" d="M52.573,29A2.571,2.571,0,1,1,50,31.573,2.569,2.569,0,0,1,52.573,29Z" transform="translate(-6.982 -3.989)" fill="#fcd770"/>
        <path id="Path_979110" data-name="Path 979110" d="M47.721,17.145v3.43l-1.269.463c-.034.077-.06.163-.094.24l.566,1.218L44.5,24.923l-1.218-.566c-.077.034-.163.06-.24.094l-.463,1.269h-3.43l-.463-1.269c-.077-.034-.163-.06-.24-.094l-1.218.566L34.8,22.5l.566-1.218c-.034-.077-.06-.163-.094-.24L34,20.575v-3.43l1.269-.463c.034-.077.06-.163.094-.24L34.8,15.224,37.224,12.8l1.218.566c.077-.034.163-.06.24-.094L39.145,12h3.43l.463,1.269c.077.034.163.06.24.094L44.5,12.8l2.427,2.427-.566,1.218c.034.077.06.163.094.24Zm-3.43,1.715a3.43,3.43,0,1,0-3.43,3.43A3.429,3.429,0,0,0,44.291,18.86Z" transform="translate(-4.703 -1.567)" fill="#ffc729"/>
        <path id="Path_979111" data-name="Path 979111" d="M48.549,11.086a17.963,17.963,0,0,0-28.174,4.471,11.974,11.974,0,0,0-3.639-1.949,6.86,6.86,0,1,0-7.467,0A12.028,12.028,0,0,0,.99,25.006l0,2.573a4.289,4.289,0,0,0,4.286,4.292l.013,9.106.473.237c.051.026.515.253,1.241.538v8.985a3.416,3.416,0,0,0,6,2.245,3.416,3.416,0,0,0,6-2.245V41.751c.726-.284,1.19-.512,1.241-.538l.474-.237-.005-7.569a18.244,18.244,0,0,0,6.865,6.565v6.763l2.573,3.43V51.6a2.576,2.576,0,0,0,2.573,2.573h6.86A2.576,2.576,0,0,0,42.16,51.6v-1.43l2.573-3.43V39.973a17.992,17.992,0,0,0,3.817-28.886ZM20.722,31.014h-.006l-.007-11.148H18.994l.013,20.03A16.349,16.349,0,0,1,13,41.3c-.291,0-.581-.015-.871-.04V35.3h6V21.581h-6v-.535l4.845-5.524a10.309,10.309,0,0,1,6.317,9.494v3.426A2.576,2.576,0,0,1,20.722,31.014ZM9.56,31.872H11.7a3,3,0,1,0,0-6H9.56V23.3h6.86V33.587H9.56ZM12.874,17.6,10.657,15a10.027,10.027,0,0,1,4.532-.041ZM7.859,7.86A5.145,5.145,0,1,1,13,13.006,5.15,5.15,0,0,1,7.859,7.86ZM2.7,27.582l0-2.573A10.308,10.308,0,0,1,8.9,15.581L11.731,18.9l-1.313,1.5v1.179H7.846v4.288H4.416v1.715H11.7a1.286,1.286,0,0,1,0,2.573H5.276A2.572,2.572,0,0,1,2.7,27.582Zm4.286,4.289h.857V35.3h2.573V41A19.212,19.212,0,0,1,7,39.9Zm3.442,20.581a1.717,1.717,0,0,1-1.715-1.715v-8.4a16.524,16.524,0,0,0,3.43.647v7.753A1.717,1.717,0,0,1,10.431,52.453Zm6.86-1.715a1.715,1.715,0,0,1-3.43,0V42.984a16.524,16.524,0,0,0,3.43-.647ZM29.3,40.447H43.018v1.715H29.3Zm0,3.43H43.018v1.715H29.3Zm2.144,5.145-1.286-1.715H42.16l-1.286,1.715Zm8.147,3.43h-6.86a.859.859,0,0,1-.858-.858v-.858h8.575V51.6A.859.859,0,0,1,39.588,52.453Zm3.9-13.764-.085.043H37.015v-1.36l6.844-6.844a3.385,3.385,0,0,0,1.731.486,3.43,3.43,0,1,0-3.43-3.43,3.385,3.385,0,0,0,.486,1.731l-5.631,5.631V25.011h1.459l.412-1.133,1.092.51,3.276-3.276-.51-1.092,1.133-.412V14.978l-1.133-.412.51-1.092L39.977,10.2l-1.092.51-.412-1.134H33.842l-.412,1.133-1.092-.51-3.276,3.276.51,1.092-1.134.412v4.632l1.133.412-.51,1.092,3.276,3.276,1.092-.51.412,1.134H35.3V35.3l-2.833-2.125a3.508,3.508,0,1,0-1.041,1.363L35.3,37.446v1.286H28.911l-.085-.043a16.491,16.491,0,0,1-6.671-6.225,4.282,4.282,0,0,0,2.854-4.023V25.016a11.956,11.956,0,0,0-3.32-8.266,16.271,16.271,0,1,1,21.8,21.939Zm.387-11.105A1.715,1.715,0,1,1,45.591,29.3,1.717,1.717,0,0,1,43.875,27.584ZM31.223,18.8l-1.068-.388V16.179l.706-.256.384-.184.362-.874-.481-1.03L32.7,12.26l1.031.482.924-.383.388-1.068h2.229l.256.706.182.383.874.363,1.031-.482,1.575,1.575-.481,1.03.383.925,1.068.388v2.229l-.706.256-.384.184-.362.874.481,1.03-1.575,1.575-1.03-.481-.925.383L37.272,23.3H35.043l-.256-.706-.184-.384-.874-.362-1.03.481L31.124,20.75l.481-1.03ZM29.3,33.587a1.715,1.715,0,1,1,1.715-1.715A1.717,1.717,0,0,1,29.3,33.587Z" transform="translate(0)"/>
        <path id="Path_979112" data-name="Path 979112" d="M41.288,23.575A4.288,4.288,0,1,0,37,19.288,4.293,4.293,0,0,0,41.288,23.575Zm0-6.86a2.573,2.573,0,1,1-2.573,2.573A2.576,2.576,0,0,1,41.288,16.715Z" transform="translate(-5.13 -1.994)"/>
        <path id="Path_979113" data-name="Path 979113" d="M57.558,21.773l-1.6.628a12.686,12.686,0,0,1,.493,1.528l1.662-.423A14.414,14.414,0,0,0,57.558,21.773Z" transform="translate(-7.831 -2.959)"/>
        <path id="Path_979114" data-name="Path 979114" d="M55.557,18.054l-1.391,1a12.752,12.752,0,0,1,.858,1.359l1.5-.824A14.514,14.514,0,0,0,55.557,18.054Z" transform="translate(-7.576 -2.429)"/>
        <path id="Path_979115" data-name="Path 979115" d="M58.586,25.882l-1.7.211a13.194,13.194,0,0,1,.1,1.605H58.7A14.754,14.754,0,0,0,58.586,25.882Z" transform="translate(-7.963 -3.545)"/>
      </g>
    </g>
  </g>
</svg>
