<svg xmlns="http://www.w3.org/2000/svg" xmlns:xlink="http://www.w3.org/1999/xlink" width="108" height="108" viewBox="0 0 108 108">
  <defs>
    <filter id="Fondo" x="0" y="0" width="108" height="108" filterUnits="userSpaceOnUse">
      <feOffset dy="3" input="SourceAlpha"/>
      <feGaussianBlur stdDeviation="3" result="blur"/>
      <feFlood flood-opacity="0.161"/>
      <feComposite operator="in" in2="blur"/>
      <feComposite in="SourceGraphic"/>
    </filter>
  </defs>
  <g id="Group_1144335" data-name="Group 1144335" transform="translate(-309 -1002)">
    <g id="Group_1144121" data-name="Group 1144121">
      <g id="Icono" transform="translate(318.499 313)">
        <g transform="matrix(1, 0, 0, 1, -9.5, 689)" filter="url(#Fondo)">
          <g id="Fondo-2" data-name="Fondo" transform="translate(9 6)" fill="#fff2ee" stroke="#ff8a60" stroke-width="3">
            <circle cx="45" cy="45" r="45" stroke="none"/>
            <circle cx="45" cy="45" r="43.5" fill="none"/>
          </g>
        </g>
      </g>
      <g id="Group_1144120" data-name="Group 1144120" transform="translate(332.754 1025.742)">
        <circle id="Ellipse_11559" data-name="Ellipse 11559" cx="16.83" cy="16.83" r="16.83" transform="translate(2.843 2.845)" fill="#4a8cdd"/>
        <circle id="Ellipse_11560" data-name="Ellipse 11560" cx="13.464" cy="13.464" r="13.464" transform="translate(6.209 6.211)" fill="#5cccbc"/>
        <path id="Path_978990" data-name="Path 978990" d="M33,54H56.562v5.049H33Z" transform="translate(-4.912 -8.239)" fill="#b7b6b7"/>
        <path id="Path_978991" data-name="Path 978991" d="M47,34H58.781v5.049H47Z" transform="translate(-7.131 -5.069)" fill="#b7b6b7"/>
        <path id="Path_978992" data-name="Path 978992" d="M47,24H58.781v5.049H47Z" transform="translate(-7.131 -3.484)" fill="#f4f4f2"/>
        <path id="Path_978993" data-name="Path 978993" d="M0,0H11.781V5.049H0Z" transform="translate(51.65 17.15) rotate(180)" fill="#b7b6b7"/>
        <path id="Path_978994" data-name="Path 978994" d="M47,4H58.781V9.049H47Z" transform="translate(-7.131 -0.313)" fill="#f4f4f2"/>
        <path id="Path_978995" data-name="Path 978995" d="M33,44H56.562v5.049H33Z" transform="translate(-4.912 -6.654)" fill="#f4f4f2"/>
        <path id="Path_978996" data-name="Path 978996" d="M2.524,0A2.524,2.524,0,0,1,5.049,2.524V10.1H0V2.524A2.524,2.524,0,0,1,2.524,0Z" transform="translate(22.198 51.652) rotate(180)" fill="#bcae73"/>
        <path id="Path_978997" data-name="Path 978997" d="M22.524,49v5.89A2.524,2.524,0,0,0,24.9,57.415a2.524,2.524,0,0,1-4.9-.841V49Z" transform="translate(-2.851 -7.446)" fill="#7f754a"/>
        <path id="Path_978998" data-name="Path 978998" d="M12.049,20.464A13.464,13.464,0,0,1,22.988,7.244,13.809,13.809,0,0,0,20.464,7a13.464,13.464,0,0,0,0,26.928,13.809,13.809,0,0,0,2.524-.244,13.464,13.464,0,0,1-10.939-13.22Z" transform="translate(-0.791 -0.789)" fill="#3eb5a7"/>
        <ellipse id="Ellipse_11561" data-name="Ellipse 11561" cx="2.137" cy="1.052" rx="2.137" ry="1.052" transform="translate(10.19 11.241) rotate(-28.821)" fill="#f7f7f7"/>
        <circle id="Ellipse_11562" data-name="Ellipse 11562" cx="0.841" cy="0.841" r="0.841" transform="translate(9.488 14.19) rotate(-73.795)" fill="#f7f7f7"/>
        <path id="Path_978999" data-name="Path 978999" d="M29.83,23.1V19.732h-1.9A6.968,6.968,0,0,0,27.213,18l1.346-1.346-2.381-2.381-1.346,1.346A6.968,6.968,0,0,0,23.1,14.9V13H19.732v1.9A6.968,6.968,0,0,0,18,15.617l-1.346-1.346-2.381,2.381L15.617,18a6.968,6.968,0,0,0-.715,1.733H13V23.1h1.9a6.968,6.968,0,0,0,.715,1.733l-1.346,1.346,2.381,2.381L18,27.213a6.968,6.968,0,0,0,1.733.715v1.9H23.1v-1.9a6.968,6.968,0,0,0,1.733-.715l1.346,1.346,2.381-2.381-1.346-1.346a6.968,6.968,0,0,0,.715-1.733Z" transform="translate(-1.742 -1.74)" fill="#fad55c"/>
        <path id="Path_979000" data-name="Path 979000" d="M31.415,23.1V19.732h-1.9A6.968,6.968,0,0,0,28.8,18l1.346-1.346-2.381-2.381-1.346,1.346a6.968,6.968,0,0,0-1.733-.715V13H23V29.83h1.683v-1.9a6.968,6.968,0,0,0,1.733-.715l1.346,1.346,2.381-2.381L28.8,24.831a6.968,6.968,0,0,0,.715-1.733Z" transform="translate(-3.327 -1.74)" fill="#edc045"/>
        <circle id="Ellipse_11563" data-name="Ellipse 11563" cx="3.366" cy="3.366" r="3.366" transform="translate(16.307 16.309)" fill="#5cccbc"/>
        <path id="Path_979001" data-name="Path 979001" d="M23,19a3.366,3.366,0,1,1,0,6.732" transform="translate(-3.327 -2.691)" fill="#3eb5a7"/>
        <path id="Path_979002" data-name="Path 979002" d="M20.305,7.683V6A14.305,14.305,0,0,0,6,20.305H7.683A12.622,12.622,0,0,1,20.305,7.683Z" transform="translate(-0.632 -0.63)"/>
        <path id="Path_979003" data-name="Path 979003" d="M23,35.622v1.683A14.305,14.305,0,0,0,37.305,23H35.622A12.622,12.622,0,0,1,23,35.622Z" transform="translate(-3.327 -3.325)"/>
        <path id="Path_979004" data-name="Path 979004" d="M22.207,18a4.207,4.207,0,1,0,4.207,4.207A4.207,4.207,0,0,0,22.207,18Zm0,6.732a2.524,2.524,0,1,1,2.524-2.524A2.524,2.524,0,0,1,22.207,24.732Z" transform="translate(-2.534 -2.533)"/>
        <path id="Path_979005" data-name="Path 979005" d="M51.65,2.845H39.869a.841.841,0,0,0-.841.841V5.37H37.345a.841.841,0,0,0-.749.463L34.483,10.04A17.671,17.671,0,1,0,18.832,37.346v3.366H17.149a.841.841,0,0,0-.841.841v7.573a3.366,3.366,0,0,0,6.732,0V41.554a.841.841,0,0,0-.841-.841H20.515V37.346a17.671,17.671,0,0,0,16.83-17.671,17.469,17.469,0,0,0-1.868-7.851l2.39-4.771h1.161V8.735a.841.841,0,0,0,.841.841h5.049V11.26H39.869a.841.841,0,0,0-.841.841V17.15a.841.841,0,0,0,.841.841h5.049v1.683H39.869a.841.841,0,0,0-.841.841v5.049a.841.841,0,0,0,.841.841h5.049V28.09H39.869a.841.841,0,0,0-.841.841V33.98a.841.841,0,0,0,.841.841h5.049V36.5H28.088a.841.841,0,0,0-.841.841V42.4a.841.841,0,0,0,.841.841H39.028V44.92H28.088a.841.841,0,0,0-.841.841V50.81a.841.841,0,0,0,.841.841H51.65a.841.841,0,0,0,.841-.841V45.761a.841.841,0,0,0-.841-.841H40.71V43.237H51.65a.841.841,0,0,0,.841-.841V37.346a.841.841,0,0,0-.841-.841H46.6V34.822H51.65a.841.841,0,0,0,.841-.841V28.931a.841.841,0,0,0-.841-.841H46.6V26.407H51.65a.841.841,0,0,0,.841-.841V20.516a.841.841,0,0,0-.841-.841H46.6V17.992H51.65a.841.841,0,0,0,.841-.841V12.1a.841.841,0,0,0-.841-.841H46.6V9.577H51.65a.841.841,0,0,0,.841-.841V3.687A.841.841,0,0,0,51.65,2.845ZM21.356,49.127a1.683,1.683,0,1,1-3.366,0V42.4h3.366ZM35.662,19.675a15.988,15.988,0,1,1-2.07-7.843l-3.5,7H28.93v-.841a.841.841,0,0,0-.841-.841H26.809a7.706,7.706,0,0,0-.3-.732l.9-.909a.841.841,0,0,0,0-1.187l-2.381-2.381a.841.841,0,0,0-1.187,0l-.909.9a7.706,7.706,0,0,0-.732-.3V11.26a.841.841,0,0,0-.841-.841H17.99a.841.841,0,0,0-.841.841v1.279q-.379.143-.732.3l-.909-.9a.841.841,0,0,0-1.187,0L11.94,14.323a.841.841,0,0,0,0,1.187l.9.909a7.707,7.707,0,0,0-.3.732H11.258a.841.841,0,0,0-.841.841v3.366a.841.841,0,0,0,.841.841h1.279q.143.379.3.732l-.9.951a.841.841,0,0,0,0,1.187l2.381,2.381a.841.841,0,0,0,1.187,0l.909-.9q.353.16.732.3V28.09a.841.841,0,0,0,.841.841h3.366a.841.841,0,0,0,.841-.841V26.811a7.706,7.706,0,0,0,.732-.3l.951.9a.841.841,0,0,0,1.187,0l2.381-2.381a.841.841,0,0,0,0-1.187l-.9-.909q.16-.353.3-.732h1.237a.841.841,0,0,0,.841-.841v-.841h1.683a.842.842,0,0,0,.749-.463l3.147-6.269A15.7,15.7,0,0,1,35.662,19.675ZM24.874,23.68l.749.757-1.187,1.187-.757-.749a.842.842,0,0,0-1.018-.151,5.554,5.554,0,0,1-1.515.631.841.841,0,0,0-.631.841v1.052H18.832v-1.06a.841.841,0,0,0-.631-.841,5.554,5.554,0,0,1-1.515-.631.841.841,0,0,0-1.018.135l-.757.749-1.187-1.187.749-.757a.841.841,0,0,0,.151-.993,5.554,5.554,0,0,1-.631-1.515.841.841,0,0,0-.841-.631H12.1V18.833h1.06A.841.841,0,0,0,14,18.2a5.554,5.554,0,0,1,.631-1.515.841.841,0,0,0-.135-1.018l-.749-.757,1.187-1.187.757.749a.842.842,0,0,0,1.018.135,5.554,5.554,0,0,1,1.515-.631.841.841,0,0,0,.631-.841V12.1H20.54v1.06a.841.841,0,0,0,.631.841,5.554,5.554,0,0,1,1.515.631A.841.841,0,0,0,23.7,14.5l.757-.749,1.187,1.187-.749.757a.841.841,0,0,0-.177.993,5.554,5.554,0,0,1,.631,1.515.841.841,0,0,0,.841.631h1.052v1.683h-1.06a.841.841,0,0,0-.841.631,5.554,5.554,0,0,1-.631,1.515.841.841,0,0,0,.16,1.018ZM50.808,49.969H28.93V46.6H50.808Zm0-8.415H28.93V38.188H50.808Zm0-8.415H40.71V29.773h10.1Zm0-8.415H40.71V21.358h10.1Zm0-8.415H40.71V12.943h10.1Zm0-8.415H40.71V4.528h10.1Z" transform="translate(0 0)"/>
        <path id="Path_979006" data-name="Path 979006" d="M25,6h1.683V7.683H25Z" transform="translate(-3.644 -0.63)"/>
        <path id="Path_979007" data-name="Path 979007" d="M19,38h1.683v1.683H19Z" transform="translate(-2.693 -5.703)"/>
      </g>
    </g>
  </g>
</svg>
