<svg xmlns="http://www.w3.org/2000/svg" xmlns:xlink="http://www.w3.org/1999/xlink" width="108" height="108" viewBox="0 0 108 108">
  <defs>
    <filter id="Fondo" x="0" y="0" width="108" height="108" filterUnits="userSpaceOnUse">
      <feOffset dy="3" input="SourceAlpha"/>
      <feGaussianBlur stdDeviation="3" result="blur"/>
      <feFlood flood-opacity="0.161"/>
      <feComposite operator="in" in2="blur"/>
      <feComposite in="SourceGraphic"/>
    </filter>
  </defs>
  <g id="Group_1144340" data-name="Group 1144340" transform="translate(-1165.999 -1892)">
    <g id="Group_1144137" data-name="Group 1144137">
      <g transform="matrix(1, 0, 0, 1, 1166, 1892)" filter="url(#Fondo)">
        <g id="Fondo-2" data-name="Fondo" transform="translate(9 6)" fill="#fff2ee" stroke="#ff8a60" stroke-width="3">
          <circle cx="45" cy="45" r="45" stroke="none"/>
          <circle cx="45" cy="45" r="43.5" fill="none"/>
        </g>
      </g>
      <g id="Group_1144136" data-name="Group 1144136" transform="translate(1193.224 1916.211)">
        <path id="Path_979031" data-name="Path 979031" d="M39.605,101.23H10.31A2.81,2.81,0,0,1,7.5,98.42V56.9a2.81,2.81,0,0,1,2.81-2.81h29.3a2.81,2.81,0,0,1,2.81,2.81V98.42A2.81,2.81,0,0,1,39.605,101.23Z" transform="translate(-6.657 -48.007)" fill="#fd6930"/>
        <path id="Path_979032" data-name="Path 979032" d="M38.563,85.156H66.5v40.153H38.563Z" transform="translate(-34.228 -75.578)" fill="#fff"/>
        <path id="Path_979033" data-name="Path 979033" d="M97.376,10.993a3.492,3.492,0,1,0-6.983,0H85.156v6.983a1.686,1.686,0,0,0,1.686,1.686h14.086a1.686,1.686,0,0,0,1.686-1.686V10.993Z" transform="translate(-75.584 -6.652)" fill="#528fd8"/>
        <path id="Path_979034" data-name="Path 979034" d="M182.125,7.5a19.209,19.209,0,0,0-17.012,28.325,2.811,2.811,0,0,1-.483,3.326l-1.668,1.668,1.6,3.342,3.342,1.6,1.668-1.668a2.811,2.811,0,0,1,3.326-.483A19.205,19.205,0,1,0,182.125,7.5Z" transform="translate(-144.512 -6.651)" fill="#b2caec"/>
        <path id="Path_979035" data-name="Path 979035" d="M210.394,34.825a19.212,19.212,0,0,0-12.947-18.052,19.207,19.207,0,0,1-19.875,32.816,2.811,2.811,0,0,0-3.326.483l-1.1,1.1.584,1.223,3.342,1.6,1.668-1.668a2.811,2.811,0,0,1,3.326-.483,19.21,19.21,0,0,0,28.325-17.012Z" transform="translate(-153.686 -14.881)" fill="#82aee3"/>
        <circle id="Ellipse_11567" data-name="Ellipse 11567" cx="13.966" cy="13.966" r="13.966" transform="translate(23.538 6.087)" fill="#f2fbff"/>
        <path id="Path_979036" data-name="Path 979036" d="M320.342,54.094a14.124,14.124,0,0,0-1.686.1,13.968,13.968,0,0,1,0,27.731,13.967,13.967,0,1,0,1.686-27.832Z" transform="translate(-282.838 -48.007)" fill="#dff6fd"/>
        <path id="Path_979037" data-name="Path 979037" d="M259.879,118.346l-1.716-1.716a1.405,1.405,0,0,0-1.987,0l-7.648,7.648-3.944-3.944a1.405,1.405,0,0,0-1.987,0l-1.716,1.716a1.4,1.4,0,0,0,0,1.987l6.654,6.654a1.405,1.405,0,0,0,1.987,0l10.357-10.357A1.405,1.405,0,0,0,259.879,118.346Z" transform="translate(-213.439 -103.149)" fill="#80d261"/>
        <path id="Path_979038" data-name="Path 979038" d="M28.938,312.191l1.109-3.326-4.938-4.938-3.326,1.109a1.685,1.685,0,0,0-.659.407l-12.8,12.8a2.81,2.81,0,0,0,0,3.974l3.433,3.433a2.81,2.81,0,0,0,3.974,0l12.8-12.8a1.686,1.686,0,0,0,.407-.659Z" transform="translate(-6.658 -269.758)" fill="#01c0fa"/>
        <path id="Path_979039" data-name="Path 979039" d="M39.593,317.855,22.056,335.392l2.62,2.619a2.81,2.81,0,0,0,3.974,0l12.8-12.8a1.687,1.687,0,0,0,.407-.659l1.109-3.326Z" transform="translate(-19.577 -282.121)" fill="#08a9f1"/>
        <g id="Group_1144135" data-name="Group 1144135" transform="translate(7.826 16.561)">
          <path id="Path_979040" data-name="Path 979040" d="M69.625,147.281h3.492v3.492H69.625Z" transform="translate(-69.625 -147.281)" fill="#01c0fa"/>
          <path id="Path_979041" data-name="Path 979041" d="M69.625,209.406h3.492V212.9H69.625Z" transform="translate(-69.625 -202.423)" fill="#01c0fa"/>
          <path id="Path_979042" data-name="Path 979042" d="M69.625,271.531h3.492v3.492H69.625Z" transform="translate(-69.625 -257.565)" fill="#01c0fa"/>
        </g>
        <path id="Path_979043" data-name="Path 979043" d="M248.931,109.394l-7.051,7.052-3.348-3.348a2.251,2.251,0,0,0-3.179,0l-1.716,1.716a2.251,2.251,0,0,0,0,3.179l6.654,6.654a2.251,2.251,0,0,0,3.179,0l5.449-5.449a.843.843,0,0,0-1.192-1.192l-5.449,5.449a.563.563,0,0,1-.795,0l-6.654-6.654a.563.563,0,0,1,0-.795l1.716-1.716a.563.563,0,0,1,.795,0l3.944,3.944a.843.843,0,0,0,1.192,0l7.648-7.648a.563.563,0,0,1,.795,0l1.716,1.716a.562.562,0,0,1,0,.795l-2.043,2.043a.843.843,0,0,0,1.192,1.192l2.043-2.043a2.248,2.248,0,0,0,0-3.179l-1.716-1.716A2.25,2.25,0,0,0,248.931,109.394Z" transform="translate(-206.791 -96.508)"/>
        <path id="Path_979044" data-name="Path 979044" d="M216.715,46.6a14.809,14.809,0,1,0,14.809,14.809A14.826,14.826,0,0,0,216.715,46.6Zm0,27.932a13.123,13.123,0,1,1,13.123-13.123A13.138,13.138,0,0,1,216.715,74.534Z" transform="translate(-179.211 -41.358)"/>
        <circle id="Ellipse_11568" data-name="Ellipse 11568" cx="0.843" cy="0.843" r="0.843" transform="translate(17.458 3.499)"/>
        <path id="Path_979045" data-name="Path 979045" d="M57.551,19.94A20.02,20.02,0,0,0,26.235,3.5H22.553a4.335,4.335,0,0,0-8.5,0H9.572a.843.843,0,0,0-.843.843v.9H8.077a.843.843,0,1,0,0,1.686h.652V8.736H4.335a.843.843,0,0,0-.843.843V45.467L1.686,47.273V8.9A1.969,1.969,0,0,1,3.653,6.93h.49a.843.843,0,1,0,0-1.686h-.49A3.657,3.657,0,0,0,0,8.9V50.413c0,.018,0,.036,0,.053A3.642,3.642,0,0,0,1.07,53.055L4.5,56.488a3.657,3.657,0,0,0,5.166,0l2.422-2.422H32.948A3.657,3.657,0,0,0,36.6,50.413V40.08c.4.018.8.024,1.2.018A20.106,20.106,0,0,0,57.551,19.94ZM10.415,5.185h4.394a.843.843,0,0,0,.843-.843,2.648,2.648,0,1,1,5.3,0,.843.843,0,0,0,.843.843h2.3A20.288,20.288,0,0,0,20.98,8.736H13.063a.843.843,0,1,0,0,1.686h6.874q-.469.849-.856,1.746H11.258a.844.844,0,0,1-.843-.843V5.185ZM8.477,55.3a1.969,1.969,0,0,1-2.782,0L2.262,51.863a1.969,1.969,0,0,1,0-2.782l6.16-6.16A.843.843,0,1,0,7.23,41.729L5.178,43.782V10.422H8.729v.9a2.532,2.532,0,0,0,2.529,2.529h7.185q-.3.914-.511,1.865H14.809a.843.843,0,1,0,0,1.686h2.823q-.119.891-.157,1.805H14.809a.843.843,0,0,0,0,1.686h2.667q.038.907.158,1.805H14.809a.843.843,0,1,0,0,1.686h3.122q.2.914.487,1.805h-3.61a.843.843,0,0,0,0,1.686h4.235q.367.867.815,1.7.029.054.055.108H14.809a.843.843,0,0,0,0,1.686H19.9a1.981,1.981,0,0,1-.381.534l-1.272,1.272H14.809a.843.843,0,0,0-.47,1.543,2.528,2.528,0,0,0-.47.369l-3.77,3.77a.843.843,0,0,0,1.192,1.192l3.77-3.77a.848.848,0,0,1,.33-.2l2.831-.944,4.2,4.2-.944,2.831a.847.847,0,0,1-.2.329Zm14.6-12.6,1.046-3.137,1.528-1.528a1.955,1.955,0,0,1,2.328-.337,19.862,19.862,0,0,0,3.443,1.46v9.731H17.268l5.2-5.2A2.542,2.542,0,0,0,23.08,42.7Zm11.836,7.714a1.969,1.969,0,0,1-1.967,1.967H13.776l1.805-1.805H32.267a.843.843,0,0,0,.843-.843V39.614q.894.2,1.805.319V50.413Zm2.865-12a18.383,18.383,0,0,1-9-2.2,3.677,3.677,0,0,0-4.323.628l-1.072,1.072L19.643,34.17,20.715,33.1a3.661,3.661,0,0,0,1.062-2.456.842.842,0,0,0,0-.212,3.633,3.633,0,0,0-.435-1.654,18.363,18.363,0,1,1,16.438,9.637Z" transform="translate(0 0)"/>
        <path id="Path_979046" data-name="Path 979046" d="M207.589,284.061a.843.843,0,1,0-1.192,1.192l.784.784a.843.843,0,0,0,1.192-1.192Z" transform="translate(-182.978 -251.906)"/>
        <path id="Path_979047" data-name="Path 979047" d="M62.968,144.968H66.46a.843.843,0,0,0,.843-.843v-3.491a.843.843,0,0,0-.843-.843H62.968a.843.843,0,0,0-.843.843v3.491A.843.843,0,0,0,62.968,144.968Zm.843-3.492h1.805v1.805H63.811Z" transform="translate(-55.142 -124.071)"/>
        <path id="Path_979048" data-name="Path 979048" d="M62.968,207.093H66.46a.843.843,0,0,0,.843-.843v-3.491a.843.843,0,0,0-.843-.843H62.968a.843.843,0,0,0-.843.843v3.491A.843.843,0,0,0,62.968,207.093Zm.843-3.492h1.805v1.805H63.811Z" transform="translate(-55.142 -179.213)"/>
        <path id="Path_979049" data-name="Path 979049" d="M67.3,268.375v-3.491a.843.843,0,0,0-.843-.843H62.968a.843.843,0,0,0-.843.843v3.491a.843.843,0,0,0,.843.843H66.46A.843.843,0,0,0,67.3,268.375Zm-1.686-.843H63.811v-1.805h1.805v1.805Z" transform="translate(-55.142 -234.355)"/>
        <path id="Path_979050" data-name="Path 979050" d="M150.388,335.3a.843.843,0,1,0,1.192-1.192l-1.886-1.886a.843.843,0,0,0-1.192,1.192Z" transform="translate(-131.591 -294.653)"/>
      </g>
    </g>
  </g>
</svg>
