<svg xmlns="http://www.w3.org/2000/svg" xmlns:xlink="http://www.w3.org/1999/xlink" width="108" height="108" viewBox="0 0 108 108">
  <defs>
    <filter id="Fondo" x="0" y="0" width="108" height="108" filterUnits="userSpaceOnUse">
      <feOffset dy="3" input="SourceAlpha"/>
      <feGaussianBlur stdDeviation="3" result="blur"/>
      <feFlood flood-opacity="0.161"/>
      <feComposite operator="in" in2="blur"/>
      <feComposite in="SourceGraphic"/>
    </filter>
  </defs>
  <g id="Group_1144352" data-name="Group 1144352" transform="translate(-586 -5298)">
    <g id="Group_1144225" data-name="Group 1144225" transform="translate(-317 -1)">
      <g transform="matrix(1, 0, 0, 1, 903, 5299)" filter="url(#Fondo)">
        <g id="Fondo-2" data-name="Fondo" transform="translate(9 6)" fill="#fff2ee" stroke="#ff8a60" stroke-width="3">
          <circle cx="45" cy="45" r="45" stroke="none"/>
          <circle cx="45" cy="45" r="43.5" fill="none"/>
        </g>
      </g>
      <g id="Group_1144164" data-name="Group 1144164" transform="translate(933.169 5327.696)">
        <path id="Path_979196" data-name="Path 979196" d="M413.37,58.6,407.5,52.731a1.693,1.693,0,1,0-2.394,2.394L410.976,61A1.693,1.693,0,1,0,413.37,58.6Zm0,0" transform="translate(-366.152 -47.27)" fill="#e1e3e9"/>
        <path id="Path_979197" data-name="Path 979197" d="M9.988,11.677V49.819a1.688,1.688,0,0,0,1.688,1.688H40.7a1.688,1.688,0,0,0,1.688-1.688v-33L35.557,9.989H11.676a1.688,1.688,0,0,0-1.688,1.688Zm0,0" transform="translate(-9.04 -9.039)" fill="#fff"/>
        <path id="Path_979198" data-name="Path 979198" d="M309.786,465.254H289.66a3.8,3.8,0,0,1,3.8-3.8h12.531a3.8,3.8,0,0,1,3.8,3.8Zm0,0" transform="translate(-262.13 -417.598)" fill="#b5bcc9"/>
        <path id="Path_979199" data-name="Path 979199" d="M279.135,168.746l-3.187,3.187a8.926,8.926,0,0,1-12.623,12.623l-3.187,3.187a13.433,13.433,0,0,0,19-19Zm0,0" transform="translate(-235.414 -152.707)" fill="#b5bcc9"/>
        <path id="Path_979200" data-name="Path 979200" d="M352.147,357.578a4.557,4.557,0,0,0-4.557,4.557v5.316H356.7v-5.316A4.557,4.557,0,0,0,352.147,357.578Zm0,0" transform="translate(-314.554 -323.592)" fill="#eff3f3"/>
        <path id="Path_979201" data-name="Path 979201" d="M283.183,83.371l5.734,5.734-13.378,13.378L269.8,96.749Zm0,0" transform="translate(-244.162 -75.447)" fill="#eff3f3"/>
        <path id="Path_979202" data-name="Path 979202" d="M242.34,235.277l3.614,3.614-4.055,4.055-3.614-3.614Zm0,0" transform="translate(-215.638 -212.915)" fill="#d3d7df"/>
        <path id="Path_979203" data-name="Path 979203" d="M182.688,338.891h9.525a1.9,1.9,0,0,0,0-3.8h-9.525a1.9,1.9,0,0,0,0,3.8Zm0,0" transform="translate(-163.607 -303.245)" fill="#eff3f3"/>
        <path id="Path_979204" data-name="Path 979204" d="M285.847,16.823l-6.835-6.835v5.233a1.6,1.6,0,0,0,1.6,1.6Zm0,0" transform="translate(-252.494 -9.039)" fill="#ffd89e"/>
        <path id="Path_979205" data-name="Path 979205" d="M352.147,357.578a4.557,4.557,0,0,0-4.557,4.557v5.316H356.7v-5.316A4.557,4.557,0,0,0,352.147,357.578Zm0,0" transform="translate(-314.554 -323.592)" fill="#e1e3e9"/>
        <path id="Path_979206" data-name="Path 979206" d="M283.183,83.371l5.734,5.734-13.378,13.378L269.8,96.749Zm0,0" transform="translate(-244.162 -75.447)" fill="#91def5"/>
        <path id="Path_979207" data-name="Path 979207" d="M182.688,338.891h9.525a1.9,1.9,0,0,0,0-3.8h-9.525a1.9,1.9,0,0,0,0,3.8Zm0,0" transform="translate(-163.607 -303.245)" fill="#e1e3e9"/>
        <path id="Path_979208" data-name="Path 979208" d="M386.5,399.531a.95.95,0,1,0,.671.278A.956.956,0,0,0,386.5,399.531Zm0,0" transform="translate(-348.903 -361.557)"/>
        <path id="Path_979209" data-name="Path 979209" d="M48.6,25.537a14.287,14.287,0,0,0-4.212-10.17l0,0,.464-.464a2.642,2.642,0,0,0,3.035-4.238L42.016,4.79a2.642,2.642,0,0,0-4.238,3.035L34.3,11.3V7.785h0a.947.947,0,0,0-.276-.672L27.189.278A.948.948,0,0,0,26.517,0a0,0,0,0,1,0,0H2.636A2.64,2.64,0,0,0,0,2.637V40.78a2.64,2.64,0,0,0,2.637,2.637h9.619a.949.949,0,1,0,0-1.9H2.636A.739.739,0,0,1,1.9,40.78V2.637A.739.739,0,0,1,2.636,1.9H25.568V6.183A2.554,2.554,0,0,0,28.12,8.734H32.4V13.2l-7.432,7.432a.949.949,0,0,0,0,1.343l.388.388-3.384,3.384a.949.949,0,0,0,0,1.343L25.59,30.7a.947.947,0,0,0,.287.2h-6.8a2.848,2.848,0,0,0,0,5.7h5.946a14.237,14.237,0,0,0,7.06,3.166v1.757H20.8a.949.949,0,1,0,0,1.9h8.4a4.751,4.751,0,0,0-2.616,4.24.949.949,0,0,0,.949.949H47.655a.949.949,0,0,0,.949-.949,4.752,4.752,0,0,0-4.747-4.747H43.1V38.543a5.494,5.494,0,0,0-.216-1.522,14.556,14.556,0,0,0,1.509-1.314A14.287,14.287,0,0,0,48.6,25.537ZM28.12,6.835a.653.653,0,0,1-.653-.653V3.241l3.594,3.594Zm11.5-.7a.743.743,0,0,1,1.051,0l5.874,5.874A.743.743,0,0,1,45.5,13.057l-.07-.07L39.692,7.253l-.07-.07a.744.744,0,0,1,0-1.051Zm-5.6,8.132h0l5-5,4.391,4.391L31.376,25.694l-.388-.388-3.614-3.614-.388-.388ZM39.863,19.9a7.989,7.989,0,0,1-3.072,13.2,5.483,5.483,0,0,0-1.145.3,7.865,7.865,0,0,1-1.344.128V25.453l5.559-5.559,0,0ZM23.989,26.418,26.7,23.705l2.272,2.272L26.261,28.69ZM26.932,30.7l3.384-3.384.388.388a.949.949,0,0,0,1.343,0l.356-.356v5.955a8.065,8.065,0,0,1-1.056-.326A2.852,2.852,0,0,0,28.605,30.9H26.645a.951.951,0,0,0,.288-.2Zm-8.8,3.044a.951.951,0,0,1,.949-.949h9.525a.949.949,0,0,1,0,1.9H19.081a.95.95,0,0,1-.949-.949ZM28.606,36.6a2.851,2.851,0,0,0,2.586-1.657,9.925,9.925,0,0,0,1.805.4.945.945,0,0,0,.1.033,5.475,5.475,0,0,0-.961,2.47,12.352,12.352,0,0,1-3.714-1.25h.188ZM46.544,46.707h-17.9a2.853,2.853,0,0,1,2.685-1.9H43.858a2.853,2.853,0,0,1,2.685,1.9Zm-12.559-3.8V38.543a3.612,3.612,0,0,1,2.184-3.314,9.815,9.815,0,0,0,1.057-.275A3.609,3.609,0,0,1,41.2,38.543V42.91Zm8.041-7.628a5.545,5.545,0,0,0-2.062-1.707,10.03,10.03,0,0,0,1.242-1.054,9.876,9.876,0,0,0,0-13.966l0,0,1.844-1.844,0,0a12.5,12.5,0,0,1,0,17.655,12.741,12.741,0,0,1-1.024.917Zm0,0" transform="translate(0)"/>
        <path id="Path_979210" data-name="Path 979210" d="M74.895,121.758H93.243a.949.949,0,0,0,0-1.9H74.895a.949.949,0,1,0,0,1.9Zm0,0" transform="translate(-66.918 -108.467)"/>
        <path id="Path_979211" data-name="Path 979211" d="M74.895,169.7H91.642a.949.949,0,1,0,0-1.9H74.895a.949.949,0,1,0,0,1.9Zm0,0" transform="translate(-66.918 -151.852)"/>
        <path id="Path_979212" data-name="Path 979212" d="M74.895,217.645H89.037a.949.949,0,1,0,0-1.9H74.895a.949.949,0,1,0,0,1.9Zm0,0" transform="translate(-66.918 -195.241)"/>
        <path id="Path_979213" data-name="Path 979213" d="M74.895,265.59h9.211a.949.949,0,0,0,0-1.9H74.895a.949.949,0,0,0,0,1.9Zm0,0" transform="translate(-66.918 -238.629)"/>
        <path id="Path_979214" data-name="Path 979214" d="M80.54,311.633H74.895a.949.949,0,0,0,0,1.9H80.54a.949.949,0,0,0,0-1.9Zm0,0" transform="translate(-66.918 -282.014)"/>
        <path id="Path_979215" data-name="Path 979215" d="M164.856,437.484a.949.949,0,1,0,.671.278A.957.957,0,0,0,164.856,437.484Zm0,0" transform="translate(-148.329 -395.903)"/>
      </g>
    </g>
  </g>
</svg>
