<svg xmlns="http://www.w3.org/2000/svg" xmlns:xlink="http://www.w3.org/1999/xlink" width="108" height="108" viewBox="0 0 108 108">
  <defs>
    <filter id="Fondo" x="0" y="0" width="108" height="108" filterUnits="userSpaceOnUse">
      <feOffset dy="3" input="SourceAlpha"/>
      <feGaussianBlur stdDeviation="3" result="blur"/>
      <feFlood flood-opacity="0.161"/>
      <feComposite operator="in" in2="blur"/>
      <feComposite in="SourceGraphic"/>
    </filter>
  </defs>
  <g id="Group_1144376" data-name="Group 1144376" transform="translate(-483 -5058.333)">
    <g id="Group_1144282" data-name="Group 1144282">
      <g transform="matrix(1, 0, 0, 1, 483, 5058.33)" filter="url(#Fondo)">
        <g id="Fondo-2" data-name="Fondo" transform="translate(9 6)" fill="#fff2ee" stroke="#ff8a60" stroke-width="3">
          <circle cx="45" cy="45" r="45" stroke="none"/>
          <circle cx="45" cy="45" r="43.5" fill="none"/>
        </g>
      </g>
      <g id="Group_1144281" data-name="Group 1144281" transform="translate(510.917 5065.127)">
        <g id="Group_1144280" data-name="Group 1144280" transform="translate(0.793 23.383)">
          <g id="Group_1144278" data-name="Group 1144278" transform="translate(0 0)">
            <g id="Group_1144276" data-name="Group 1144276" transform="translate(26.29)">
              <path id="Path_979371" data-name="Path 979371" d="M256,70.839,282.29,65.6V31.918a1.825,1.825,0,0,0-1.822-1.828H261.206A5.214,5.214,0,0,0,256,35.312Z" transform="translate(-256 -30.09)" fill="#eaf6ff"/>
              <path id="Path_979372" data-name="Path 979372" d="M460.451,30.09h-3.174a1.825,1.825,0,0,1,1.822,1.828V65.6h3.174V31.918A1.825,1.825,0,0,0,460.451,30.09Z" transform="translate(-435.983 -30.09)" fill="#d8ecfe"/>
              <path id="Path_979373" data-name="Path 979373" d="M256,352.059h24.467a1.825,1.825,0,0,0,1.822-1.828v-6.107H260.838A4.838,4.838,0,0,0,256,348.963Z" transform="translate(-256 -310.902)" fill="#d8ecfe"/>
              <path id="Path_979374" data-name="Path 979374" d="M459.1,344.125v6.107a1.825,1.825,0,0,1-1.822,1.828h3.174a1.825,1.825,0,0,0,1.822-1.828v-6.107Z" transform="translate(-435.983 -310.902)" fill="#c4e2ff"/>
            </g>
            <g id="Group_1144277" data-name="Group 1144277">
              <path id="Path_979375" data-name="Path 979375" d="M33.79,70.839,7.5,65.6V31.918A1.825,1.825,0,0,1,9.322,30.09H28.584a5.214,5.214,0,0,1,5.206,5.222Z" transform="translate(-7.5 -30.09)" fill="#eaf6ff"/>
              <path id="Path_979376" data-name="Path 979376" d="M179.966,30.09h-3.174A5.214,5.214,0,0,1,182,35.312V70.206l3.174.633V35.312A5.214,5.214,0,0,0,179.966,30.09Z" transform="translate(-158.882 -30.09)" fill="#d8ecfe"/>
              <path id="Path_979377" data-name="Path 979377" d="M33.79,352.059H9.322A1.825,1.825,0,0,1,7.5,350.232v-6.107H28.952a4.838,4.838,0,0,1,4.838,4.838Z" transform="translate(-7.5 -310.902)" fill="#d8ecfe"/>
              <path id="Path_979378" data-name="Path 979378" d="M183.447,344.125h-3.174a4.838,4.838,0,0,1,4.838,4.838v3.1h3.174v-3.1A4.838,4.838,0,0,0,183.447,344.125Z" transform="translate(-161.995 -310.902)" fill="#c4e2ff"/>
            </g>
          </g>
          <g id="Group_1144279" data-name="Group 1144279" transform="translate(7.363 5.091)">
            <path id="Path_979379" data-name="Path 979379" d="M0,0H4.418V8.426H0Z" transform="matrix(-0.866, -0.5, 0.5, -0.866, 12.786, 27.781)" fill="#3d6d93"/>
            <path id="Path_979380" data-name="Path 979380" d="M78.994,333.132a3.8,3.8,0,0,0,5.186-1.389L90.726,320.4a1.058,1.058,0,0,0-.387-1.445L85.6,316.221a1.058,1.058,0,0,0-1.445.387L77.6,327.947a3.8,3.8,0,0,0,1.389,5.186Z" transform="translate(-77.095 -290.914)" fill="#e19974"/>
            <path id="Path_979381" data-name="Path 979381" d="M109.015,318.959l-4.743-2.738a1.058,1.058,0,0,0-1.445.387l-.264.458a4.844,4.844,0,0,1,1.773,6.616l-4.654,8.06a3.777,3.777,0,0,1-1.7,1.55,3.8,3.8,0,0,0,4.875-1.55L109.4,320.4A1.058,1.058,0,0,0,109.015,318.959Z" transform="translate(-95.771 -290.914)" fill="#dc8758"/>
            <circle id="Ellipse_11588" data-name="Ellipse 11588" cx="12.378" cy="12.378" r="12.378" transform="translate(6.749 0.001)" fill="#8fd8fa"/>
            <path id="Path_979382" data-name="Path 979382" d="M250.569,79.871a12.322,12.322,0,0,0-7.765-1.557,12.379,12.379,0,0,1-.022,24.554,12.379,12.379,0,0,0,7.787-23Z" transform="translate(-225.254 -78.212)" fill="#6bcdfe"/>
            <circle id="Ellipse_11589" data-name="Ellipse 11589" cx="7.558" cy="7.558" r="7.558" transform="translate(11.568 4.821)" fill="#eaf6ff"/>
            <path id="Path_979383" data-name="Path 979383" d="M248.232,124.786a7.53,7.53,0,0,0-5.364-.844,7.558,7.558,0,0,1,0,14.78,7.559,7.559,0,0,0,5.368-13.935Z" transform="translate(-225.327 -118.953)" fill="#d8ecfe"/>
          </g>
        </g>
        <path id="Path_979384" data-name="Path 979384" d="M51.551,22.59H32.289A5.957,5.957,0,0,0,28.1,24.3a6.036,6.036,0,0,0-1.012,1.311A6.036,6.036,0,0,0,26.071,24.3a5.958,5.958,0,0,0-4.194-1.714H2.615A2.621,2.621,0,0,0,0,25.21v37.5a2.621,2.621,0,0,0,2.615,2.62H7.858a4.589,4.589,0,0,0,8.07,4.366l2.521-4.366h33.1a2.621,2.621,0,0,0,2.616-2.621V25.21a2.621,2.621,0,0,0-2.615-2.62ZM2.615,63.747a1.032,1.032,0,0,1-1.028-1.034V57.4H12.43L8.766,63.747Zm11.938,5.16a3,3,0,1,1-5.2-3L14.5,56.989l0-.007,1.4-2.417a.255.255,0,0,1,.361-.1L21,57.206a.265.265,0,0,1,.1.361ZM18.2,53.755l1.31-2.268A13.2,13.2,0,0,0,21.961,52.9l-1.31,2.269Zm8.091,9.992H19.365l3.109-5.386a1.836,1.836,0,0,0,.246-.933,4.05,4.05,0,0,1,3.569,4.016Zm0-6.216a5.636,5.636,0,0,0-4.176-1.719l1.357-2.35a13.075,13.075,0,0,0,2.819.524Zm-4.8-6.645a11.716,11.716,0,0,1-1.683-1.179L19.8,49.7a11.59,11.59,0,0,1-2.551-14.64.793.793,0,1,0-1.374-.793,13.182,13.182,0,0,0,2.392,16.194L16.814,52.98a1.862,1.862,0,0,0-2.29.792l-1.178,2.041H1.587V25.21a1.032,1.032,0,0,1,1.028-1.034H21.877a4.449,4.449,0,0,1,4.322,3.55,13.275,13.275,0,0,0-7.869,3.461.793.793,0,0,0,1.079,1.164,11.714,11.714,0,0,1,7.874-3.086,11.586,11.586,0,1,1-5.792,21.62Zm31.089,4.927H47.543a.793.793,0,0,0,0,1.587h5.036v5.313a1.033,1.033,0,0,1-1.029,1.034H27.876v-2.3A4.049,4.049,0,0,1,31.921,57.4H43.84a.793.793,0,0,0,0-1.587H31.921a5.614,5.614,0,0,0-4.044,1.719V54.006a13.17,13.17,0,0,0,.1-26.308,4.449,4.449,0,0,1,4.317-3.521H51.551a1.032,1.032,0,0,1,1.028,1.034ZM3.967,43.118h7.247a.793.793,0,0,0,0-1.587H3.967a.793.793,0,0,0,0,1.587Zm0-4.761h7.247a.793.793,0,0,0,0-1.587H3.967a.793.793,0,0,0,0,1.587ZM50.2,32.009H41.365a.793.793,0,1,0,0,1.587H50.2a.793.793,0,1,0,0-1.587Zm0-4.659H38.191a.793.793,0,1,0,0,1.587H50.2a.793.793,0,1,0,0-1.587ZM3.967,47.878h8.2a.793.793,0,1,0,0-1.587h-8.2a.793.793,0,1,0,0,1.587ZM31.458,33.621a8.352,8.352,0,1,0,3.057,11.408A8.361,8.361,0,0,0,31.458,33.621Zm1.683,10.615a6.765,6.765,0,1,1-2.476-9.241,6.785,6.785,0,0,1,2.476,9.241ZM50.2,46.291H42.635a.793.793,0,1,0,0,1.587H50.2a.793.793,0,1,0,0-1.587Zm0-4.761H43.375a.793.793,0,1,0,0,1.587H50.2a.793.793,0,1,0,0-1.587Zm0,9.521H39.778a.793.793,0,1,0,0,1.587H50.2a.793.793,0,1,0,0-1.587ZM18.355,28.144a.793.793,0,0,0-.793-.793H3.967a.793.793,0,0,0,0,1.587H17.562A.793.793,0,0,0,18.355,28.144ZM12.8,32.009H3.967a.793.793,0,1,0,0,1.587H12.8a.793.793,0,1,0,0-1.587Zm0,19.043H3.967a.793.793,0,0,0,0,1.587H12.8a.793.793,0,1,0,0-1.587ZM50.2,36.77H42.952a.793.793,0,1,0,0,1.587H50.2a.793.793,0,1,0,0-1.587Z"/>
      </g>
    </g>
  </g>
</svg>
