<svg xmlns="http://www.w3.org/2000/svg" xmlns:xlink="http://www.w3.org/1999/xlink" width="108" height="108" viewBox="0 0 108 108">
  <defs>
    <filter id="Fondo" x="0" y="0" width="108" height="108" filterUnits="userSpaceOnUse">
      <feOffset dy="3" input="SourceAlpha"/>
      <feGaussianBlur stdDeviation="3" result="blur"/>
      <feFlood flood-opacity="0.161"/>
      <feComposite operator="in" in2="blur"/>
      <feComposite in="SourceGraphic"/>
    </filter>
  </defs>
  <g id="Group_1144339" data-name="Group 1144339" transform="translate(-745.999 -1892)">
    <g id="Group_1144134" data-name="Group 1144134">
      <g transform="matrix(1, 0, 0, 1, 746, 1892)" filter="url(#Fondo)">
        <g id="Fondo-2" data-name="Fondo" transform="translate(9 6)" fill="#fff2ee" stroke="#ff8a60" stroke-width="3">
          <circle cx="45" cy="45" r="45" stroke="none"/>
          <circle cx="45" cy="45" r="43.5" fill="none"/>
        </g>
      </g>
      <g id="Group_1144133" data-name="Group 1144133" transform="translate(758.026 1896.892)">
        <rect id="Rectangle_405218" data-name="Rectangle 405218" width="50" height="41" transform="translate(16.974 27.108)" fill="#eb423f"/>
        <rect id="Rectangle_405219" data-name="Rectangle 405219" width="44" height="4" transform="translate(19.974 61.108)" fill="#dadcde"/>
        <path id="Path_979019" data-name="Path 979019" d="M99.289,32V68.363H84.571a6.922,6.922,0,0,0-5.2,2.347q-.18.2-.345.423l-.519.693-.519-.693c-.11-.147-.225-.288-.346-.424a6.921,6.921,0,0,0-5.195-2.346H56V32H72.45a6.921,6.921,0,0,1,5.2,2.347c.12.135.235.276.345.423l.519.693.519-.693c.11-.147.225-.288.346-.424A6.921,6.921,0,0,1,84.571,32Z" transform="translate(-35.671 -7.134)" fill="#e9eef2"/>
        <rect id="Rectangle_405220" data-name="Rectangle 405220" width="3" height="7" transform="translate(23.974 49.108)" fill="#c3c6c7"/>
        <rect id="Rectangle_405221" data-name="Rectangle 405221" width="5" height="4" transform="translate(52.974 33.108)" fill="#c3c6c7"/>
        <path id="Path_979020" data-name="Path 979020" d="M103.584,89.524V86.061H101.6a6.023,6.023,0,0,0-.426-1.053l1.544-1.544-2.6-2.6L98.577,82.41a6.024,6.024,0,0,0-1.053-.426V80H94.061v1.984a6.023,6.023,0,0,0-1.053.426l-1.544-1.544-2.6,2.6,1.544,1.544a6.023,6.023,0,0,0-.426,1.053H88v3.463h1.984a6.023,6.023,0,0,0,.426,1.053l-1.544,1.544,2.6,2.6,1.544-1.544a6.024,6.024,0,0,0,1.053.426v1.984h3.463V93.6a6.023,6.023,0,0,0,1.053-.426l1.544,1.544,2.6-2.6-1.544-1.544a6.023,6.023,0,0,0,.426-1.053Z" transform="translate(-64.208 -49.939)" fill="#3397e8"/>
        <ellipse id="Ellipse_11564" data-name="Ellipse 11564" cx="3" cy="2.5" rx="3" ry="2.5" transform="translate(28.974 35.108)" fill="#e9eef2"/>
        <rect id="Rectangle_405222" data-name="Rectangle 405222" width="3.673" height="9.183" transform="translate(51.498 60.363) rotate(-45)" fill="#2978b8"/>
        <ellipse id="Ellipse_11565" data-name="Ellipse 11565" cx="11.5" cy="12.5" rx="11.5" ry="12.5" transform="translate(34.974 40.108)" fill="#3397e8"/>
        <circle id="Ellipse_11566" data-name="Ellipse 11566" cx="8.5" cy="8.5" r="8.5" transform="translate(37.974 44.108)" fill="#e9eef2"/>
        <path id="Path_979021" data-name="Path 979021" d="M401.524,393.524h0a2.956,2.956,0,0,1-2.09.866h0a3.315,3.315,0,0,1-2.344-.971l-5.09-5.09L396.329,384l5.09,5.09a3.315,3.315,0,0,1,.971,2.344h0a2.956,2.956,0,0,1-.866,2.09Z" transform="translate(-335.308 -321.039)" fill="#3397e8"/>
        <path id="Path_979022" data-name="Path 979022" d="M67.947,68.155V26.6a.866.866,0,0,0-.866-.866h-2.6v-.866A.866.866,0,0,0,63.618,24H48.9a7.832,7.832,0,0,0-6.061,2.895A7.832,7.832,0,0,0,36.779,24H20.329a.866.866,0,0,0-.866.866v.866h-2.6A.866.866,0,0,0,16,26.6V68.155a.866.866,0,0,0,.866.866H57.2l3.97,3.97a4.153,4.153,0,0,0,2.956,1.224,3.822,3.822,0,0,0,3.822-3.822,4.175,4.175,0,0,0-.307-1.578A.864.864,0,0,0,67.947,68.155ZM66.216,27.463V66.931L64.484,65.2V27.463ZM57.558,65.2l-2.789-2.789a13.092,13.092,0,0,0,1.373-1.373l2.789,2.789Zm-36.363-3.1H37.483a13.064,13.064,0,0,0,2.346,1.732H21.195Zm13.853-9.524A11.255,11.255,0,1,1,46.3,63.826,11.255,11.255,0,0,1,35.047,52.571ZM30.1,42.831a5.171,5.171,0,0,1-.9-.365.866.866,0,0,0-1.011.156l-.932.932-1.373-1.373.932-.932a.866.866,0,0,0,.156-1.011,5.174,5.174,0,0,1-.365-.9.866.866,0,0,0-.83-.619H24.658V36.987h1.118a.866.866,0,0,0,.83-.619,5.174,5.174,0,0,1,.365-.9.866.866,0,0,0-.156-1.011l-.932-.932,1.373-1.373.932.932a.866.866,0,0,0,1.011.156,5.17,5.17,0,0,1,.9-.365.866.866,0,0,0,.619-.83V30.926H32.45v1.118a.866.866,0,0,0,.619.83,5.17,5.17,0,0,1,.9.365.866.866,0,0,0,1.011-.156l.932-.932,1.373,1.373-.932.932a.866.866,0,0,0-.156,1.011,5.174,5.174,0,0,1,.365.9.866.866,0,0,0,.83.619h1.118v1.732H37.392a.866.866,0,0,0-.83.619,5.174,5.174,0,0,1-.365.9.866.866,0,0,0,.156,1.011l.932.932-1.373,1.373-.932-.932a.866.866,0,0,0-1.011-.156,5.17,5.17,0,0,1-.9.365.866.866,0,0,0-.619.83v1.118H30.718V43.661a.866.866,0,0,0-.619-.83Zm23.271,20.63.365.365h-.96Q53.079,63.652,53.371,63.461Zm7.038-1.113-.254.254-.507-.507h3.1v1.373l-1.119-1.119a.866.866,0,0,0-1.224,0ZM48.9,25.732H62.753V60.363H57.917l-.724-.724a12.96,12.96,0,0,0-.507-14.86h1.738a.866.866,0,0,0,0-1.732h-3.3a13.064,13.064,0,0,0-2.346-1.732h5.648a.866.866,0,0,0,0-1.732H46.3a12.994,12.994,0,0,0-2.6.261V28.618l.346-.462A6.09,6.09,0,0,1,48.9,25.732Zm-12.121,0a6.09,6.09,0,0,1,4.848,2.424l.346.462v11.71a12.946,12.946,0,0,0-2.751,1.362.867.867,0,0,0-.1-.12L38,40.452h1.372a.866.866,0,0,0,.866-.866V36.121a.866.866,0,0,0-.866-.866H38.005l1.118-1.118a.866.866,0,0,0,0-1.224l-2.6-2.6a.866.866,0,0,0-1.224,0l-1.119,1.118h0V30.061a.866.866,0,0,0-.866-.866H29.853a.866.866,0,0,0-.866.866v1.371h0l-1.118-1.118a.866.866,0,0,0-1.224,0l-2.6,2.6a.866.866,0,0,0,0,1.224l1.118,1.118H23.792a.866.866,0,0,0-.866.866v3.463a.866.866,0,0,0,.866.866h1.371l-1.118,1.118a.866.866,0,0,0,0,1.224l2.6,2.6a.866.866,0,0,0,1.224,0l1.118-1.118h0v1.372a.866.866,0,0,0,.866.866h3.463a.866.866,0,0,0,.866-.866V44.273h0L35.3,45.392a.872.872,0,0,0,.12.1,12.946,12.946,0,0,0-1.362,2.751H32.45a.866.866,0,1,0,0,1.732h1.127a12.945,12.945,0,0,0-.232,1.732H30.718a.866.866,0,1,0,0,1.732h2.627a12.945,12.945,0,0,0,.232,1.732H30.718a.866.866,0,0,0,0,1.732h3.34a12.973,12.973,0,0,0,1.861,3.463H21.195V25.732ZM17.732,67.289V27.463h1.732V64.692a.866.866,0,0,0,.866.866H55.468l.866.866-.254.254a.863.863,0,0,0-.254.612ZM65.6,71.872a2.076,2.076,0,0,1-1.478.612,2.433,2.433,0,0,1-1.732-.717l-4.478-4.478,3.1-3.1L65.5,68.663a2.433,2.433,0,0,1,.717,1.732A2.076,2.076,0,0,1,65.6,71.872Z"/>
        <path id="Path_979023" data-name="Path 979023" d="M80.866,256.658h3.463a.866.866,0,0,0,.866-.866v-6.926a.866.866,0,0,0-.866-.866H80.866a.866.866,0,0,0-.866.866v6.926A.866.866,0,0,0,80.866,256.658Zm.866-6.926h1.732v5.195H81.732Z" transform="translate(-57.074 -199.758)"/>
        <path id="Path_979024" data-name="Path 979024" d="M304.866,73.732H306.6a.866.866,0,0,0,0-1.732h-1.732a.866.866,0,0,0,0,1.732Z" transform="translate(-256.832 -42.805)"/>
        <path id="Path_979025" data-name="Path 979025" d="M352.866,73.732h5.195a.866.866,0,0,0,0-1.732h-5.195a.866.866,0,0,0,0,1.732Z" transform="translate(-299.637 -42.805)"/>
        <path id="Path_979026" data-name="Path 979026" d="M288.866,105.732h3.463a.866.866,0,1,0,0-1.732h-3.463a.866.866,0,0,0,0,1.732Z" transform="translate(-242.563 -71.342)"/>
        <path id="Path_979027" data-name="Path 979027" d="M288.866,137.732h3.463a.866.866,0,1,0,0-1.732h-3.463a.866.866,0,1,0,0,1.732Z" transform="translate(-242.563 -99.879)"/>
        <path id="Path_979028" data-name="Path 979028" d="M352.866,109.195h5.195a.866.866,0,0,0,.866-.866v-3.463a.866.866,0,0,0-.866-.866h-5.195a.866.866,0,0,0-.866.866v3.463A.866.866,0,0,0,352.866,109.195Zm.866-3.463h3.463v1.732h-3.463Z" transform="translate(-299.637 -71.342)"/>
        <path id="Path_979029" data-name="Path 979029" d="M217.524,200a9.524,9.524,0,1,0,9.524,9.524A9.524,9.524,0,0,0,217.524,200Zm0,17.316a7.792,7.792,0,1,1,7.792-7.792,7.792,7.792,0,0,1-7.792,7.792Z" transform="translate(-171.221 -156.953)"/>
        <path id="Path_979030" data-name="Path 979030" d="M134.926,123.463a3.463,3.463,0,1,0-3.463,3.463,3.463,3.463,0,0,0,3.463-3.463Zm-5.195,0a1.732,1.732,0,1,1,1.732,1.732A1.732,1.732,0,0,1,129.732,123.463Z" transform="translate(-99.879 -85.611)"/>
      </g>
    </g>
  </g>
</svg>
