<svg xmlns="http://www.w3.org/2000/svg" xmlns:xlink="http://www.w3.org/1999/xlink" width="108" height="108" viewBox="0 0 108 108">
  <defs>
    <filter id="Fondo" x="0" y="0" width="108" height="108" filterUnits="userSpaceOnUse">
      <feOffset dy="3" input="SourceAlpha"/>
      <feGaussianBlur stdDeviation="3" result="blur"/>
      <feFlood flood-opacity="0.161"/>
      <feComposite operator="in" in2="blur"/>
      <feComposite in="SourceGraphic"/>
    </filter>
  </defs>
  <g id="Group_1144351" data-name="Group 1144351" transform="translate(-273 -5299)">
    <g id="Group_1144237" data-name="Group 1144237">
      <g transform="matrix(1, 0, 0, 1, 273, 5299)" filter="url(#Fondo)">
        <g id="Fondo-2" data-name="Fondo" transform="translate(9 6)" fill="#fff2ee" stroke="#ff8a60" stroke-width="3">
          <circle cx="45" cy="45" r="45" stroke="none"/>
          <circle cx="45" cy="45" r="43.5" fill="none"/>
        </g>
      </g>
      <g id="Group_1144236" data-name="Group 1144236" transform="translate(303.783 5323.694)">
        <g id="Group_1144227" data-name="Group 1144227" transform="translate(0.915 1.969)">
          <path id="Path_979281" data-name="Path 979281" d="M4.5,8.575V50.062A3.45,3.45,0,0,0,7.938,53.5h31.4a3.45,3.45,0,0,0,3.438-3.441V8.575a3.45,3.45,0,0,0-3.438-3.441H7.938A3.45,3.45,0,0,0,4.5,8.575Z" transform="translate(-4.5 -5.134)" fill="#eaf6ff" fill-rule="evenodd"/>
        </g>
        <g id="Group_1144228" data-name="Group 1144228" transform="translate(4.88 36.285)">
          <path id="Path_979282" data-name="Path 979282" d="M42.705,335.816H51.43v8.722H42.705Z" transform="translate(-42.705 -335.816)" fill="#ffd301" fill-rule="evenodd"/>
        </g>
        <g id="Group_1144229" data-name="Group 1144229" transform="translate(4.88 22.794)">
          <path id="Path_979283" data-name="Path 979283" d="M42.705,205.815H51.43v8.722H42.705Z" transform="translate(-42.705 -205.815)" fill="#ffd301" fill-rule="evenodd"/>
        </g>
        <g id="Group_1144230" data-name="Group 1144230" transform="translate(4.88 9.304)">
          <path id="Path_979284" data-name="Path 979284" d="M42.705,75.814H51.43v8.725H42.705Z" transform="translate(-42.705 -75.814)" fill="#ffd301" fill-rule="evenodd"/>
        </g>
        <g id="Group_1144231" data-name="Group 1144231" transform="translate(22.285 32.549)">
          <path id="Path_979285" data-name="Path 979285" d="M221.177,321.3a10.743,10.743,0,1,0-10.743-10.743A10.763,10.763,0,0,0,221.177,321.3Z" transform="translate(-210.434 -299.816)" fill="#fd646f" fill-rule="evenodd"/>
        </g>
        <g id="Group_1144232" data-name="Group 1144232" transform="translate(26.042 36.098)">
          <path id="Path_979286" data-name="Path 979286" d="M253.621,347.99A6.986,6.986,0,1,0,246.635,341,7,7,0,0,0,253.621,347.99Z" transform="translate(-246.635 -334.017)" fill="#f5f5f5" fill-rule="evenodd"/>
        </g>
        <g id="Group_1144233" data-name="Group 1144233" transform="translate(29.837 39.894)">
          <path id="Path_979287" data-name="Path 979287" d="M286.4,376.974a3.191,3.191,0,1,0-3.191-3.191A3.2,3.2,0,0,0,286.4,376.974Z" transform="translate(-283.209 -370.592)" fill="#fd646f" fill-rule="evenodd"/>
        </g>
        <g id="Group_1144234" data-name="Group 1144234" transform="translate(24.835 40.178)">
          <path id="Path_979288" data-name="Path 979288" d="M253.419,375.67A10.98,10.98,0,0,1,235,383.749a10.746,10.746,0,0,0,18.167-10.413A10.953,10.953,0,0,1,253.419,375.67Z" transform="translate(-235.002 -373.336)" fill="#eb4954" fill-rule="evenodd"/>
        </g>
        <g id="Group_1144235" data-name="Group 1144235" transform="translate(45.136 31.236)">
          <path id="Path_979289" data-name="Path 979289" d="M430.633,292.051v-3.018l3.233-1.866v3.018l2.617,1.512-3.233,1.866Z" transform="translate(-430.633 -287.166)" fill="#fac149" fill-rule="evenodd"/>
        </g>
        <path id="Path_979290" data-name="Path 979290" d="M4.311,36.171a.725.725,0,0,1,.725-.725h6.009a.725.725,0,0,1,0,1.45H5.761v7.151h7.151V39.559a.725.725,0,1,1,1.45,0v5.214a.725.725,0,0,1-.725.725h-8.6a.725.725,0,0,1-.725-.725Zm11.424-2.545a.725.725,0,0,0-1.019.113l-5.523,6.9L7.711,38.27a.725.725,0,0,0-1.23.769L8.5,42.274a.726.726,0,0,0,.573.34h.042a.725.725,0,0,0,.566-.272l6.162-7.7A.725.725,0,0,0,15.734,33.626ZM4.311,31.468a.725.725,0,0,0,.725.725h8.6a.725.725,0,0,0,.725-.725V26.254a.725.725,0,1,0-1.45,0v4.489H5.761V23.591h5.284a.725.725,0,0,0,0-1.45H5.036a.725.725,0,0,0-.725.725ZM15.734,20.325a.725.725,0,0,0-1.019.113l-5.523,6.9L7.711,24.966a.725.725,0,1,0-1.23.769L8.5,28.969a.725.725,0,0,0,.573.339h.042a.725.725,0,0,0,.566-.272l6.162-7.694A.725.725,0,0,0,15.734,20.325Zm6.675,28.98H4.619A2.672,2.672,0,0,1,1.95,46.637V5.722A2.672,2.672,0,0,1,4.619,3.053H35.587a2.672,2.672,0,0,1,2.668,2.668V31.914a.725.725,0,1,0,1.45,0V5.722A4.123,4.123,0,0,0,35.587,1.6H4.619A4.123,4.123,0,0,0,.5,5.722V46.637a4.123,4.123,0,0,0,4.119,4.119h17.79a.725.725,0,0,0,0-1.45ZM11.045,10.287a.725.725,0,0,0,0-1.45H5.036a.725.725,0,0,0-.725.725v8.6a.725.725,0,0,0,.725.725h8.6a.725.725,0,0,0,.725-.725V12.95a.725.725,0,1,0-1.45,0v4.492H5.761V10.287ZM15.734,7.02a.725.725,0,0,0-1.019.113l-5.523,6.9L7.711,11.664a.725.725,0,1,0-1.229.769L8.5,15.665A.725.725,0,0,0,9.077,16h.042a.725.725,0,0,0,.566-.272l6.162-7.694a.725.725,0,0,0-.113-1.019Zm17.71,1.817H18.781a.725.725,0,0,0,0,1.45H33.444a.725.725,0,0,0,0-1.45Zm0,3.881H18.781a.725.725,0,0,0,0,1.45H33.444a.725.725,0,0,0,0-1.45Zm0,9.424H18.781a.725.725,0,0,0,0,1.45H33.444a.725.725,0,0,0,0-1.45Zm.725,4.606a.725.725,0,0,0-.725-.725H18.781a.725.725,0,0,0,0,1.45H33.444A.725.725,0,0,0,34.169,26.747ZM23.111,36.171a.725.725,0,0,0-.725-.725H18.781a.725.725,0,0,0,0,1.45h3.605A.725.725,0,0,0,23.111,36.171Zm-4.33,3.156a.725.725,0,0,0,0,1.45H20.7a.725.725,0,0,0,0-1.45Zm34.384-7.049-3.278,1.891,1.493.863a.725.725,0,0,1,0,1.256l-3.188,1.841a.724.724,0,0,1-.725,0l-2.218-1.282-2.1,1.215a11.352,11.352,0,1,1-.727-1.255l2.106-1.216V33.033a.725.725,0,0,1,.362-.628l3.188-1.841a.725.725,0,0,1,1.088.628v1.721l3.278-1.891a.725.725,0,0,1,.725,1.256Zm-11.278,6.51L39.926,39.92a7.64,7.64,0,1,1-.727-1.255l1.961-1.132a9.818,9.818,0,1,0,.727,1.255Zm-9.636,3.889L34.638,41.3a2.422,2.422,0,1,0,.726,1.255l-2.388,1.379a.725.725,0,1,1-.725-1.256Zm3.679-2.124,2.008-1.159a6.15,6.15,0,1,0,.727,1.255l-2.008,1.159a3.884,3.884,0,1,1-.727-1.255ZM49.568,35.66,48.081,34.8l0,0,0,0-.018-.012c-.021-.013-.041-.026-.06-.04l-.023-.02c-.017-.014-.033-.027-.048-.043s-.019-.021-.028-.032-.024-.025-.034-.039a.738.738,0,0,1-.053-.079h0a.735.735,0,0,1-.038-.078l-.008-.021c-.008-.021-.016-.042-.022-.064l-.006-.021a.722.722,0,0,1-.016-.08v0a.713.713,0,0,1-.006-.089s0,0,0-.006V32.448l-1.738,1v2.14l1.856,1.072Z"/>
      </g>
    </g>
  </g>
</svg>
