<svg xmlns="http://www.w3.org/2000/svg" xmlns:xlink="http://www.w3.org/1999/xlink" width="108" height="108" viewBox="0 0 108 108">
  <defs>
    <filter id="Path_904820" x="0" y="0" width="108" height="108" filterUnits="userSpaceOnUse">
      <feOffset dy="3" input="SourceAlpha"/>
      <feGaussianBlur stdDeviation="3" result="blur"/>
      <feFlood flood-opacity="0.161"/>
      <feComposite operator="in" in2="blur"/>
      <feComposite in="SourceGraphic"/>
    </filter>
  </defs>
  <g id="Group_1144342" data-name="Group 1144342" transform="translate(-306 -2789)">
    <g id="Group_1144146" data-name="Group 1144146">
      <g transform="matrix(1, 0, 0, 1, 306, 2789)" filter="url(#Path_904820)">
        <g id="Path_904820-2" data-name="Path 904820" transform="translate(9 6)" fill="#ecf4fa">
          <path d="M 45 88.5 C 39.12687683105469 88.5 33.43022537231445 87.35007476806641 28.06830024719238 85.08217620849609 C 22.88852500915527 82.89131164550781 18.23629951477051 79.75458526611328 14.2408504486084 75.75914764404297 C 10.24541282653809 71.76370239257812 7.108687400817871 67.11147308349609 4.917825222015381 61.93170166015625 C 2.649924993515015 56.56977462768555 1.5 50.87312316894531 1.5 45 C 1.5 39.12687683105469 2.649924993515015 33.43022537231445 4.917825222015381 28.06830024719238 C 7.108687400817871 22.88852500915527 10.24541282653809 18.23629951477051 14.2408504486084 14.2408504486084 C 18.23629951477051 10.24541282653809 22.88852500915527 7.108687400817871 28.06830024719238 4.917825222015381 C 33.43022537231445 2.649924993515015 39.12687683105469 1.5 45 1.5 C 50.87312316894531 1.5 56.56977462768555 2.649924993515015 61.93170166015625 4.917825222015381 C 67.11147308349609 7.108687400817871 71.76370239257812 10.24541282653809 75.75914764404297 14.2408504486084 C 79.75458526611328 18.23629951477051 82.89131164550781 22.88852500915527 85.08217620849609 28.06830024719238 C 87.35007476806641 33.43022537231445 88.5 39.12687683105469 88.5 45 C 88.5 50.87312316894531 87.35007476806641 56.56977462768555 85.08217620849609 61.93170166015625 C 82.89131164550781 67.11147308349609 79.75458526611328 71.76370239257812 75.75914764404297 75.75914764404297 C 71.76370239257812 79.75458526611328 67.11147308349609 82.89131164550781 61.93170166015625 85.08217620849609 C 56.56977462768555 87.35007476806641 50.87312316894531 88.5 45 88.5 Z" stroke="none"/>
          <path d="M 45 3 C 39.32871246337891 3 33.82865524291992 4.110054016113281 28.65262985229492 6.299339294433594 C 23.65165710449219 8.414573669433594 19.15968322753906 11.44334411621094 15.301513671875 15.301513671875 C 11.44334411621094 19.15968322753906 8.414573669433594 23.65165710449219 6.299339294433594 28.65262985229492 C 4.110054016113281 33.82865524291992 3 39.32871246337891 3 45 C 3 50.67128753662109 4.110054016113281 56.17134475708008 6.299339294433594 61.34737396240234 C 8.414573669433594 66.34834289550781 11.44334411621094 70.84031677246094 15.301513671875 74.698486328125 C 19.15968322753906 78.55665588378906 23.65165710449219 81.58542633056641 28.65262985229492 83.70066070556641 C 33.82865524291992 85.88994598388672 39.32871246337891 87 45 87 C 50.67128753662109 87 56.17134475708008 85.88994598388672 61.34737396240234 83.70066070556641 C 66.34834289550781 81.58542633056641 70.84031677246094 78.55665588378906 74.698486328125 74.698486328125 C 78.55665588378906 70.84031677246094 81.58542633056641 66.34834289550781 83.70066070556641 61.34737396240234 C 85.88994598388672 56.17134475708008 87 50.67128753662109 87 45 C 87 39.32871246337891 85.88994598388672 33.82865524291992 83.70066070556641 28.65262985229492 C 81.58542633056641 23.65165710449219 78.55665588378906 19.15968322753906 74.698486328125 15.301513671875 C 70.84031677246094 11.44334411621094 66.34834289550781 8.414573669433594 61.34737396240234 6.299339294433594 C 56.17134475708008 4.110054016113281 50.67128753662109 3 45 3 M 45 0 C 69.85281372070312 0 90 20.14718627929688 90 45 C 90 69.85281372070312 69.85281372070312 90 45 90 C 20.14718627929688 90 0 69.85281372070312 0 45 C 0 20.14718627929688 20.14718627929688 0 45 0 Z" stroke="none" fill="#2a5673"/>
        </g>
      </g>
      <g id="Group_1144145" data-name="Group 1144145" transform="translate(327.5 2807.5)">
        <g id="XMLID_8_">
          <circle id="Ellipse_11570" data-name="Ellipse 11570" cx="32" cy="32" r="32" transform="translate(0.5 0.5)" fill="#4fbf9f"/>
        </g>
        <g id="XMLID_6862_">
          <path id="Path_979057" data-name="Path 979057" d="M63.5,31.9V19.1a5.164,5.164,0,0,0-5.2-5.2A5.25,5.25,0,0,0,53,19.1V31.9Z" fill="#e0e4e8"/>
          <path id="Path_979058" data-name="Path 979058" d="M63.5,32.9H53a.945.945,0,0,1-1-1V19.1a6.2,6.2,0,0,1,12.4,0V31.9A.919.919,0,0,1,63.5,32.9Zm-9.5-2h8.5V19.1a4.25,4.25,0,0,0-8.5,0Z" fill="#183651"/>
        </g>
        <g id="XMLID_6863_">
          <path id="Path_979059" data-name="Path 979059" d="M56,28.9V19.1a2.2,2.2,0,0,1,4.4,0v9.8Z" fill="#fff"/>
        </g>
        <g id="XMLID_6864_">
          <path id="Path_979060" data-name="Path 979060" d="M17.1,13.8A5.164,5.164,0,0,0,11.9,19V59l4.4,4.4L21.7,58l5.4,5.4L32.5,58l5.4,5.4L43.3,58l5.4,5.4L53.1,59V19a5.164,5.164,0,0,1,5.2-5.2Z" fill="#f06151"/>
          <path id="Path_979061" data-name="Path 979061" d="M37.8,64.5a.908.908,0,0,1-.7-.3l-4.7-4.7-4.7,4.7a.967.967,0,0,1-1.4,0l-4.7-4.7L17,64.2a.967.967,0,0,1-1.4,0l-4.4-4.4a.908.908,0,0,1-.3-.7v-40a6.231,6.231,0,0,1,6.2-6.2H58.2a1,1,0,0,1,0,2A4.225,4.225,0,0,0,54,19.1v40a.908.908,0,0,1-.3.7l-4.4,4.4a.967.967,0,0,1-1.4,0l-4.7-4.7-4.7,4.7a.908.908,0,0,1-.7.3ZM12.9,58.7l3.4,3.4L21,57.4a.967.967,0,0,1,1.4,0l4.7,4.7,4.7-4.7a.967.967,0,0,1,1.4,0l4.7,4.7,4.7-4.7a.967.967,0,0,1,1.4,0l4.7,4.7,3.4-3.4V19.1a5.9,5.9,0,0,1,1.7-4.2H17.1a4.225,4.225,0,0,0-4.2,4.2Z" fill="#183651"/>
        </g>
        <g id="XMLID_6865_">
          <path id="Path_979062" data-name="Path 979062" d="M43.2,52.5l-5.4,5.4-5.4-5.4L27,57.9l-5.4-5.4-5.4,5.4-.4-.4V19.1A1.216,1.216,0,0,1,17,17.9H48.9a4.869,4.869,0,0,1,.1,1.2V57.4l-.4.4Z" fill="#fff"/>
        </g>
        <g id="XMLID_6866_">
          <path id="Path_979063" data-name="Path 979063" d="M16.5,25.4H11.8L10.6,42a3.573,3.573,0,0,0,3.6,3.8A3.63,3.63,0,0,0,17.8,42Z" fill="#fbbd5e"/>
          <path id="Path_979064" data-name="Path 979064" d="M14.1,46.8a4.523,4.523,0,0,1-4.5-4.9l1.2-16.6a.987.987,0,0,1,1-.9h4.7a.987.987,0,0,1,1,.9L18.7,42A4.514,4.514,0,0,1,14.1,46.8ZM12.7,26.4,11.6,42.1A2.505,2.505,0,0,0,14,44.8a2.571,2.571,0,0,0,2.7-2.7L15.6,26.4Z" fill="#183651"/>
        </g>
        <g id="XMLID_6867_">
          <circle id="Ellipse_11571" data-name="Ellipse 11571" cx="12.6" cy="12.6" r="12.6" transform="translate(1.5 1.5)" fill="#2ea0da"/>
          <path id="Path_979065" data-name="Path 979065" d="M14.1,27.8A13.65,13.65,0,1,1,27.7,14.1,13.614,13.614,0,0,1,14.1,27.8Zm0-25.3A11.6,11.6,0,1,0,25.7,14.1,11.608,11.608,0,0,0,14.1,2.5Z" fill="#183651"/>
        </g>
        <g id="XMLID_6868_">
          <path id="Path_979066" data-name="Path 979066" d="M14.1,22.8a8.6,8.6,0,1,1,8.6-8.6A8.6,8.6,0,0,1,14.1,22.8Z" fill="#fff"/>
        </g>
        <g id="XMLID_6869_">
          <g id="XMLID_6870_">
            <path id="Path_979067" data-name="Path 979067" d="M18.8,15.1a.945.945,0,0,1-1-1,3.585,3.585,0,0,0-3.6-3.6.945.945,0,0,1-1-1,.945.945,0,0,1,1-1,5.591,5.591,0,0,1,5.6,5.6A1,1,0,0,1,18.8,15.1Z" fill="#183651"/>
          </g>
        </g>
        <g id="XMLID_6871_">
          <path id="Path_979068" data-name="Path 979068" d="M25.2,26.4H45.6v2H25.2Z" fill="#183651"/>
        </g>
        <g id="XMLID_6872_">
          <path id="Path_979069" data-name="Path 979069" d="M25.2,31.4H45.6v2H25.2Z" fill="#183651"/>
        </g>
        <g id="XMLID_6873_">
          <path id="Path_979070" data-name="Path 979070" d="M25.2,36.4H45.6v2H25.2Z" fill="#183651"/>
        </g>
        <g id="XMLID_6874_">
          <path id="Path_979071" data-name="Path 979071" d="M25.2,41.4H45.6v2H25.2Z" fill="#183651"/>
        </g>
        <g id="XMLID_6875_">
          <path id="Path_979072" data-name="Path 979072" d="M25.2,46.4h2v2h-2Z" fill="#183651"/>
        </g>
        <g id="XMLID_6876_">
          <path id="Path_979073" data-name="Path 979073" d="M30.2,46.4h2v2h-2Z" fill="#183651"/>
        </g>
        <g id="XMLID_6877_">
          <path id="Path_979074" data-name="Path 979074" d="M35.2,46.4h2v2h-2Z" fill="#183651"/>
        </g>
        <g id="XMLID_6878_">
          <path id="Path_979075" data-name="Path 979075" d="M40.2,46.4h2v2h-2Z" fill="#183651"/>
        </g>
      </g>
    </g>
  </g>
</svg>
