<svg xmlns="http://www.w3.org/2000/svg" xmlns:xlink="http://www.w3.org/1999/xlink" width="108" height="108" viewBox="0 0 108 108">
  <defs>
    <filter id="Fondo" x="0" y="0" width="108" height="108" filterUnits="userSpaceOnUse">
      <feOffset dy="3" input="SourceAlpha"/>
      <feGaussianBlur stdDeviation="3" result="blur"/>
      <feFlood flood-opacity="0.161"/>
      <feComposite operator="in" in2="blur"/>
      <feComposite in="SourceGraphic"/>
    </filter>
  </defs>
  <g id="Group_1144378" data-name="Group 1144378" transform="translate(-325.999 -6137)">
    <g id="Group_1144292" data-name="Group 1144292">
      <g transform="matrix(1, 0, 0, 1, 326, 6137)" filter="url(#Fondo)">
        <g id="Fondo-2" data-name="Fondo" transform="translate(9 6)" fill="#fff2ee" stroke="#ff8a60" stroke-width="3">
          <circle cx="45" cy="45" r="45" stroke="none"/>
          <circle cx="45" cy="45" r="43.5" fill="none"/>
        </g>
      </g>
      <g id="Group_1144291" data-name="Group 1144291" transform="translate(349.98 6159.55)">
        <g id="Group_1144288" data-name="Group 1144288" transform="translate(3.896 3.896)">
          <rect id="Rectangle_405224" data-name="Rectangle 405224" width="41.353" height="37.907" rx="4" transform="translate(0 11.2)" fill="#cfd8dc"/>
          <path id="Path_979399" data-name="Path 979399" d="M7.446,17H41.907a3.448,3.448,0,0,1,3.446,3.446v5.169H4V20.446A3.448,3.448,0,0,1,7.446,17Z" transform="translate(-4 -5.8)" fill="#455a64"/>
          <g id="Group_1144287" data-name="Group 1144287" transform="translate(17.23)">
            <rect id="Rectangle_405225" data-name="Rectangle 405225" width="31.015" height="43.076" rx="4" fill="#eceff1"/>
            <path id="Path_979400" data-name="Path 979400" d="M48,12.862v24.7a.862.862,0,0,0,.172.517l1.723,2.3a.862.862,0,0,0,1.378,0L53,38.075a.862.862,0,0,0,.172-.517v-24.7A.862.862,0,0,0,52.308,12H48.862a.862.862,0,0,0-.862.862Z" transform="translate(-27.324 -5.108)" fill="#ffca28"/>
            <path id="Path_979401" data-name="Path 979401" d="M53.169,40v1.439a.886.886,0,0,1-.172.517l-1.723,2.292a.855.855,0,0,1-1.378,0l-1.723-2.292A.886.886,0,0,1,48,41.439V40Z" transform="translate(-27.324 -8.985)" fill="#455a64"/>
            <path id="Path_979402" data-name="Path 979402" d="M48.862,12h3.446a.862.862,0,0,1,.862.862v4.308H48V12.862A.862.862,0,0,1,48.862,12Z" transform="translate(-27.324 -5.108)" fill="#e53935"/>
          </g>
        </g>
        <g id="Group_1144290" data-name="Group 1144290" transform="translate(3.25 3.25)">
          <path id="Path_979403" data-name="Path 979403" d="M48.7,3.25H24.573A4.1,4.1,0,0,0,20.48,7.342V14.45H7.342A4.1,4.1,0,0,0,3.25,18.542V35.147a.646.646,0,1,0,1.292,0V24.357H20.48V43.526a4.1,4.1,0,0,0,4.092,4.092H44.6v1.938a2.8,2.8,0,0,1-2.8,2.8H7.342a2.8,2.8,0,0,1-2.8-2.8V38.4a.646.646,0,0,0-1.292,0V49.557a4.1,4.1,0,0,0,4.092,4.092H41.8A4.1,4.1,0,0,0,45.9,49.557V47.618h2.8a4.1,4.1,0,0,0,4.092-4.092V23.384a.646.646,0,1,0-1.292,0V43.526a2.8,2.8,0,0,1-2.8,2.8H24.573a2.8,2.8,0,0,1-2.8-2.8V7.342a2.8,2.8,0,0,1,2.8-2.8H48.7a2.8,2.8,0,0,1,2.8,2.8V18a.646.646,0,1,0,1.292,0V7.342A4.1,4.1,0,0,0,48.7,3.25ZM4.542,23.065V18.542a2.8,2.8,0,0,1,2.8-2.8H20.48v7.323Z" transform="translate(-3.25 -3.25)" fill="#051442"/>
          <path id="Path_979404" data-name="Path 979404" d="M59.9,22.34a.646.646,0,0,0-.646.646V23.8a.646.646,0,1,0,1.292,0v-.817A.646.646,0,0,0,59.9,22.34Z" transform="translate(-11.005 -5.894)" fill="#051442"/>
          <g id="Group_1144289" data-name="Group 1144289" transform="translate(5.384 14.861)">
            <circle id="Ellipse_11590" data-name="Ellipse 11590" cx="1.292" cy="1.292" r="1.292" fill="#051442"/>
            <circle id="Ellipse_11591" data-name="Ellipse 11591" cx="1.292" cy="1.292" r="1.292" transform="translate(5.169)" fill="#051442"/>
          </g>
          <path id="Path_979405" data-name="Path 979405" d="M48.758,11.25a1.51,1.51,0,0,0-1.508,1.508v24.7a1.518,1.518,0,0,0,.3.9l1.723,2.3a1.507,1.507,0,0,0,2.412,0l1.723-2.3a1.517,1.517,0,0,0,.3-.905v-24.7A1.51,1.51,0,0,0,52.2,11.25Zm3.661,24.123H48.542V17.711h3.877Zm-.043,2.211-1.723,2.3c-.113.15-.231.15-.344,0l-1.723-2.3a.214.214,0,0,1-.043-.129v-.79h3.877v.79A.214.214,0,0,1,52.376,37.584Zm.043-24.826v3.661H48.542V12.758a.216.216,0,0,1,.215-.215H52.2A.216.216,0,0,1,52.419,12.758Z" transform="translate(-9.343 -4.358)" fill="#051442"/>
          <path id="Path_979406" data-name="Path 979406" d="M40.234,13.25H29.9a.646.646,0,0,0,0,1.292H40.234a.646.646,0,0,0,0-1.292Z" transform="translate(-6.851 -4.635)" fill="#051442"/>
          <path id="Path_979407" data-name="Path 979407" d="M40.234,19.25H29.9a.646.646,0,0,0,0,1.292H40.234a.646.646,0,0,0,0-1.292Z" transform="translate(-6.851 -5.466)" fill="#051442"/>
          <path id="Path_979408" data-name="Path 979408" d="M40.234,25.25H29.9a.646.646,0,0,0,0,1.292H40.234a.646.646,0,0,0,0-1.292Z" transform="translate(-6.851 -6.297)" fill="#051442"/>
          <path id="Path_979409" data-name="Path 979409" d="M40.234,31.25H29.9a.646.646,0,0,0,0,1.292H40.234a.646.646,0,0,0,0-1.292Z" transform="translate(-6.851 -7.127)" fill="#051442"/>
          <path id="Path_979410" data-name="Path 979410" d="M40.234,37.25H29.9a.646.646,0,0,0,0,1.292H40.234a.646.646,0,0,0,0-1.292Z" transform="translate(-6.851 -7.958)" fill="#051442"/>
          <path id="Path_979411" data-name="Path 979411" d="M40.234,43.25H29.9a.646.646,0,0,0,0,1.292H40.234a.646.646,0,0,0,0-1.292Z" transform="translate(-6.851 -8.789)" fill="#051442"/>
        </g>
      </g>
    </g>
  </g>
</svg>
