<svg xmlns="http://www.w3.org/2000/svg" xmlns:xlink="http://www.w3.org/1999/xlink" width="108" height="108" viewBox="0 0 108 108">
  <defs>
    <filter id="Fondo" x="0" y="0" width="108" height="108" filterUnits="userSpaceOnUse">
      <feOffset dy="3" input="SourceAlpha"/>
      <feGaussianBlur stdDeviation="3" result="blur"/>
      <feFlood flood-opacity="0.161"/>
      <feComposite operator="in" in2="blur"/>
      <feComposite in="SourceGraphic"/>
    </filter>
  </defs>
  <g id="Group_1144338" data-name="Group 1144338" transform="translate(-325.999 -1892)">
    <g id="Group_1144144" data-name="Group 1144144">
      <g transform="matrix(1, 0, 0, 1, 326, 1892)" filter="url(#Fondo)">
        <g id="Fondo-2" data-name="Fondo" transform="translate(9 6)" fill="#fff2ee" stroke="#ff8a60" stroke-width="3">
          <circle cx="45" cy="45" r="45" stroke="none"/>
          <circle cx="45" cy="45" r="43.5" fill="none"/>
        </g>
      </g>
      <g id="Layer_4" transform="translate(353.982 1911.636)">
        <g id="Group_1144143" data-name="Group 1144143" transform="translate(0 0)">
          <g id="Group_1144140" data-name="Group 1144140" transform="translate(0 9.71)">
            <g id="Group_1144138" data-name="Group 1144138">
              <path id="Path_979051" data-name="Path 979051" d="M19.076,65.719H16.792V60.35H10.224a6,6,0,0,1-6-6V48.3H1.142a1.106,1.106,0,0,1-.971-.571,1.038,1.038,0,0,1,0-1.142l5.711-9.824v-.514A19.257,19.257,0,0,1,25.131,17v2.285A16.965,16.965,0,0,0,8.167,36.248v.8A1.151,1.151,0,0,1,8,37.676L3.141,46.014H5.369a1.146,1.146,0,0,1,1.142,1.142V54.3a3.705,3.705,0,0,0,3.712,3.712h7.711a1.146,1.146,0,0,1,1.142,1.142Z" transform="translate(0 -17)" fill="#282d33"/>
            </g>
            <g id="Group_1144139" data-name="Group 1144139" transform="translate(36.725 11.651)">
              <path id="Path_979052" data-name="Path 979052" d="M66.585,74.468H64.3V57.733a1.128,1.128,0,0,1,.343-.8,16.9,16.9,0,0,0,4.969-11.994A17.569,17.569,0,0,0,68.3,38.314l2.113-.914A18.813,18.813,0,0,1,71.9,44.882a19.1,19.1,0,0,1-5.312,13.251Z" transform="translate(-64.3 -37.4)" fill="#282d33"/>
            </g>
          </g>
          <g id="Group_1144141" data-name="Group 1144141" transform="translate(9.652 13.936)">
            <path id="Path_979053" data-name="Path 979053" d="M34.663,54.385h-6l-.286-3.827A8.245,8.245,0,0,1,26.1,49.531l-2.856,2.4L19.013,47.7l2.513-2.913a11.71,11.71,0,0,1-.914-2.342L16.9,42.163v-6l3.827-.343a8.245,8.245,0,0,1,1.028-2.285l-2.4-2.8,4.227-4.227L26.5,29.026a11.71,11.71,0,0,1,2.342-.914l.286-3.712h6l.343,3.827a8.245,8.245,0,0,1,2.285,1.028l2.8-2.4,4.227,4.227-2.4,2.8a11.71,11.71,0,0,1,.914,2.342L47,36.508v6l-3.827.343a8.245,8.245,0,0,1-1.028,2.285l2.4,2.8-4.227,4.227L37.4,49.645a11.71,11.71,0,0,1-2.342.914ZM30.779,52.1h1.828l.286-3.313.857-.171a9.956,9.956,0,0,0,3.141-1.2l.685-.457,2.57,2.17L41.4,47.874l-2.113-2.513.514-.743a10.628,10.628,0,0,0,1.371-3.084l.171-.8,3.37-.286V38.622L41.4,38.336l-.171-.857a9.956,9.956,0,0,0-1.2-3.141l-.457-.685,2.17-2.57-1.257-1.257-2.513,2.113-.742-.514a10.628,10.628,0,0,0-3.084-1.371l-.8-.171-.286-3.37H31.236l-.286,3.313L30.094,30a9.956,9.956,0,0,0-3.141,1.2l-.685.457-2.57-2.17L22.44,30.74l2.113,2.513L24.039,34a10.628,10.628,0,0,0-1.371,3.084l-.171.8-3.37.286v1.828l3.313.286.171.857a9.956,9.956,0,0,0,1.2,3.141l.457.685-2.17,2.57,1.257,1.257,2.513-2.113.742.514a10.628,10.628,0,0,0,3.084,1.371l.8.171Z" transform="translate(-16.9 -24.4)" fill="#282d33"/>
          </g>
          <path id="Path_979054" data-name="Path 979054" d="M44.936,45.268A6.968,6.968,0,1,1,37.968,38.3,7,7,0,0,1,44.936,45.268Z" transform="translate(-13.294 -16.425)" fill="#f8c44f"/>
          <g id="Group_1144142" data-name="Group 1144142" transform="translate(19.191 23.36)">
            <circle id="Ellipse_11569" data-name="Ellipse 11569" cx="4.341" cy="4.341" r="4.341" transform="translate(1.142 1.142)" fill="#fff"/>
            <path id="Path_979055" data-name="Path 979055" d="M39.083,51.866a5.483,5.483,0,1,1,5.483-5.483,5.484,5.484,0,0,1-5.483,5.483Zm0-8.681a3.2,3.2,0,1,0,3.2,3.2A3.193,3.193,0,0,0,39.083,43.185Z" transform="translate(-33.6 -40.9)" fill="#282d33"/>
          </g>
          <path id="Path_979056" data-name="Path 979056" d="M66.592,10.052V6.968L64.079,6.74A6.807,6.807,0,0,0,63.622,5.6l1.713-2-2.17-2.17L61.223,3.084a6.937,6.937,0,0,0-1.142-.514L59.852,0H56.768L56.54,2.513A6.807,6.807,0,0,0,55.4,2.97l-2-1.713-2.113,2.17,1.656,1.942a6.937,6.937,0,0,0-.514,1.142L49.8,6.74V9.824l2.513.228a6.807,6.807,0,0,0,.457,1.142l-1.713,2,2.17,2.17,1.942-1.656a6.938,6.938,0,0,0,1.142.514l.228,2.627h3.084l.228-2.513a6.807,6.807,0,0,0,1.142-.457l2,1.713,2.17-2.17-1.713-2a6.938,6.938,0,0,0,.514-1.142Zm-8.4,1.257A2.913,2.913,0,1,1,61.109,8.4,2.925,2.925,0,0,1,58.2,11.309Z" transform="translate(-21.357 0)" fill="#5eb4e7"/>
        </g>
      </g>
    </g>
  </g>
</svg>
