<svg xmlns="http://www.w3.org/2000/svg" xmlns:xlink="http://www.w3.org/1999/xlink" width="108" height="108" viewBox="0 0 108 108">
  <defs>
    <filter id="Path_979459" x="0" y="0" width="108" height="108" filterUnits="userSpaceOnUse">
      <feOffset dy="3" input="SourceAlpha"/>
      <feGaussianBlur stdDeviation="3" result="blur"/>
      <feFlood flood-opacity="0.161"/>
      <feComposite operator="in" in2="blur"/>
      <feComposite in="SourceGraphic"/>
    </filter>
  </defs>
  <g id="Group_1144382" data-name="Group 1144382" transform="translate(-304 -6935)">
    <g id="Group_1144318" data-name="Group 1144318">
      <g transform="matrix(1, 0, 0, 1, 304, 6935)" filter="url(#Path_979459)">
        <g id="Path_979459-2" data-name="Path 979459" transform="translate(9 6)" fill="#ecf4fa">
          <path d="M 45 88.5 C 39.12687683105469 88.5 33.43022537231445 87.35007476806641 28.06830024719238 85.08217620849609 C 22.88852500915527 82.89131164550781 18.23629951477051 79.75458526611328 14.2408504486084 75.75914764404297 C 10.24541282653809 71.76370239257812 7.108687400817871 67.11147308349609 4.917825222015381 61.93170166015625 C 2.649924993515015 56.56977462768555 1.5 50.87312316894531 1.5 45 C 1.5 39.12687683105469 2.649924993515015 33.43022537231445 4.917825222015381 28.06830024719238 C 7.108687400817871 22.88852500915527 10.24541282653809 18.23629951477051 14.2408504486084 14.2408504486084 C 18.23629951477051 10.24541282653809 22.88852500915527 7.108687400817871 28.06830024719238 4.917825222015381 C 33.43022537231445 2.649924993515015 39.12687683105469 1.5 45 1.5 C 50.87312316894531 1.5 56.56977462768555 2.649924993515015 61.93170166015625 4.917825222015381 C 67.11147308349609 7.108687400817871 71.76370239257812 10.24541282653809 75.75914764404297 14.2408504486084 C 79.75458526611328 18.23629951477051 82.89131164550781 22.88852500915527 85.08217620849609 28.06830024719238 C 87.35007476806641 33.43022537231445 88.5 39.12687683105469 88.5 45 C 88.5 50.87312316894531 87.35007476806641 56.56977462768555 85.08217620849609 61.93170166015625 C 82.89131164550781 67.11147308349609 79.75458526611328 71.76370239257812 75.75914764404297 75.75914764404297 C 71.76370239257812 79.75458526611328 67.11147308349609 82.89131164550781 61.93170166015625 85.08217620849609 C 56.56977462768555 87.35007476806641 50.87312316894531 88.5 45 88.5 Z" stroke="none"/>
          <path d="M 45 3 C 39.32871246337891 3 33.82865524291992 4.110054016113281 28.65262985229492 6.299339294433594 C 23.65165710449219 8.414573669433594 19.15968322753906 11.44334411621094 15.301513671875 15.301513671875 C 11.44334411621094 19.15968322753906 8.414573669433594 23.65165710449219 6.299339294433594 28.65262985229492 C 4.110054016113281 33.82865524291992 3 39.32871246337891 3 45 C 3 50.67128753662109 4.110054016113281 56.17134475708008 6.299339294433594 61.34737396240234 C 8.414573669433594 66.34834289550781 11.44334411621094 70.84031677246094 15.301513671875 74.698486328125 C 19.15968322753906 78.55665588378906 23.65165710449219 81.58542633056641 28.65262985229492 83.70066070556641 C 33.82865524291992 85.88994598388672 39.32871246337891 87 45 87 C 50.67128753662109 87 56.17134475708008 85.88994598388672 61.34737396240234 83.70066070556641 C 66.34834289550781 81.58542633056641 70.84031677246094 78.55665588378906 74.698486328125 74.698486328125 C 78.55665588378906 70.84031677246094 81.58542633056641 66.34834289550781 83.70066070556641 61.34737396240234 C 85.88994598388672 56.17134475708008 87 50.67128753662109 87 45 C 87 39.32871246337891 85.88994598388672 33.82865524291992 83.70066070556641 28.65262985229492 C 81.58542633056641 23.65165710449219 78.55665588378906 19.15968322753906 74.698486328125 15.301513671875 C 70.84031677246094 11.44334411621094 66.34834289550781 8.414573669433594 61.34737396240234 6.299339294433594 C 56.17134475708008 4.110054016113281 50.67128753662109 3 45 3 M 45 0 C 69.85281372070312 0 90 20.14718627929688 90 45 C 90 69.85281372070312 69.85281372070312 90 45 90 C 20.14718627929688 90 0 69.85281372070312 0 45 C 0 20.14718627929688 20.14718627929688 0 45 0 Z" stroke="none" fill="#2a5673"/>
        </g>
      </g>
      <g id="Group_1144317" data-name="Group 1144317" transform="translate(311.005 6955.414)">
        <g id="Group_1144316" data-name="Group 1144316" transform="translate(22.505 1.864)">
          <g id="Group_1144314" data-name="Group 1144314" transform="translate(0 0)">
            <path id="Path_979450" data-name="Path 979450" d="M114.589,107.653H82.6a2.266,2.266,0,0,1-2.262-2.262V72.358a2.185,2.185,0,0,1,.663-1.6l10.4-10.4a2.185,2.185,0,0,1,1.6-.663h21.589a2.266,2.266,0,0,1,2.262,2.262v43.436a2.266,2.266,0,0,1-2.262,2.262Z" transform="translate(-74.851 -54.208)" fill="#e2e3e3" fill-rule="evenodd"/>
            <path id="Path_979451" data-name="Path 979451" d="M63.892,56.957H31.9a2.266,2.266,0,0,1-2.262-2.262V21.662a2.185,2.185,0,0,1,.663-1.6L40.7,9.66A2.185,2.185,0,0,1,42.3,9H63.892a2.266,2.266,0,0,1,2.262,2.262V54.7a2.266,2.266,0,0,1-2.262,2.262Z" transform="translate(-29.639 -8.997)" fill="#eff4f7" fill-rule="evenodd"/>
            <path id="Path_979452" data-name="Path 979452" d="M42.32,11.276l-10.4,10.4a2.268,2.268,0,0,0-.466.663H40.94A2.046,2.046,0,0,0,42.983,20.3v-9.49A2.267,2.267,0,0,0,42.32,11.276Z" transform="translate(-31.255 -10.613)" fill="#e2e3e3" fill-rule="evenodd"/>
            <path id="Path_979453" data-name="Path 979453" d="M192.354,69.329V65.5a1.084,1.084,0,0,1,1.082-1.082h11.37a1.084,1.084,0,0,1,1.082,1.082v3.831a1.084,1.084,0,0,1-1.082,1.082h-11.37A1.084,1.084,0,0,1,192.354,69.329Z" transform="translate(-174.751 -58.42)" fill="#eb3b48" fill-rule="evenodd"/>
          </g>
          <g id="Group_1144315" data-name="Group 1144315" transform="translate(10.517 14.828)">
            <path id="Path_979454" data-name="Path 979454" d="M339.666,357.951l-3.458-3.458,1.675-2.374,3.514,3.514Z" transform="translate(-313.558 -329.826)" fill="#455a64" fill-rule="evenodd"/>
            <path id="Path_979455" data-name="Path 979455" d="M361.175,377.118l-3.2,3.2a.448.448,0,0,0,0,.631l8.718,8.718a2.71,2.71,0,0,0,3.833-3.833l-8.718-8.718A.448.448,0,0,0,361.175,377.118Z" transform="translate(-332.853 -352.004)" fill="#707d8c" fill-rule="evenodd"/>
            <path id="Path_979456" data-name="Path 979456" d="M361.173,377.117l-3.2,3.2a.447.447,0,0,0,0,.631l2.174,2.174,3.832-3.832-2.174-2.174A.447.447,0,0,0,361.173,377.117Z" transform="translate(-332.851 -352.003)" fill="#96abbc" fill-rule="evenodd"/>
            <ellipse id="Ellipse_11592" data-name="Ellipse 11592" cx="12.834" cy="12.834" rx="12.834" ry="12.834" transform="matrix(0.198, -0.98, 0.98, 0.198, 0, 25.155)" fill="#4294ff"/>
            <circle id="Ellipse_11593" data-name="Ellipse 11593" cx="9.562" cy="9.562" r="9.562" transform="translate(4.337 6.97) rotate(-7.992)" fill="#eff4f7"/>
          </g>
          <path id="Path_979457" data-name="Path 979457" d="M217.9,244.513a1.388,1.388,0,1,1,1.963,1.963l-6.684,6.685a1.389,1.389,0,0,1-2.121-.188l-2.881-3.626a1.386,1.386,0,0,1,2.169-1.725l1.968,2.477Z" transform="translate(-188.595 -218.671)" fill="#4294ff" fill-rule="evenodd"/>
        </g>
        <path id="Path_979458" data-name="Path 979458" d="M53.163,29.057l-6.684,6.685a.51.51,0,0,1-.413.151.52.52,0,0,1-.383-.222.213.213,0,0,0-.036-.043L42.77,32a.515.515,0,0,1,.082-.73.517.517,0,0,1,.73.083l1.97,2.476a.867.867,0,0,0,1.291.073l5.587-5.586a.521.521,0,1,1,.735.739Zm1.225-1.963a2.251,2.251,0,0,0-3.184,0l-4.9,4.9-1.362-1.718a2.252,2.252,0,1,0-3.526,2.8l2.868,3.606a2.249,2.249,0,0,0,1.633.932c.066.007.133.009.2.009a2.242,2.242,0,0,0,1.592-.66l6.684-6.684a2.251,2.251,0,0,0,0-3.189Zm-6.21,13.443a8.7,8.7,0,1,0-8.7-8.7A8.7,8.7,0,0,0,48.178,40.536Zm0-19.126a10.428,10.428,0,1,0,10.43,10.428A10.442,10.442,0,0,0,48.178,21.41Zm21.9,32.332a1.853,1.853,0,0,1-2.612,0L61.521,47.8l2.618-2.615,5.939,5.943a1.851,1.851,0,0,1,0,2.615Zm-6.439-.7v-.681l-3.888-3.89a3.131,3.131,0,0,1-2.99,2.213H28.855v2.357a1.4,1.4,0,0,0,1.4,1.4H62.246a1.4,1.4,0,0,0,1.393-1.4ZM23.37,47.562a1.4,1.4,0,0,0,1.4,1.4H56.761a1.394,1.394,0,0,0,1.393-1.4v-.682l-.939-.942a.867.867,0,0,1,0-1.224l.219-.223-1.4-1.407a13.722,13.722,0,1,1,2.123-20.653V4.126a1.4,1.4,0,0,0-1.393-1.4H35.172c-.026,0-.051,0-.071,0v8.816a2.913,2.913,0,0,1-2.908,2.908H23.375c0,.023-.005.047-.005.071Zm10-43.609v7.6a1.18,1.18,0,0,1-1.179,1.177h-7.6ZM62.246,8.214a1.4,1.4,0,0,1,1.393,1.4V42.24l-1.362-1.364a.868.868,0,0,0-1.225,0l-.219.223-1.408-1.407a13.7,13.7,0,0,0,.464-15V8.214ZM58.337,41.052l1.271,1.27-.949.947L57.388,42Q57.886,41.549,58.337,41.052Zm1.832-9.213a11.991,11.991,0,1,0-11.991,11.99A12.007,12.007,0,0,0,60.169,31.839ZM59.052,45.326,60.3,46.575l2.618-2.615-1.25-1.249ZM71.3,49.9,65.374,43.97V9.61a3.131,3.131,0,0,0-3.128-3.128H59.889V4.126A3.131,3.131,0,0,0,56.761,1H35.172a3.078,3.078,0,0,0-2.214.916l-10.4,10.4a3.058,3.058,0,0,0-.918,2.211V47.562a3.131,3.131,0,0,0,3.128,3.126h2.357v2.357a3.132,3.132,0,0,0,3.128,3.128H62.246a3.136,3.136,0,0,0,2.99-2.213l1.005,1A3.579,3.579,0,0,0,71.3,49.9ZM27.018,25.844a.866.866,0,0,1,.867-.866h5.669a.866.866,0,1,1,0,1.731H27.886a.866.866,0,0,1-.867-.865Zm0,5.994a.867.867,0,0,1,.867-.866h4.189a.866.866,0,1,1,0,1.731H27.886A.866.866,0,0,1,27.018,31.839Zm11.97,11.99a.866.866,0,0,1-.867.866H27.886a.866.866,0,1,1,0-1.731H38.121A.866.866,0,0,1,38.989,43.828ZM27.018,19.849a.866.866,0,0,1,.867-.865H38.121a.865.865,0,1,1,0,1.731H27.886a.866.866,0,0,1-.867-.865Zm0,17.985a.866.866,0,0,1,.867-.865h5.669a.865.865,0,1,1,0,1.731H27.886a.867.867,0,0,1-.867-.865ZM40.974,8.725h11.8v4.265h-11.8Zm-.862,6a.867.867,0,0,1-.867-.865v-6a.866.866,0,0,1,.867-.865H53.643a.866.866,0,0,1,.867.865v6a.867.867,0,0,1-.867.865Z" fill-rule="evenodd"/>
      </g>
    </g>
  </g>
</svg>
