<svg xmlns="http://www.w3.org/2000/svg" xmlns:xlink="http://www.w3.org/1999/xlink" width="108" height="108" viewBox="0 0 108 108">
  <defs>
    <filter id="Fondo" x="0" y="0" width="108" height="108" filterUnits="userSpaceOnUse">
      <feOffset dy="3" input="SourceAlpha"/>
      <feGaussianBlur stdDeviation="3" result="blur"/>
      <feFlood flood-opacity="0.161"/>
      <feComposite operator="in" in2="blur"/>
      <feComposite in="SourceGraphic"/>
    </filter>
  </defs>
  <g id="Group_1144368" data-name="Group 1144368" transform="translate(-483 -423)">
    <g id="Group_1144360" data-name="Group 1144360">
      <g id="Group_1144242" data-name="Group 1144242">
        <g transform="matrix(1, 0, 0, 1, 483, 423)" filter="url(#Fondo)">
          <g id="Fondo-2" data-name="Fondo" transform="translate(9 6)" fill="#fff2ee" stroke="#ff8a60" stroke-width="3">
            <circle cx="45" cy="45" r="45" stroke="none"/>
            <circle cx="45" cy="45" r="43.5" fill="none"/>
          </g>
        </g>
        <g id="Group_1144241" data-name="Group 1144241" transform="translate(509.621 412.785)">
          <g id="Group_1144239" data-name="Group 1144239" transform="translate(0.82 39.211)">
            <path id="Path_979291" data-name="Path 979291" d="M83.264,185.013H75.976a3.807,3.807,0,0,1-3.807-3.807V170.6h14.9v10.6A3.806,3.806,0,0,1,83.264,185.013Z" transform="translate(-65.095 -156.96)" fill="#ffcebf"/>
            <path id="Path_979292" data-name="Path 979292" d="M141.773,170.6V181.2a3.807,3.807,0,0,1-3.807,3.807h-4.376A3.807,3.807,0,0,0,137.4,181.2V170.6Z" transform="translate(-119.798 -156.957)" fill="#ffb09e"/>
            <path id="Path_979293" data-name="Path 979293" d="M34.917,356.53H9.134a1.633,1.633,0,0,1-1.61-1.906l1.456-8.6a3.541,3.541,0,0,1,3.491-2.95H31.579a3.541,3.541,0,0,1,3.491,2.95l1.456,8.6a1.633,1.633,0,0,1-1.61,1.906Z" transform="translate(-7.501 -310.563)" fill="#f2fbff"/>
            <path id="Path_979294" data-name="Path 979294" d="M195.334,356.528h-4.376a1.633,1.633,0,0,0,1.61-1.906l-1.457-8.6a3.54,3.54,0,0,0-3.491-2.95H192a3.54,3.54,0,0,1,3.491,2.95l1.457,8.6A1.633,1.633,0,0,1,195.334,356.528Z" transform="translate(-167.918 -310.561)" fill="#deecf1"/>
            <path id="Path_979295" data-name="Path 979295" d="M46.715,207.124H45.027a1.438,1.438,0,0,1-1.438-1.438v-2.261a1.438,1.438,0,0,1,1.438-1.438h1.689v5.136Z" transform="translate(-39.641 -184.913)" fill="#ffb09e"/>
            <path id="Path_979296" data-name="Path 979296" d="M208.391,207.124h1.689a1.438,1.438,0,0,0,1.438-1.438v-2.261a1.438,1.438,0,0,0-1.438-1.438h-1.689Z" transform="translate(-186.416 -184.913)" fill="#ffa78f"/>
            <path id="Path_979297" data-name="Path 979297" d="M120.878,302.344h-5.434V306.8l2.717,1.882,2.717-1.882Z" transform="translate(-103.636 -274.291)" fill="#ffb09e"/>
            <path id="Path_979298" data-name="Path 979298" d="M98.108,344.953l-2.08,2.488a.638.638,0,0,1-1.066-.133l-2.034-4.238h2.463Z" transform="translate(-83.583 -310.562)" fill="#62dbfb"/>
            <path id="Path_979299" data-name="Path 979299" d="M140.28,344.953l2.08,2.488a.638.638,0,0,0,1.066-.133l2.034-4.238H143Z" transform="translate(-125.755 -310.562)" fill="#62dbfb"/>
            <path id="Path_979300" data-name="Path 979300" d="M59.441,126.742a6.167,6.167,0,0,0,2.977-3.433s4.817,3.54,7.622,2.359a4.358,4.358,0,0,0,4.3,1.074,1.689,1.689,0,0,0,1.689-1.689v-5.864a1.689,1.689,0,0,0-1.689-1.689H62.512a1.624,1.624,0,0,0-1.624,1.624,3.01,3.01,0,0,0-3.01,3.01v4.608Z" transform="translate(-52.367 -109.667)" fill="#bc7c63"/>
            <path id="Path_979301" data-name="Path 979301" d="M174.456,119.188v5.864a1.688,1.688,0,0,1-1.689,1.689,4.222,4.222,0,0,1-3.337-.358,1.535,1.535,0,0,0,.156-.137,1.684,1.684,0,0,0,.494-1.195v-5.864a1.689,1.689,0,0,0-1.689-1.689h4.376A1.689,1.689,0,0,1,174.456,119.188Z" transform="translate(-150.791 -109.666)" fill="#aa6a51"/>
            <path id="Path_979302" data-name="Path 979302" d="M260.758,51.44a13.4,13.4,0,1,1,2.282,20.781l-4.918,2.136a1.012,1.012,0,0,1-1.332-1.332l2.136-4.918A13.4,13.4,0,0,1,260.758,51.44Z" transform="translate(-229.443 -47.338)" fill="#fee97d"/>
            <path id="Path_979303" data-name="Path 979303" d="M370.966,70.4a13.383,13.383,0,0,1-11.8,3.721,13.4,13.4,0,0,0,0-26.392A13.4,13.4,0,0,1,370.966,70.4Z" transform="translate(-320.702 -47.347)" fill="#fee45a"/>
            <circle id="Ellipse_11584" data-name="Ellipse 11584" cx="8.823" cy="8.823" r="8.823" transform="translate(31.901 4.819)" fill="#fd8087"/>
            <circle id="Ellipse_11585" data-name="Ellipse 11585" cx="5.863" cy="5.863" r="5.863" transform="translate(34.861 7.779)" fill="#f2fbff"/>
            <circle id="Ellipse_11586" data-name="Ellipse 11586" cx="2.903" cy="2.903" r="2.903" transform="translate(37.822 10.739)" fill="#fd8087"/>
            <g id="Group_1144238" data-name="Group 1144238" transform="translate(46.66 0)">
              <path id="Path_979304" data-name="Path 979304" d="M436.825,81.709l3.142.3a1.837,1.837,0,0,0,1.471-.53l2.79-2.79-3.49-.888Z" transform="translate(-436.522 -74.306)" fill="#62dbfb"/>
              <path id="Path_979305" data-name="Path 979305" d="M437.381,45.891l.888,3.49-3.913,3.913-.3-3.142a1.837,1.837,0,0,1,.53-1.471Z" transform="translate(-434.052 -45.891)" fill="#62dbfb"/>
            </g>
          </g>
          <g id="Group_1144240" data-name="Group 1144240" transform="translate(-0.001 38.39)">
            <path id="Path_979306" data-name="Path 979306" d="M30.655,146.914l-1.457-8.6a4.348,4.348,0,0,0-4.3-3.634H18.882v-2.814h.107a4.632,4.632,0,0,0,4.627-4.627V126.02h.868a2.261,2.261,0,0,0,2.258-2.258V121.5a2.261,2.261,0,0,0-1.629-2.167,2.493,2.493,0,0,0,.191-.959v-5.864A2.512,2.512,0,0,0,22.8,110H10.965A2.449,2.449,0,0,0,8.64,111.69a3.837,3.837,0,0,0-3.13,3.766v3.9A2.261,2.261,0,0,0,3.947,121.5v2.261A2.261,2.261,0,0,0,6.2,126.021h.868v1.215a4.632,4.632,0,0,0,4.627,4.627h.107v2.814H10.165a.82.82,0,0,0-.74,1.175l2.034,4.238a1.453,1.453,0,0,0,1.134.816,1.483,1.483,0,0,0,.183.011,1.452,1.452,0,0,0,1.117-.523l.631-.754v8.5H2.453a.813.813,0,0,1-.8-.948l1.457-8.6a2.712,2.712,0,0,1,2.682-2.266h.524a.82.82,0,0,0,0-1.641H5.79a4.348,4.348,0,0,0-4.3,3.634l-1.457,8.6a2.454,2.454,0,0,0,2.419,2.863H28.236a2.454,2.454,0,0,0,2.419-2.863Zm-11.435-10.6-1.347,2.808-1.323-1.583,1.768-1.225h.9Zm5.88-12.555a.618.618,0,0,1-.617.617h-.868v-3.5h.868a.618.618,0,0,1,.617.617Zm-18.027.617H6.205a.618.618,0,0,1-.617-.617V121.5a.618.618,0,0,1,.617-.617h.868v3.5Zm.616-5.136H7.151v-3.787a2.192,2.192,0,0,1,2.19-2.19.82.82,0,0,0,.82-.82.8.8,0,0,1,.8-.8H22.8a.869.869,0,0,1,.868.868v5.864a.869.869,0,0,1-.868.868.822.822,0,0,0-.237.035,3.519,3.519,0,0,1-3.464-.846.82.82,0,0,0-.92-.2c-1.943.818-5.581-1.357-6.818-2.264a.82.82,0,0,0-1.266.408,5.368,5.368,0,0,1-2.4,2.866ZM11.7,130.222a2.99,2.99,0,0,1-2.986-2.986v-6.692a7.129,7.129,0,0,0,2.521-2.673c1.289.823,3.748,2.181,5.947,2.181a4.484,4.484,0,0,0,1.118-.134,5.22,5.22,0,0,0,3.221,1.161c.147,0,.3-.007.453-.021v6.179a2.99,2.99,0,0,1-2.986,2.986H11.7Zm1.115,8.9-1.347-2.808h.9l1.768,1.225Zm.842-3.912-.209-.145v-3.2h3.793v3.2l-1.9,1.314Zm15.2,12.635a.8.8,0,0,1-.621.288H16.165v-8.5l.631.754a1.452,1.452,0,0,0,1.117.523,1.5,1.5,0,0,0,.183-.011,1.453,1.453,0,0,0,1.134-.816l1.81-3.772H24.9a2.712,2.712,0,0,1,2.682,2.267l1.457,8.6a.8.8,0,0,1-.18.66Z" transform="translate(0.001 -102.169)"/>
            <path id="Path_979307" data-name="Path 979307" d="M133.6,223.211a.82.82,0,0,0,.82-.82v-1.469a.82.82,0,0,0-1.641,0v1.469A.82.82,0,0,0,133.6,223.211Z" transform="translate(-118.255 -200.225)"/>
            <path id="Path_979308" data-name="Path 979308" d="M277.722,44.169a.82.82,0,0,0-.378-1.375l-3.017-.768-.768-3.017a.82.82,0,0,0-1.375-.378l-1.72,1.72a14.223,14.223,0,0,0-19.128,19.695l-1.965,4.525a1.835,1.835,0,0,0,1.677,2.565,1.841,1.841,0,0,0,.733-.153l4.918-2.136a.82.82,0,0,0-.654-1.5l-4.918,2.136a.192.192,0,0,1-.252-.253l2.135-4.918a.821.821,0,0,0-.061-.768,12.584,12.584,0,0,1,1.722-15.646,12.44,12.44,0,0,1,7.5-3.607,12.658,12.658,0,0,1,7.081,1.283,2.647,2.647,0,0,0-.631,1.98l.114,1.213a9.652,9.652,0,1,0,2.85,2.85c1.052.13,2.358.3,3.193-.517a12.657,12.657,0,0,1,1.283,7.082,12.443,12.443,0,0,1-3.607,7.506,12.6,12.6,0,0,1-12.333,3.206.82.82,0,1,0-.447,1.579A14.222,14.222,0,0,0,276,45.889Zm-5.4-3.358.417,1.64L270.392,44.8l-.132-1.4a1.013,1.013,0,0,1,.293-.814ZM263.5,60.856a8,8,0,1,1,5.046-14.209l-.939.939a6.694,6.694,0,1,0,1.16,1.16l.939-.939A8,8,0,0,1,263.5,60.856Zm5.043-8a5.051,5.051,0,1,1-2.107-4.1l-.949.949a3.728,3.728,0,1,0,1.16,1.16l.949-.949a5.013,5.013,0,0,1,.947,2.936Zm-2.96,0a2.088,2.088,0,1,1-1.31-1.932l-1.352,1.352a.82.82,0,0,0,1.16,1.16l1.352-1.352A2.072,2.072,0,0,1,265.582,52.853Zm7.375-6.761-1.4-.132,2.349-2.349,1.64.417L273.771,45.8A1.011,1.011,0,0,1,272.957,46.092Z" transform="translate(-221.955 -38.39)"/>
          </g>
        </g>
      </g>
    </g>
  </g>
</svg>
