<svg xmlns="http://www.w3.org/2000/svg" xmlns:xlink="http://www.w3.org/1999/xlink" width="108" height="108" viewBox="0 0 108 108">
  <defs>
    <filter id="Fondo" x="0" y="0" width="108" height="108" filterUnits="userSpaceOnUse">
      <feOffset dy="3" input="SourceAlpha"/>
      <feGaussianBlur stdDeviation="3" result="blur"/>
      <feFlood flood-opacity="0.161"/>
      <feComposite operator="in" in2="blur"/>
      <feComposite in="SourceGraphic"/>
    </filter>
  </defs>
  <g id="Group_1144346" data-name="Group 1144346" transform="translate(-273 -4001)">
    <g id="Group_1144149" data-name="Group 1144149">
      <g transform="matrix(1, 0, 0, 1, 273, 4001)" filter="url(#Fondo)">
        <g id="Fondo-2" data-name="Fondo" transform="translate(9 6)" fill="#fff2ee" stroke="#ff8a60" stroke-width="3">
          <circle cx="45" cy="45" r="45" stroke="none"/>
          <circle cx="45" cy="45" r="43.5" fill="none"/>
        </g>
      </g>
      <g id="Group_1144148" data-name="Group 1144148" transform="translate(292.763 4008.239)">
        <path id="Path_979076" data-name="Path 979076" d="M95.578,133.276a7.164,7.164,0,0,1,7.134,6.513H88.444A7.164,7.164,0,0,1,95.578,133.276Z" transform="translate(-74.646 -102.244)" fill="#2dcffc" fill-rule="evenodd"/>
        <path id="Path_979077" data-name="Path 979077" d="M100.725,140.025H88.444a7.165,7.165,0,0,1,6.467-6.482A7.371,7.371,0,0,1,100.725,140.025Z" transform="translate(-74.646 -102.48)" fill="#66deff" fill-rule="evenodd"/>
        <circle id="Ellipse_11572" data-name="Ellipse 11572" cx="3.412" cy="3.412" r="3.412" transform="translate(16.829 25.072) rotate(-13.467)" fill="#fdb0a0"/>
        <path id="Path_979078" data-name="Path 979078" d="M123.254,81.542a3.413,3.413,0,0,1,0-6.684,3.413,3.413,0,0,1,0,6.684Z" transform="translate(-103.013 -50.603)" fill="#ffcec0" fill-rule="evenodd"/>
        <path id="Path_979079" data-name="Path 979079" d="M219.633,182.591l-1.715-.338-.753-1.815.974-1.452-2.008-2.008-1.452.974-1.815-.753-.338-1.715h-2.839l-.338,1.715-1.815.753-1.452-.974-2.008,2.008.974,1.452-.753,1.815-1.715.338v2.839l1.715.338.753,1.815-.974,1.452,2.008,2.008,1.452-.974,1.815.753.338,1.715h2.839l.338-1.715,1.815-.753,1.452.974,2.008-2.008-.974-1.452.753-1.815,1.715-.338Z" transform="translate(-175.542 -139.556)" fill="#7986bf" fill-rule="evenodd"/>
        <path id="Path_979080" data-name="Path 979080" d="M218.8,185.43l-1.715.338-.753,1.815.974,1.452-1.675,1.675-1.273-.854-2.327.965-.338,1.715h-2.01l-.338-1.715-2.327-.965-1.273.854-1.675-1.675.974-1.452-.753-1.815-1.715-.338v-2.839l1.715-.338.753-1.815-.974-1.452,1.675-1.675,1.273.854,2.327-.965.338-1.715h2.01l.338,1.715,2.327.965,1.273-.854,1.675,1.675-.974,1.452.753,1.815,1.715.338Z" transform="translate(-175.542 -139.556)" fill="#909cd1" fill-rule="evenodd"/>
        <circle id="Ellipse_11573" data-name="Ellipse 11573" cx="4.386" cy="4.386" r="4.386" transform="translate(30.157 40.447) rotate(-4.759)" fill="#7986bf"/>
        <circle id="Ellipse_11574" data-name="Ellipse 11574" cx="4.369" cy="4.369" r="4.369" transform="translate(30.919 40.378) rotate(-3.555)" fill="#f3f3ff"/>
        <path id="Path_979081" data-name="Path 979081" d="M58.287,235.626a7.164,7.164,0,0,1,7.134,6.513H51.153A7.164,7.164,0,0,1,58.287,235.626Z" transform="translate(-41.681 -192.721)" fill="#2a92fa" fill-rule="evenodd"/>
        <path id="Path_979082" data-name="Path 979082" d="M63.434,242.375H51.153a7.165,7.165,0,0,1,6.467-6.482A7.371,7.371,0,0,1,63.434,242.375Z" transform="translate(-41.681 -192.957)" fill="#4eb1fc" fill-rule="evenodd"/>
        <circle id="Ellipse_11575" data-name="Ellipse 11575" cx="3.412" cy="3.412" r="3.412" transform="translate(13.194 36.058)" fill="#fdb0a0"/>
        <path id="Path_979083" data-name="Path 979083" d="M85.962,183.892a3.413,3.413,0,0,1,0-6.684,3.413,3.413,0,0,1,0,6.684Z" transform="translate(-70.047 -141.08)" fill="#ffcec0" fill-rule="evenodd"/>
        <path id="Path_979084" data-name="Path 979084" d="M221.714,85.637a7.164,7.164,0,0,1,7.134,6.513H214.58A7.164,7.164,0,0,1,221.714,85.637Z" transform="translate(-186.15 -60.132)" fill="#2dcffc" fill-rule="evenodd"/>
        <path id="Path_979085" data-name="Path 979085" d="M226.861,92.386H214.58a7.165,7.165,0,0,1,6.467-6.482A7.371,7.371,0,0,1,226.861,92.386Z" transform="translate(-186.15 -60.368)" fill="#66deff" fill-rule="evenodd"/>
        <circle id="Ellipse_11576" data-name="Ellipse 11576" cx="3.412" cy="3.412" r="3.412" transform="translate(31.124 23.94) rotate(-67.922)" fill="#fdb0a0"/>
        <path id="Path_979086" data-name="Path 979086" d="M249.39,33.9a3.413,3.413,0,1,1,2.721-3.342A3.413,3.413,0,0,1,249.39,33.9Z" transform="translate(-214.517 -8.49)" fill="#ffcec0" fill-rule="evenodd"/>
        <path id="Path_979087" data-name="Path 979087" d="M347.85,133.276a7.164,7.164,0,0,1,7.134,6.513H340.716A7.164,7.164,0,0,1,347.85,133.276Z" transform="translate(-297.654 -102.244)" fill="#2dcffc" fill-rule="evenodd"/>
        <path id="Path_979088" data-name="Path 979088" d="M353,140.025H340.716a7.165,7.165,0,0,1,6.467-6.482A7.371,7.371,0,0,1,353,140.025Z" transform="translate(-297.654 -102.48)" fill="#66deff" fill-rule="evenodd"/>
        <circle id="Ellipse_11577" data-name="Ellipse 11577" cx="3.412" cy="3.412" r="3.412" transform="translate(45.366 27.601) rotate(-45)" fill="#fdb0a0"/>
        <path id="Path_979089" data-name="Path 979089" d="M375.525,81.542a3.413,3.413,0,1,1,2.721-3.342A3.413,3.413,0,0,1,375.525,81.542Z" transform="translate(-326.02 -50.603)" fill="#ffcec0" fill-rule="evenodd"/>
        <path id="Path_979090" data-name="Path 979090" d="M385.14,235.626a7.164,7.164,0,0,1,7.134,6.513H378.006A7.164,7.164,0,0,1,385.14,235.626Z" transform="translate(-330.618 -192.721)" fill="#2a92fa" fill-rule="evenodd"/>
        <path id="Path_979091" data-name="Path 979091" d="M390.288,242.375H378.007a7.166,7.166,0,0,1,6.467-6.482A7.371,7.371,0,0,1,390.288,242.375Z" transform="translate(-330.619 -192.957)" fill="#4eb1fc" fill-rule="evenodd"/>
        <circle id="Ellipse_11578" data-name="Ellipse 11578" cx="3.412" cy="3.412" r="3.412" transform="translate(50.431 36.918) rotate(-13.119)" fill="#fdb0a0"/>
        <g id="Group_1144147" data-name="Group 1144147" transform="translate(4.002 17.845)">
          <path id="Path_979092" data-name="Path 979092" d="M412.816,183.892a3.413,3.413,0,1,1,2.721-3.342A3.413,3.413,0,0,1,412.816,183.892Z" transform="translate(-362.987 -158.925)" fill="#ffcec0" fill-rule="evenodd"/>
          <path id="Path_979093" data-name="Path 979093" d="M72.907,317.166a2.181,2.181,0,0,0-1.955-3.289c-14.135,0-14.16-11.494-27.382,5.51l7,7.335c3.116-3.143,6.821-3.288,10.907-3.044,2.229.133,4.889.455,7.329.4,3.41-.076,5.5-1,8.494-2.587,3.409-1.806,9.334-5.4,10.367-6.761,1.479-1.945-.43-3.776-2.687-2.474a81.219,81.219,0,0,1-13.3,5.892,2.55,2.55,0,0,0,1.228-.985Z" transform="translate(-38.98 -276.384)" fill="#fdb0a0" fill-rule="evenodd"/>
          <path id="Path_979094" data-name="Path 979094" d="M72.907,317.166a2.181,2.181,0,0,0-1.955-3.289c-14.135,0-14.16-11.494-27.382,5.51l5.4,5.662c3.265-3.22,7.137-3.369,11.4-3.113,2.35.141,5.154.48,7.726.423,3.595-.079,5.8-1.055,8.954-2.727,3.558-1.885,9.716-5.62,10.895-7.084-.489-.75-1.672-1.039-2.971-.289a81.219,81.219,0,0,1-13.3,5.892,2.551,2.551,0,0,0,1.228-.985Z" transform="translate(-38.98 -276.384)" fill="#ffcec0" fill-rule="evenodd"/>
          <path id="Path_979095" data-name="Path 979095" d="M201.235,347.733a2.185,2.185,0,0,0-.922-3.075c.783.857.258,2.074-.97,2.521a8.552,8.552,0,0,1-2.59.388,17.149,17.149,0,0,1-6.771-1.161.851.851,0,0,0-.785,1.51,19.112,19.112,0,0,0,7.6,1.348,9.8,9.8,0,0,0,3.214-.544A2.551,2.551,0,0,0,201.235,347.733Z" transform="translate(-167.309 -306.951)" fill="#fdb0a0" fill-rule="evenodd"/>
          <path id="Path_979096" data-name="Path 979096" d="M11.178,370.7l3.239-3.239a1.64,1.64,0,0,1,2.312,0l7.7,7.7a1.64,1.64,0,0,1,0,2.313l-3.239,3.239Z" transform="translate(-10.346 -326.686)" fill="#f2671f" fill-rule="evenodd"/>
          <path id="Path_979097" data-name="Path 979097" d="M11.178,370.7l3.239-3.239a1.64,1.64,0,0,1,2.311,0h0l6.065,6.065a1.64,1.64,0,0,1,0,2.312l-3.239,3.239Z" transform="translate(-10.346 -326.686)" fill="#ff8748" fill-rule="evenodd"/>
          <path id="Path_979098" data-name="Path 979098" d="M35.562,28.076a6.314,6.314,0,0,1,6.185,4.89H29.378A6.313,6.313,0,0,1,35.562,28.076Zm0-6.848a2.6,2.6,0,1,1-2.6,2.6A2.6,2.6,0,0,1,35.562,21.228ZM28.427,34.59H42.7a.813.813,0,0,0,.81-.885,7.98,7.98,0,0,0-5.122-6.737,4.224,4.224,0,1,0-5.646,0A7.975,7.975,0,0,0,27.618,33.7a.813.813,0,0,0,.81.885Zm7.135,15.172a3.55,3.55,0,1,1,3.549-3.549A3.554,3.554,0,0,1,35.562,49.762Zm0-8.723a5.174,5.174,0,1,0,5.173,5.174A5.18,5.18,0,0,0,35.562,41.039Zm7.693,4.425L42.2,45.256a.813.813,0,0,1-.594-.485l-.751-1.811a.815.815,0,0,1,.076-.763l.6-.895-1.058-1.058-.895.6a.814.814,0,0,1-.763.076l-1.81-.751a.813.813,0,0,1-.486-.593l-.207-1.055h-1.5l-.207,1.055a.814.814,0,0,1-.486.593l-1.811.751a.813.813,0,0,1-.763-.076l-.894-.6L29.593,41.3l.6.895a.812.812,0,0,1,.076.763l-.752,1.811a.809.809,0,0,1-.593.485l-1.054.208v1.5l1.054.208a.808.808,0,0,1,.593.485l.752,1.81a.811.811,0,0,1-.076.763l-.6.895,1.058,1.059.894-.6a.812.812,0,0,1,.763-.076l1.811.751a.817.817,0,0,1,.486.593l.207,1.056h1.5l.207-1.056a.814.814,0,0,1,.486-.593l1.81-.751a.812.812,0,0,1,.763.076l.895.6,1.058-1.059-.6-.895a.814.814,0,0,1-.076-.763l.751-1.81a.813.813,0,0,1,.594-.485l1.054-.208Zm-.1-4.838-2-2a.812.812,0,0,0-1.027-.1l-1.088.729-1.007-.418-.253-1.284a.812.812,0,0,0-.8-.655H34.146a.813.813,0,0,0-.8.655L33.1,38.834l-1.008.418L31,38.523a.812.812,0,0,0-1.027.1l-2,2a.811.811,0,0,0-.1,1.027l.73,1.088-.418,1.007L26.9,44a.812.812,0,0,0-.654.8v2.833a.811.811,0,0,0,.654.8l1.284.253.418,1.007-.73,1.088a.81.81,0,0,0,.1,1.025l2,2A.813.813,0,0,0,31,53.9l1.087-.729,1.008.418.253,1.283a.812.812,0,0,0,.8.656h2.832a.812.812,0,0,0,.8-.656l.253-1.283,1.007-.418,1.088.729a.813.813,0,0,0,1.027-.1l2-2a.808.808,0,0,0,.1-1.025l-.728-1.088.418-1.007,1.284-.253a.811.811,0,0,0,.654-.8V44.8a.812.812,0,0,0-.654-.8l-1.284-.253-.418-1.008.728-1.087A.809.809,0,0,0,43.152,40.626Zm8.9,16.831c-.836,1.1-6.214,4.478-10.108,6.541-2.755,1.459-4.81,2.421-8.139,2.495a51.13,51.13,0,0,1-5.142-.244c-.744-.059-1.446-.116-2.125-.157-2.609-.156-5.591-.212-8.3,1.008l-6.77-6.77c3.11-3.63,5.55-5.565,7.652-6.074,1.967-.475,3.652.223,5.982,1.189A26.087,26.087,0,0,0,35.978,57.9h.03a1.37,1.37,0,0,1,1.227,2.065c-.478.8-2.307,1.237-4.774,1.129a16.612,16.612,0,0,1-5.678-1.152.812.812,0,0,0-.749,1.441,18.747,18.747,0,0,0,7.155,1.359,10.106,10.106,0,0,0,3.743-.6,81.854,81.854,0,0,0,13.488-5.973c.852-.492,1.546-.368,1.831-.044s.2.806-.2,1.325ZM17.5,69.822a.826.826,0,0,0,0-1.165L9.8,60.949a.826.826,0,0,0-1.166,0L5.962,63.618l8.873,8.873ZM49.609,54.77a3,3,0,0,1,3.86.288,2.6,2.6,0,0,1-.119,3.382c-1.207,1.585-7.631,5.4-10.643,6.992-2.868,1.521-5.184,2.6-8.862,2.684a52.857,52.857,0,0,1-5.309-.248c-.735-.059-1.43-.116-2.092-.156-2.9-.173-5.176-.1-7.212.73a2.444,2.444,0,0,1-.581,2.528l-3.241,3.241a.812.812,0,0,1-1.148,0L4.239,64.192a.813.813,0,0,1,0-1.148L7.482,59.8a2.452,2.452,0,0,1,2.733-.5c3.4-3.972,6.039-6.021,8.527-6.624s4.569.266,6.987,1.268A24.369,24.369,0,0,0,35.963,56.28a3,3,0,0,1,3.058,3.444A93.8,93.8,0,0,0,49.609,54.77Zm-1.274-4.4a6.357,6.357,0,0,1,12.37,0ZM44.009,38.492a6.36,6.36,0,0,1,11.943-1.238,4.218,4.218,0,0,0-4.646,1.238Zm6.186-11.738a2.6,2.6,0,1,1-2.6,2.6A2.6,2.6,0,0,1,50.195,26.754Zm6.927,14.473a2.6,2.6,0,1,1-2.6-2.6A2.6,2.6,0,0,1,57.121,41.228ZM62.464,51.1a.812.812,0,0,1-.809.886H47.385a.814.814,0,0,1-.809-.886A7.979,7.979,0,0,1,51.7,44.367a4.214,4.214,0,0,1-1.4-3.139,4.169,4.169,0,0,1,.15-1.112H43.059a.812.812,0,0,1-.809-.885,7.977,7.977,0,0,1,5.122-6.737,4.224,4.224,0,1,1,5.646,0,7.973,7.973,0,0,1,5.095,6.515,4.214,4.214,0,0,1-.769,5.358,7.978,7.978,0,0,1,5.12,6.737ZM16.6,45.475a6.312,6.312,0,0,1,6.184,4.89H10.419A6.313,6.313,0,0,1,16.6,45.475ZM20.93,33.6a6.316,6.316,0,0,1,6.185,4.89h-7.3a4.217,4.217,0,0,0-4.646-1.238A6.319,6.319,0,0,1,20.93,33.6Zm0-6.848a2.6,2.6,0,1,1-2.6,2.6A2.6,2.6,0,0,1,20.93,26.754ZM16.6,38.627a2.6,2.6,0,1,1-2.6,2.6,2.6,2.6,0,0,1,2.6-2.6ZM9.469,51.99a.812.812,0,0,1-.809-.886,7.978,7.978,0,0,1,5.12-6.737,4.214,4.214,0,0,1-.769-5.358,7.973,7.973,0,0,1,5.095-6.515,4.225,4.225,0,1,1,5.646,0,7.977,7.977,0,0,1,5.122,6.737.813.813,0,0,1-.809.885H20.678a4.169,4.169,0,0,1,.15,1.112,4.217,4.217,0,0,1-1.4,3.14A7.974,7.974,0,0,1,24.548,51.1a.814.814,0,0,1-.808.886H9.469Z" transform="translate(-4.002 -19.604)" fill-rule="evenodd"/>
        </g>
      </g>
    </g>
  </g>
</svg>
