<svg xmlns="http://www.w3.org/2000/svg" xmlns:xlink="http://www.w3.org/1999/xlink" width="108" height="108" viewBox="0 0 108 108">
  <defs>
    <filter id="Fondo" x="0" y="0" width="108" height="108" filterUnits="userSpaceOnUse">
      <feOffset dy="3" input="SourceAlpha"/>
      <feGaussianBlur stdDeviation="3" result="blur"/>
      <feFlood flood-opacity="0.161"/>
      <feComposite operator="in" in2="blur"/>
      <feComposite in="SourceGraphic"/>
    </filter>
  </defs>
  <g id="Group_1144379" data-name="Group 1144379" transform="translate(-745.999 -6137)">
    <g id="Group_1144294" data-name="Group 1144294">
      <g transform="matrix(1, 0, 0, 1, 746, 6137)" filter="url(#Fondo)">
        <g id="Fondo-2" data-name="Fondo" transform="translate(9 6)" fill="#fff2ee" stroke="#ff8a60" stroke-width="3">
          <circle cx="45" cy="45" r="45" stroke="none"/>
          <circle cx="45" cy="45" r="43.5" fill="none"/>
        </g>
      </g>
      <g id="Group_1144293" data-name="Group 1144293" transform="translate(759.746 6159.539)">
        <path id="Path_979412" data-name="Path 979412" d="M291.783,109.237h-2.544a.1.1,0,0,1-.1-.1v-1.407a3.988,3.988,0,0,0-3.988-3.988h-.135l-1.374,2.749,1.374,1.374h1.374v2.624a1.5,1.5,0,0,0,1.5,1.5h4v-2.646A.1.1,0,0,0,291.783,109.237Z" transform="translate(-243.208 -93.422)" fill="#fd9468"/>
        <path id="Path_979413" data-name="Path 979413" d="M154.96,305.382h-9.409a.106.106,0,0,1-.106-.106V283.391h9.515a.106.106,0,0,1,.106.106v21.779A.106.106,0,0,1,154.96,305.382Z" transform="translate(-118.758 -255.206)" fill="#fd6930"/>
        <path id="Path_979414" data-name="Path 979414" d="M30.586,392.5H21.177a.106.106,0,0,1-.106-.106V380.233a.106.106,0,0,1,.106-.106h9.409a.106.106,0,0,1,.106.106v12.158A.106.106,0,0,1,30.586,392.5Z" transform="translate(-6.754 -342.321)" fill="#ffc344"/>
        <path id="Path_979415" data-name="Path 979415" d="M269.926,218.268h9.409a.106.106,0,0,0,.106-.106v-31.4a.106.106,0,0,0-.106-.106h-9.409a.106.106,0,0,0-.106.106v31.4A.106.106,0,0,0,269.926,218.268Z" transform="translate(-230.763 -168.092)" fill="#01c0fa"/>
        <path id="Path_979416" data-name="Path 979416" d="M394.3,131.153h9.409a.106.106,0,0,0,.106-.106V90.026a.106.106,0,0,0-.106-.106H394.3a.106.106,0,0,0-.106.106v41.021A.106.106,0,0,0,394.3,131.153Z" transform="translate(-342.767 -80.977)" fill="#80d261"/>
        <path id="Path_979417" data-name="Path 979417" d="M154.96,283.391h-3.876v17.483a2.517,2.517,0,0,1-2.517,2.517h-3.122v1.885a.106.106,0,0,0,.106.106h9.409a.106.106,0,0,0,.106-.106V283.5A.106.106,0,0,0,154.96,283.391Z" transform="translate(-118.758 -255.206)" fill="#fd5426"/>
        <path id="Path_979418" data-name="Path 979418" d="M30.586,380.126H26.71v7.862a2.517,2.517,0,0,1-2.517,2.517H21.071v1.885a.106.106,0,0,0,.106.106h9.409a.106.106,0,0,0,.106-.106V380.232a.106.106,0,0,0-.106-.106Z" transform="translate(-6.754 -342.32)" fill="#feb237"/>
        <path id="Path_979419" data-name="Path 979419" d="M279.335,186.655h-3.876v27.1a2.517,2.517,0,0,1-2.517,2.517H269.82v1.885a.106.106,0,0,0,.106.106h9.409a.106.106,0,0,0,.106-.106v-31.4A.106.106,0,0,0,279.335,186.655Z" transform="translate(-230.763 -168.091)" fill="#08a9f1"/>
        <path id="Path_979420" data-name="Path 979420" d="M403.709,89.92h-3.876v36.725a2.517,2.517,0,0,1-2.517,2.517h-3.122v1.885a.106.106,0,0,0,.106.106h9.409a.106.106,0,0,0,.106-.106V90.026A.106.106,0,0,0,403.709,89.92Z" transform="translate(-342.767 -80.977)" fill="#68ca44"/>
        <path id="Path_979421" data-name="Path 979421" d="M421.832,12.949V7.6a.1.1,0,0,1,.142-.1l6.491,2.6a.1.1,0,0,1,0,.191Z" transform="translate(-367.656 -6.755)" fill="#fd4755"/>
        <path id="Path_979422" data-name="Path 979422" d="M227.338,84.175l-.773.207a.574.574,0,0,1-.7-.406l-.563-2.1a1.374,1.374,0,1,1,2.655-.711l.356,1.328A1.374,1.374,0,0,1,227.338,84.175Z" transform="translate(-190.628 -72.174)" fill="#ffeee6"/>
        <path id="Path_979423" data-name="Path 979423" d="M198.512,114.238l-1.8-1.8a.1.1,0,0,1,0-.145l6.112-6.112,1.944,1.944-6.112,6.112A.1.1,0,0,1,198.512,114.238Z" transform="translate(-164.901 -95.622)" fill="#017297"/>
        <path id="Path_979424" data-name="Path 979424" d="M100.1,217.878l-.563-2.1a1.374,1.374,0,1,0-2.655.711l.356,1.328a1.374,1.374,0,0,0,1.683.972l.773-.207a.574.574,0,0,0,.406-.7Z" transform="translate(-74.978 -193.399)" fill="#fed2a4"/>
        <path id="Path_979425" data-name="Path 979425" d="M117.807,297.21h2.749v9.621h-2.749Z" transform="translate(-93.869 -267.65)" fill="#017297"/>
        <path id="Path_979426" data-name="Path 979426" d="M137.124,258.5v-2.646a.1.1,0,0,0-.1-.1h-5.4V258.5h5.5Z" transform="translate(-106.314 -230.317)" fill="#08a9f1"/>
        <path id="Path_979427" data-name="Path 979427" d="M256,103.739v8.144a.1.1,0,0,0,.1.1h2.646v-4.123h1.374v-4.123Z" transform="translate(-218.318 -93.421)" fill="#0681af"/>
        <path id="Path_979428" data-name="Path 979428" d="M103.987,284.9a3.988,3.988,0,0,0,3.988,3.988h.135v2.749h2.749v-4a1.5,1.5,0,0,0-1.5-1.5H108.11v-1.375l-1.374-1.374-2.749,1.374Z" transform="translate(-81.423 -255.207)" fill="#0681af"/>
        <path id="Path_979429" data-name="Path 979429" d="M109.556,200.5a.1.1,0,0,0-.145,0l-5.4,5.4a.1.1,0,0,0-.029.071V210.1h4.123V205.9a.506.506,0,0,1,.148-.357l3.1-3.1a.1.1,0,0,0,0-.145Z" transform="translate(-81.423 -180.536)" fill="#01c0fa"/>
        <path id="Path_979430" data-name="Path 979430" d="M396.954,8.2h-1.22a.746.746,0,1,0,0,1.492h.58V49.43h-8.129V9.689h4.065a.746.746,0,1,0,0-1.492h-1.316V6.7L397.1,4.233a.849.849,0,0,0,0-1.576l-6.492-2.6a.85.85,0,0,0-1.165.789V8.2h-1.9a.853.853,0,0,0-.852.852V50.07a.853.853,0,0,0,.852.852h9.409a.853.853,0,0,0,.852-.852V9.049a.853.853,0,0,0-.852-.852Zm-6.02-6.4,4.118,1.647-4.118,1.647Z" transform="translate(-336.012 0)"/>
        <path id="Path_979431" data-name="Path 979431" d="M36.2,201.226h-.449a.746.746,0,0,0-.191,1.467v20.524H27.433V210.964h2a.746.746,0,0,0,.746-.746v-4a2.248,2.248,0,0,0-2.246-2.246h-.5v-1.257h4.836a.746.746,0,1,0,0-1.492h-.712v-1.9a.85.85,0,0,0-.849-.849h-2.5l2.251-2.251a.848.848,0,0,0,0-1.2l-1.8-1.8a.849.849,0,0,0-1.2,0l-2.34,2.34a2.121,2.121,0,0,0-3.943,1.5l.356,1.328a2.123,2.123,0,0,0,.3.652.856.856,0,0,0-.018.173v4.26a4.719,4.719,0,0,0,1.374,3.332v4.033H14.423a.853.853,0,0,0-.852.852v12.158a.853.853,0,0,0,.852.852h9.409a.853.853,0,0,0,.852-.852V213.713h1.257v10.144a.853.853,0,0,0,.852.852H36.2a.853.853,0,0,0,.852-.852V202.078a.853.853,0,0,0-.852-.852Zm-8.266,4.241a.755.755,0,0,1,.754.754v3.252H27.433v-2a.746.746,0,0,0-.746-.746h-.135a3.248,3.248,0,0,1-3.184-2.631h2.574v.628a.746.746,0,0,0,.746.746h1.249Zm2.128-4.241H27.433v-1.257h2.631Zm-2-6.488.889.889-2.643,2.643a1.244,1.244,0,0,0-.367.885V202.6H23.31v-3.111l0,0,1.978-1.978.013-.013Zm-5,1.176a.629.629,0,0,1,.77.444l.105.392-1.026,1.026-.293-1.093A.629.629,0,0,1,23.064,195.913Zm.128,27.3H15.063V212.339h8.129v10.878Zm1.492-11v-4.39a4.694,4.694,0,0,0,1.257.345v4.045H24.684Z" transform="translate(0 -173.787)"/>
        <path id="Path_979432" data-name="Path 979432" d="M206.727,80.49h-1.9v-.764a4.739,4.739,0,0,0-4.734-4.734h-3.686l-.208-.775a2.12,2.12,0,1,0-4.1,1.1l.563,2.1A1.313,1.313,0,0,0,193,78l-3.564,3.564a.85.85,0,0,0,0,1.2l1.8,1.8a.848.848,0,0,0,1.2,0l2.652-2.652v1.97a.85.85,0,0,0,.849.849h.526v30.76a.853.853,0,0,0,.852.852h9.409a.853.853,0,0,0,.852-.852V104.6a.746.746,0,0,0-1.492,0v10.25h-8.129V84.731h8.129v16.386a.746.746,0,0,0,1.492,0V81.338A.849.849,0,0,0,206.727,80.49Zm-7.4.117h1.257v1.878a2.235,2.235,0,0,0,.13.754h-1.387Zm-.117-1.492h-.628a.746.746,0,0,0-.746.746v3.377H196.58v-6.7c0-.019.008-.039.012-.058h2.62Zm-5.223-4.956a.629.629,0,0,1,.77.444c.488,1.823.32,1.2.357,1.332a.628.628,0,0,1-.445.766l-.607.163-.518-1.935A.629.629,0,0,1,193.988,74.159Zm-2.152,8.9-.889-.889,3.993-3.993.148-.04V79.8Zm11,.184a.755.755,0,0,1-.754-.754V79.861a.746.746,0,0,0-.746-.746H200.7V76.542a3.248,3.248,0,0,1,2.631,3.184v1.407a.85.85,0,0,0,.849.849h1.9v1.257h-3.252Z" transform="translate(-158.151 -65.42)"/>
      </g>
    </g>
  </g>
</svg>
