<svg xmlns="http://www.w3.org/2000/svg" xmlns:xlink="http://www.w3.org/1999/xlink" width="108" height="108" viewBox="0 0 108 108">
  <defs>
    <filter id="Fondo" x="0" y="0" width="108" height="108" filterUnits="userSpaceOnUse">
      <feOffset dy="3" input="SourceAlpha"/>
      <feGaussianBlur stdDeviation="3" result="blur"/>
      <feFlood flood-opacity="0.161"/>
      <feComposite operator="in" in2="blur"/>
      <feComposite in="SourceGraphic"/>
    </filter>
  </defs>
  <g id="Group_1144369" data-name="Group 1144369" transform="translate(-1008 -423)">
    <g id="Group_1144361" data-name="Group 1144361">
      <g id="Group_1144255" data-name="Group 1144255">
        <g transform="matrix(1, 0, 0, 1, 1008, 423)" filter="url(#Fondo)">
          <g id="Fondo-2" data-name="Fondo" transform="translate(9 6)" fill="#fff2ee" stroke="#ff8a60" stroke-width="3">
            <circle cx="45" cy="45" r="45" stroke="none"/>
            <circle cx="45" cy="45" r="43.5" fill="none"/>
          </g>
        </g>
        <g id="Group_1144254" data-name="Group 1144254" transform="translate(1036.398 444.924)">
          <g id="Group_1144252" data-name="Group 1144252" transform="translate(0.779 1.308)">
            <g id="Group_1144245" data-name="Group 1144245" transform="translate(22.43 9.037)">
              <g id="Group_1144243" data-name="Group 1144243" transform="translate(11.144 3.641)">
                <path id="Path_979309" data-name="Path 979309" d="M339.727,130.035l-9.141,9.141h12.927c0-.035,0-.069,0-.1A12.638,12.638,0,0,0,339.727,130.035Z" transform="translate(-330.586 -130.035)" fill="#ffd15b"/>
              </g>
              <path id="Path_979310" data-name="Path 979310" d="M402.38,130.035l-1.875,1.875a12.539,12.539,0,0,1,1.714,6.33q0,.472-.035.935h3.982c0-.035,0-.069,0-.1A12.639,12.639,0,0,0,402.38,130.035Z" transform="translate(-382.096 -126.394)" fill="#ffc344"/>
              <path id="Path_979311" data-name="Path 979311" d="M333.8,227.508h5.36A12.708,12.708,0,0,0,344.781,217H332v7.959A5.725,5.725,0,0,1,333.8,227.508Z" transform="translate(-320.71 -204.322)" fill="#fe73c5"/>
              <path id="Path_979312" data-name="Path 979312" d="M349.3,227.508h5.36A12.708,12.708,0,0,0,360.284,217h-3.977a12.757,12.757,0,0,1-7.007,10.5Z" transform="translate(-336.212 -204.322)" fill="#fe4fb7"/>
              <path id="Path_979313" data-name="Path 979313" d="M229.992,100.338a3.1,3.1,0,0,1-1.63,5.744h-1.527v1.324a4.813,4.813,0,0,1-3.488,4.626l1.875,2.333h5.822a5.691,5.691,0,0,1,3.7,1.359v-8.046l8.964-8.964A12.682,12.682,0,0,0,234.742,95a12.511,12.511,0,0,0-4.75.935Z" transform="translate(-223.348 -95)" fill="#5de1c4"/>
              <g id="Group_1144244" data-name="Group 1144244" transform="translate(11.97 0.014)">
                <path id="Path_979314" data-name="Path 979314" d="M338.535,95.131a12.849,12.849,0,0,1,6.493,5.6l1.9-1.9A12.682,12.682,0,0,0,338.535,95.131Z" transform="translate(-338.535 -95.131)" fill="#0ed2b3"/>
              </g>
            </g>
            <g id="Group_1144250" data-name="Group 1144250">
              <path id="Path_979315" data-name="Path 979315" d="M40.433,304.488H10.41a2.91,2.91,0,0,1-2.91-2.91V287.07a5.715,5.715,0,0,1,5.715-5.715H37.627a5.715,5.715,0,0,1,5.715,5.715v14.508a2.91,2.91,0,0,1-2.91,2.91Z" transform="translate(-7.5 -252.953)" fill="#c8effe"/>
              <g id="Group_1144246" data-name="Group 1144246" transform="translate(0 47.368)">
                <path id="Path_979316" data-name="Path 979316" d="M17.675,463.866H7.5v1.258a2.91,2.91,0,0,0,2.91,2.91h7.266Z" transform="translate(-7.5 -463.866)" fill="#99e6fc"/>
              </g>
              <path id="Path_979317" data-name="Path 979317" d="M109.3,435.308h-3.877v7.135h5.436v-5.576A1.559,1.559,0,0,0,109.3,435.308Z" transform="translate(-95.246 -390.908)" fill="#ffdfcf"/>
              <path id="Path_979318" data-name="Path 979318" d="M128.093,258.149h-6.367a4.685,4.685,0,0,1-1.247-.169l-1.953,2.429,2.135,5.207a.52.52,0,0,0,.823.194l3.426-3,3.426,3a.52.52,0,0,0,.823-.194l2.135-5.207-1.953-2.429a4.685,4.685,0,0,1-1.247.169Z" transform="translate(-106.988 -232.007)" fill="#99e6fc"/>
              <path id="Path_979319" data-name="Path 979319" d="M155.461,259.6h-6.394l3.21,4.66,3.21-4.66Z" transform="translate(-134.356 -233.462)" fill="#ffb09e"/>
              <path id="Path_979320" data-name="Path 979320" d="M85.588,8.03h-3.6a9.352,9.352,0,0,0-9.352,9.352v5.159a2.971,2.971,0,0,1,1.63-.485H75.9V20.619a2.448,2.448,0,0,1,2.445-2.445,2.027,2.027,0,0,1,1.092.325,8.105,8.105,0,0,0,8.711,0,2.027,2.027,0,0,1,1.092-.325,2.448,2.448,0,0,1,2.445,2.445v1.437H93.31a2.972,2.972,0,0,1,1.63.485V17.382A9.352,9.352,0,0,0,85.588,8.03Z" transform="translate(-65.867 -8.03)" fill="#ffc344"/>
              <g id="Group_1144247" data-name="Group 1144247" transform="translate(22.695 0.483)">
                <path id="Path_979321" data-name="Path 979321" d="M225.9,12.677v9.781a1.983,1.983,0,0,1,.673-.12,2.448,2.448,0,0,1,2.445,2.445V26.22h1.631a2.972,2.972,0,0,1,1.63.485V21.546a9.356,9.356,0,0,0-6.379-8.869Z" transform="translate(-225.899 -12.677)" fill="#feb237"/>
              </g>
              <g id="Group_1144248" data-name="Group 1144248" transform="translate(5.295 13.913)">
                <path id="Path_979322" data-name="Path 979322" d="M63.2,141.916h-1.64a3.1,3.1,0,1,0,0,6.207H63.2Z" transform="translate(-58.454 -141.916)" fill="#ffcebf"/>
                <path id="Path_979323" data-name="Path 979323" d="M257.46,141.916h-1.64v6.207h1.64a3.1,3.1,0,1,0,0-6.207Z" transform="translate(-235.311 -141.916)" fill="#ffb09e"/>
              </g>
              <path id="Path_979324" data-name="Path 979324" d="M116.454,104.651a2.133,2.133,0,0,0-1.148.342,8,8,0,0,1-8.6,0,2.133,2.133,0,0,0-1.148-.342,2.549,2.549,0,0,0-2.549,2.549v8.854a4.812,4.812,0,0,0,4.812,4.812h6.367A4.812,4.812,0,0,0,119,116.054V107.2A2.549,2.549,0,0,0,116.454,104.651Z" transform="translate(-93.086 -94.611)" fill="#ffdfcf"/>
              <g id="Group_1144249" data-name="Group 1144249" transform="translate(20.907 10.04)">
                <path id="Path_979325" data-name="Path 979325" d="M211.156,104.651a2.082,2.082,0,0,0-.673.114v12.359a4.8,4.8,0,0,1-1.788,3.742h.2a4.812,4.812,0,0,0,4.812-4.812V107.2A2.549,2.549,0,0,0,211.156,104.651Z" transform="translate(-208.695 -104.651)" fill="#ffcebf"/>
              </g>
            </g>
            <path id="Path_979326" data-name="Path 979326" d="M133.839,367.972H124.8a1.559,1.559,0,0,0-1.506,1.155l-2.388,8.913h9.863Z" transform="translate(-109.122 -330.569)" fill="#fff"/>
            <path id="Path_979327" data-name="Path 979327" d="M131.12,367.972l-2.088,6.847a1.039,1.039,0,0,1-.994.736h-6.466l-.666,2.486h9.863l3.07-10.069Z" transform="translate(-109.122 -330.569)" fill="#efedef"/>
            <path id="Path_979328" data-name="Path 979328" d="M109.3,435.308h-3.877v7.135h5.436v-5.576A1.559,1.559,0,0,0,109.3,435.308Z" transform="translate(-95.246 -390.908)" fill="#ffdfcf"/>
            <g id="Group_1144251" data-name="Group 1144251" transform="translate(10.175 32.223)">
              <path id="Path_979329" data-name="Path 979329" d="M116.925,463.866h-9.8a1.7,1.7,0,0,0-1.7,1.7v2.468h10.233Z" transform="translate(-105.421 -448.721)" fill="#6c7fd8"/>
              <path id="Path_979330" data-name="Path 979330" d="M202.848,337.434h24.793a1.7,1.7,0,0,0,1.625-1.2l4.853-15.915a1.7,1.7,0,0,0-1.625-2.194H211.046a3.117,3.117,0,0,0-2.982,2.208Z" transform="translate(-192.724 -318.122)" fill="#a2aee6"/>
              <path id="Path_979331" data-name="Path 979331" d="M232.494,318.123h-2.25l-4.251,13.942a1.7,1.7,0,0,1-1.625,1.2H204.119l-1.271,4.167h24.793a1.7,1.7,0,0,0,1.625-1.2l4.853-15.915A1.7,1.7,0,0,0,232.494,318.123Z" transform="translate(-192.724 -318.123)" fill="#8795de"/>
            </g>
            <ellipse id="Ellipse_11587" data-name="Ellipse 11587" cx="4.691" cy="3.591" rx="4.691" ry="3.591" transform="matrix(0.753, -0.659, 0.659, 0.753, 30.986, 42.52)" fill="#6c7fd8"/>
            <path id="Path_979332" data-name="Path 979332" d="M328.354,374.928a3.733,3.733,0,0,1-.035,1.93,5.742,5.742,0,0,1-5.2,4.1,3.767,3.767,0,0,1-.858-.1,2.965,2.965,0,0,0,3.04,2.175,5.742,5.742,0,0,0,5.2-4.1A3.033,3.033,0,0,0,328.354,374.928Z" transform="translate(-289.548 -336.802)" fill="#4f66d0"/>
          </g>
          <g id="Group_1144253" data-name="Group 1144253" transform="translate(0 0.529)">
            <path id="Path_979333" data-name="Path 979333" d="M144.694,146.134a.779.779,0,0,0,.779-.779v-1.132a.779.779,0,1,0-1.559,0v1.132A.779.779,0,0,0,144.694,146.134Z" transform="translate(-128.96 -128.592)"/>
            <path id="Path_979334" data-name="Path 979334" d="M201.785,146.134a.779.779,0,0,0,.779-.779v-1.132a.779.779,0,1,0-1.559,0v1.132A.779.779,0,0,0,201.785,146.134Z" transform="translate(-180.119 -128.592)"/>
            <path id="Path_979335" data-name="Path 979335" d="M146.478,192.7a3.887,3.887,0,0,0,3.883-3.883.779.779,0,1,0-1.559,0,2.324,2.324,0,0,1-4.648,0,.779.779,0,1,0-1.559,0A3.887,3.887,0,0,0,146.478,192.7Z" transform="translate(-127.777 -168.557)"/>
            <path id="Path_979336" data-name="Path 979336" d="M319.844,366.5a6.483,6.483,0,0,0-5.957,4.682,4.143,4.143,0,0,0,.6,3.629,3.865,3.865,0,0,0,3.161,1.457,6.483,6.483,0,0,0,5.957-4.682h0a4.143,4.143,0,0,0-.6-3.629A3.865,3.865,0,0,0,319.844,366.5Zm2.252,4.682a5,5,0,0,1-4.452,3.527,2.344,2.344,0,0,1-1.924-.847,2.572,2.572,0,0,1-.328-2.276,5,5,0,0,1,4.452-3.527,2.344,2.344,0,0,1,1.924.847A2.572,2.572,0,0,1,322.1,371.182Z" transform="translate(-281.117 -328.47)"/>
            <path id="Path_979337" data-name="Path 979337" d="M52.715,33.755a2.456,2.456,0,0,0-1.992-1H43.9A13.459,13.459,0,0,0,30.62,10.167,10.144,10.144,0,0,0,20.5.529H16.9A10.143,10.143,0,0,0,6.769,10.661v4.622a3.88,3.88,0,0,0,2.409,6.924h.747v.545a5.6,5.6,0,0,0,3,4.954l-.985,1.225H6.495A6.5,6.5,0,0,0,0,35.426V49.934a3.693,3.693,0,0,0,3.689,3.689H45.871a2.465,2.465,0,0,0,2.37-1.755l2.387-7.828a.779.779,0,1,0-1.491-.455L46.75,51.413a.915.915,0,0,1-.88.651H22.13l4.909-16.1a2.326,2.326,0,0,1,2.236-1.656H50.724A.919.919,0,0,1,51.6,35.5l-1.4,4.578a.779.779,0,1,0,1.491.455l1.4-4.578a2.455,2.455,0,0,0-.379-2.2Zm-11.263-1H36.824a6.476,6.476,0,0,0-1.442-2.029V23.8h4.1a.779.779,0,1,0,0-1.559h-3l7.06-7.06a11.849,11.849,0,0,1,2.93,7.06H43.124a.779.779,0,0,0,0,1.559h3.351a11.894,11.894,0,0,1-5.023,8.949Zm.991-18.671-8.391,8.391a.777.777,0,0,0-.228.551v6.6a6.477,6.477,0,0,0-2.918-.694H25.458l-.985-1.225a5.6,5.6,0,0,0,3-4.954v-.545h.747a3.88,3.88,0,0,0,2.409-6.924V11.805a11.894,11.894,0,0,1,11.811,2.276ZM24.189,29.841l-1.822,4.445-2.631-2.3,2.515-3.651a5.586,5.586,0,0,0,.657-.082Zm-5.488.9-1.648-2.393h3.3ZM30.547,18.325a2.327,2.327,0,0,1-2.324,2.324h-.747V16h.747A2.327,2.327,0,0,1,30.547,18.325ZM8.327,10.661A8.583,8.583,0,0,1,16.9,2.088h3.6a8.583,8.583,0,0,1,8.573,8.573v3.876a3.882,3.882,0,0,0-.85-.095h-.747V13.9a3.332,3.332,0,0,0-3.328-3.328,2.909,2.909,0,0,0-1.567.464,7.221,7.221,0,0,1-7.759,0,2.909,2.909,0,0,0-1.567-.464A3.332,3.332,0,0,0,9.925,13.9v.544H9.178a3.875,3.875,0,0,0-.85.095V10.661Zm.85,9.988a2.324,2.324,0,1,1,0-4.648h.747v4.648Zm2.306,2.1V13.9a1.772,1.772,0,0,1,1.77-1.77,1.353,1.353,0,0,1,.728.219,8.781,8.781,0,0,0,9.438,0,1.353,1.353,0,0,1,.728-.219,1.772,1.772,0,0,1,1.77,1.77v8.854a4.038,4.038,0,0,1-4.033,4.033H15.517A4.038,4.038,0,0,1,11.484,22.752Zm3.666,5.578,2.515,3.651-2.631,2.3-1.822-4.445,1.28-1.592A5.581,5.581,0,0,0,15.15,28.331ZM13.384,46.488h1.448a.78.78,0,0,1,.779.779v.63H12.654a2.464,2.464,0,0,0-.919.178V46.488Zm-1.65,3.887a.921.921,0,0,1,.919-.92H21.3l-.8,2.609H11.734V50.375ZM25.548,35.512l-.738,2.42H16.458A2.341,2.341,0,0,0,14.2,39.665l-.137.51a.779.779,0,1,0,1.506.4l.137-.51a.781.781,0,0,1,.753-.578h7.877L21.772,47.9h-4.6v-.63a2.341,2.341,0,0,0-2.338-2.338H14.4l.191-.713a.779.779,0,0,0-1.506-.4l-.3,1.117H7.162V37.89a.779.779,0,1,0-1.559,0v7.819a.779.779,0,0,0,.779.779h3.793v5.576H3.689a2.133,2.133,0,0,1-2.13-2.13V35.426A4.942,4.942,0,0,1,6.495,30.49h5.3l1.936,4.724a1.3,1.3,0,0,0,2.058.484L18.7,33.147,21.613,35.7a1.3,1.3,0,0,0,2.058-.484l1.936-4.724h5.3a4.945,4.945,0,0,1,4.149,2.262h-5.78a3.876,3.876,0,0,0-3.727,2.76Z" transform="translate(0 -0.529)"/>
          </g>
        </g>
      </g>
    </g>
  </g>
</svg>
