<svg xmlns="http://www.w3.org/2000/svg" xmlns:xlink="http://www.w3.org/1999/xlink" width="108" height="108" viewBox="0 0 108 108">
  <defs>
    <filter id="Fondo" x="0" y="0" width="108" height="108" filterUnits="userSpaceOnUse">
      <feOffset dy="3" input="SourceAlpha"/>
      <feGaussianBlur stdDeviation="3" result="blur"/>
      <feFlood flood-opacity="0.161"/>
      <feComposite operator="in" in2="blur"/>
      <feComposite in="SourceGraphic"/>
    </filter>
  </defs>
  <g id="Group_1144371" data-name="Group 1144371" transform="translate(-483 -1627.334)">
    <g id="Group_1144363" data-name="Group 1144363">
      <g id="Group_1144257" data-name="Group 1144257">
        <g transform="matrix(1, 0, 0, 1, 483, 1627.33)" filter="url(#Fondo)">
          <g id="Fondo-2" data-name="Fondo" transform="translate(9 6)" fill="#fff2ee" stroke="#ff8a60" stroke-width="3">
            <circle cx="45" cy="45" r="45" stroke="none"/>
            <circle cx="45" cy="45" r="43.5" fill="none"/>
          </g>
        </g>
        <g id="Group_1144256" data-name="Group 1144256" transform="translate(459.47 1635.898)">
          <path id="Path_979338" data-name="Path 979338" d="M160,24h28.2a3.525,3.525,0,0,1,3.525,3.525V31.05H160Z" transform="translate(-92.544 -7.119)" fill="#dadcde"/>
          <path id="Path_979339" data-name="Path 979339" d="M102.773,24H67.525A3.525,3.525,0,0,0,64,27.525V75.11H99.248V27.525A3.525,3.525,0,0,1,102.773,24Z" transform="translate(-7.119 -7.119)" fill="#e9eef2"/>
          <path id="Path_979340" data-name="Path 979340" d="M247.739,235.471l-2.537-2.537a3.191,3.191,0,0,0-4.513,0l-12.722,12.722a7.05,7.05,0,0,0-1.816,3.13L224,256.674l7.887-2.151a7.05,7.05,0,0,0,3.13-1.816l12.722-12.722a3.191,3.191,0,0,0,0-4.513Z" transform="translate(-149.495 -192.207)" fill="#fbe9d8"/>
          <path id="Path_979341" data-name="Path 979341" d="M229.538,409.747,224,411.258l1.511-5.538Z" transform="translate(-149.495 -346.792)" fill="#6a7073"/>
          <path id="Path_979342" data-name="Path 979342" d="M277.183,271.05l-10.132,10.132,0,0-7.05-7.05,0,0L270.134,264Z" transform="translate(-181.529 -220.683)" fill="#3397e8"/>
          <path id="Path_979343" data-name="Path 979343" d="M0,0H14.955V3.739H0Z" transform="translate(80.667 55.654) rotate(-45)" fill="#2978b8"/>
          <path id="Path_979344" data-name="Path 979344" d="M359.1,232.935l2.537,2.537a3.191,3.191,0,0,1,0,4.513l-2.59,2.59-7.05-7.05,2.59-2.59a3.191,3.191,0,0,1,4.513,0Z" transform="translate(-263.395 -192.207)" fill="#eb423f"/>
          <path id="Path_979345" data-name="Path 979345" d="M0,0H2.492V9.97H0Z" transform="translate(88.597 43.319) rotate(-45)" fill="#ffd33a"/>
          <path id="Path_979346" data-name="Path 979346" d="M112,88h7.05v7.05H112Z" transform="translate(-49.832 -64.069)" fill="#eb423f"/>
          <path id="Path_979347" data-name="Path 979347" d="M112,200h7.05v7.05H112Z" transform="translate(-49.832 -163.732)" fill="#3397e8"/>
          <path id="Path_979348" data-name="Path 979348" d="M224,200h7.05v7.05H224Z" transform="translate(-149.495 -163.732)" fill="#c3c6c7"/>
          <path id="Path_979349" data-name="Path 979349" d="M112,312h7.05v7.05H112Z" transform="translate(-49.832 -263.395)" fill="#ffd33a"/>
          <path id="Path_979350" data-name="Path 979350" d="M99.179,24.812a.881.881,0,0,0,.881-.881V20.406A4.411,4.411,0,0,0,95.654,16H60.406A4.411,4.411,0,0,0,56,20.406V67.991a.881.881,0,0,0,.881.881H92.129a.881.881,0,0,0,.881-.881V54.257L98.867,48.4a4.072,4.072,0,0,0,0-5.759L96.331,40.1a4.046,4.046,0,0,0-2.88-1.193,4.146,4.146,0,0,0-.441.024V24.812Zm-3.525-7.05A2.647,2.647,0,0,1,98.3,20.406V23.05H93.011V20.406A2.647,2.647,0,0,1,95.654,17.762ZM76.466,60.624l1.881,1.881-2.586.7Zm3.839,1.347L77,58.666l.506-1.855a6.179,6.179,0,0,1,1.01-2.068l5.712,5.712a6.178,6.178,0,0,1-2.068,1.01Zm8.3-17.407.957.957-8.887,8.887-.957-.957ZM81.92,55.654l8.887-8.887,1.4,1.4-8.887,8.887Zm7.931-12.337.516-.516,5.8,5.8-.516.516ZM85.52,59.254l-.957-.957,8.887-8.887.957.957Zm9.564-17.9,2.537,2.537a2.31,2.31,0,0,1,0,3.267l-.2.2-5.8-5.8.2-.2A2.31,2.31,0,0,1,95.084,41.35ZM90.571,40.1,77.849,52.826a7.946,7.946,0,0,0-2.043,3.521l-1.973,7.237h-9.9a.881.881,0,0,1,0-1.762h1.762a.881.881,0,0,0,.881-.881V56.535h2.644a.881.881,0,0,0,.881-.881V48.6a.881.881,0,0,0-.881-.881H66.574V44.2h2.644a.881.881,0,0,0,.881-.881V40.674h3.525v2.644a.881.881,0,0,0,.881.881h7.05a.881.881,0,0,0,.881-.881v-7.05a.881.881,0,0,0-.881-.881h-7.05a.881.881,0,0,0-.881.881v2.644H70.1V36.268a.881.881,0,0,0-.881-.881H66.574V31.862h2.644a.881.881,0,0,0,.881-.881v-7.05a.881.881,0,0,0-.881-.881h-7.05a.881.881,0,0,0-.881.881v7.05a.881.881,0,0,0,.881.881h2.644v3.525H62.168a.881.881,0,0,0-.881.881v7.05a.881.881,0,0,0,.881.881h2.644v3.525H62.168a.881.881,0,0,0-.881.881v7.05a.881.881,0,0,0,.881.881h2.644V60.06h-.881a2.644,2.644,0,0,0,0,5.287H74.505a.878.878,0,0,0,.231-.031l7.887-2.151a7.946,7.946,0,0,0,3.521-2.043l5.1-5.1V67.11H57.762v-46.7a2.647,2.647,0,0,1,2.644-2.644H92.131a4.383,4.383,0,0,0-.883,2.644V39.558A4.113,4.113,0,0,0,90.571,40.1ZM68.337,49.486v5.287H63.05V49.486Zm0-12.337v5.287H63.05V37.149Zm7.05,5.287V37.149h5.287v5.287ZM63.05,30.1V24.812h5.287V30.1Z"/>
          <path id="Path_979351" data-name="Path 979351" d="M232.881,81.762h3.525a.881.881,0,1,0,0-1.762h-3.525a.881.881,0,1,0,0,1.762Z" transform="translate(-156.614 -56.95)"/>
          <path id="Path_979352" data-name="Path 979352" d="M229.218,112H216.881a.881.881,0,0,0,0,1.762h12.337a.881.881,0,0,0,0-1.762Z" transform="translate(-142.376 -85.426)"/>
          <path id="Path_979353" data-name="Path 979353" d="M229.218,144H216.881a.881.881,0,0,0,0,1.762h12.337a.881.881,0,0,0,0-1.762Z" transform="translate(-142.376 -113.901)"/>
          <path id="Path_979354" data-name="Path 979354" d="M300.406,80h-3.525a.881.881,0,0,0,0,1.762h3.525a.881.881,0,0,0,0-1.762Z" transform="translate(-213.564 -56.95)"/>
        </g>
      </g>
    </g>
  </g>
</svg>
