<svg xmlns="http://www.w3.org/2000/svg" xmlns:xlink="http://www.w3.org/1999/xlink" width="108" height="108" viewBox="0 0 108 108">
  <defs>
    <filter id="Fondo" x="0" y="0" width="108" height="108" filterUnits="userSpaceOnUse">
      <feOffset dy="3" input="SourceAlpha"/>
      <feGaussianBlur stdDeviation="3" result="blur"/>
      <feFlood flood-opacity="0.161"/>
      <feComposite operator="in" in2="blur"/>
      <feComposite in="SourceGraphic"/>
    </filter>
  </defs>
  <g id="Group_1144336" data-name="Group 1144336" transform="translate(-834 -1002)">
    <g id="Group_1144132" data-name="Group 1144132">
      <g id="Icono" transform="translate(843.499 313)">
        <g transform="matrix(1, 0, 0, 1, -9.5, 689)" filter="url(#Fondo)">
          <g id="Fondo-2" data-name="Fondo" transform="translate(9 6)" fill="#fff2ee" stroke="#ff8a60" stroke-width="3">
            <circle cx="45" cy="45" r="45" stroke="none"/>
            <circle cx="45" cy="45" r="43.5" fill="none"/>
          </g>
        </g>
      </g>
      <g id="Group_1144131" data-name="Group 1144131" transform="translate(853.501 1024.784)">
        <g id="Group_1144122" data-name="Group 1144122" transform="translate(24.735 6.079)">
          <path id="Path_979008" data-name="Path 979008" d="M198.133,59.638A15.338,15.338,0,1,0,195.545,83.4a16.743,16.743,0,0,1,2.729-2.571c.985-.85,1.013-1.928,1.013-3.187a3.359,3.359,0,1,0-6.715.122,2.752,2.752,0,1,1-5.5,0,8.857,8.857,0,0,1,15.5-5.98,15.3,15.3,0,0,0-4.436-12.147Z" transform="translate(-171.941 -55.148)" fill="#99ebfa" fill-rule="evenodd"/>
        </g>
        <g id="Group_1144123" data-name="Group 1144123" transform="translate(19.754 1.102)">
          <path id="Path_979009" data-name="Path 979009" d="M132.709,15.941a20.312,20.312,0,0,0,20.271,33.8c.047-2.381.394-3.274,1.776-5.63a8.522,8.522,0,0,1,.585-.884,15.331,15.331,0,1,1,7.025-11.616,8.816,8.816,0,0,1,2.217,5.858,11.5,11.5,0,0,1-.653,4.193A20.311,20.311,0,0,0,147.106,9.992h-.053a20.255,20.255,0,0,0-14.344,5.949Z" transform="translate(-126.756 -9.992)" fill="#33d6f5" fill-rule="evenodd"/>
        </g>
        <g id="Group_1144124" data-name="Group 1144124" transform="translate(18.719 29.748)">
          <path id="Path_979010" data-name="Path 979010" d="M118.4,271.681a3.569,3.569,0,0,0-.084,4.952c.028.031.056.059.084.091l5.146,5.143c.028.028.059.056.088.084a3.585,3.585,0,0,0,4.958-.084l1.779-1.781A20.371,20.371,0,0,1,120.186,269.9Z" transform="translate(-117.362 -269.9)" fill="#ffcd69" fill-rule="evenodd"/>
        </g>
        <g id="Group_1144125" data-name="Group 1144125" transform="translate(14.49 36.481)">
          <path id="Path_979011" data-name="Path 979011" d="M84.176,330.986l-5.187,5.183,5.321,5.314,5.183-5.18c-.028-.028-.059-.056-.088-.084l-5.146-5.143C84.232,331.045,84.2,331.017,84.176,330.986Z" transform="translate(-78.989 -330.986)" fill="#ebddd9" fill-rule="evenodd"/>
        </g>
        <g id="Group_1144126" data-name="Group 1144126" transform="translate(11.432 41.665)">
          <path id="Path_979012" data-name="Path 979012" d="M54.305,378.013l-3.057,3.056,5.321,5.318,3.058-3.059Z" transform="translate(-51.248 -378.013)" fill="#99ebfa" fill-rule="evenodd"/>
        </g>
        <g id="Group_1144127" data-name="Group 1144127" transform="translate(7.602 44.72)">
          <path id="Path_979013" data-name="Path 979013" d="M20.331,405.736,17.6,408.467a3.76,3.76,0,0,0,5.318,5.318l2.736-2.731Z" transform="translate(-16.501 -405.736)" fill="#ebddd9" fill-rule="evenodd"/>
        </g>
        <g id="Group_1144128" data-name="Group 1144128" transform="translate(45.972 49.831)">
          <path id="Path_979014" data-name="Path 979014" d="M367.374,452.11a2.749,2.749,0,1,0,2.751,2.749A2.75,2.75,0,0,0,367.374,452.11Z" transform="translate(-364.623 -452.11)" fill="#ffcd69" fill-rule="evenodd"/>
        </g>
        <g id="Group_1144129" data-name="Group 1144129" transform="translate(39.866 19.719)">
          <path id="Path_979015" data-name="Path 979015" d="M317.114,194.4c-1.382,2.356-1.729,3.249-1.776,5.63,0,.213-.006.434-.006.672a2.751,2.751,0,0,0,5.5,0,5.005,5.005,0,0,1,1.025-3.524,9.174,9.174,0,0,1,2.167-2.075,7.816,7.816,0,0,0,2.26-3.149v0a11.5,11.5,0,0,0,.653-4.193,8.857,8.857,0,1,0-17.714.122,2.752,2.752,0,1,0,5.5,0,3.359,3.359,0,1,1,6.715-.122c0,1.259-.028,2.337-1.013,3.187a16.748,16.748,0,0,0-2.729,2.571,8.541,8.541,0,0,0-.585.884Z" transform="translate(-309.226 -178.908)" fill="#ffcd69" fill-rule="evenodd"/>
        </g>
        <g id="Group_1144130" data-name="Group 1144130" transform="translate(6.5 0)">
          <path id="Path_979016" data-name="Path 979016" d="M358.476,442.11a3.852,3.852,0,1,0,3.853,3.852A3.857,3.857,0,0,0,358.476,442.11Zm0,5.5a1.647,1.647,0,1,1,1.649-1.647A1.65,1.65,0,0,1,358.476,447.609Z" transform="translate(-316.253 -393.381)"/>
          <path id="Path_979017" data-name="Path 979017" d="M55.227,6.271A21.2,21.2,0,0,0,42.58.144,21.543,21.543,0,0,0,29.08,3.03a1.1,1.1,0,1,0,1.132,1.891A19.223,19.223,0,0,1,58.526,26.813a9.917,9.917,0,0,0-2.032-4.459A16.447,16.447,0,1,0,45.623,36.879,8.611,8.611,0,0,0,44.911,40,19.254,19.254,0,0,1,22.585,29.392a1.093,1.093,0,0,0-.082-.184,19.14,19.14,0,0,1,1.1-17.7,1.1,1.1,0,1,0-1.888-1.138A21.513,21.513,0,0,0,20.228,29.5l-1.246,1.245a4.681,4.681,0,0,0-.751,5.619l-4.52,4.517h0l-3.054,3.052,0,0,0,0L7.92,46.671A4.862,4.862,0,0,0,14.8,53.548l2.7-2.7.031-.028c.01-.01.018-.02.027-.03l7.548-7.543a4.679,4.679,0,0,0,5.624-.75l1.252-1.253a21.406,21.406,0,0,0,12.958,1.022,3.853,3.853,0,0,0,7.634-.745,4,4,0,0,1,.874-2.967A5.1,5.1,0,0,1,54.74,37.28c.213-.168.432-.341.647-.527a9,9,0,0,0,2.533-3.488A21.417,21.417,0,0,0,55.227,6.271ZM19.81,45.421l-3.761-3.757,3.624-3.622,3.76,3.758Zm-3.059,3.057-3.76-3.758,1.5-1.5,3.761,3.757ZM13.238,51.99A2.658,2.658,0,0,1,9.479,48.23l1.953-1.952,3.76,3.758ZM29.173,40.935a2.47,2.47,0,0,1-3.488,0L20.54,35.792a2.472,2.472,0,0,1,0-3.483l.69-.69a21.589,21.589,0,0,0,8.639,8.619Zm.833-9.463a14.236,14.236,0,1,1,24.268-11.16,9.931,9.931,0,0,0-12.6,1.241A10.074,10.074,0,0,0,38.764,28.7a3.854,3.854,0,1,0,7.7,0,2.293,2.293,0,0,1,2.256-2.375,2.257,2.257,0,0,1,2.255,2.253c0,1.257-.06,1.86-.632,2.353-.255.221-.5.421-.73.615A12.826,12.826,0,0,0,47.593,33.5,14.331,14.331,0,0,1,30.006,31.471Zm23.938,3.615c-.177.153-.367.3-.569.463a6.908,6.908,0,0,0-1.826,1.887,6.026,6.026,0,0,0-1.177,4.082,1.649,1.649,0,0,1-3.3,0c0-.233,0-.451.006-.656,0,0,0-.008,0-.011.045-2.2.36-2.92,1.624-5.077a8.616,8.616,0,0,1,2.32-2.535c.242-.2.493-.409.764-.643a4.753,4.753,0,0,0,1.4-4.021,4.461,4.461,0,1,0-8.92.122,1.652,1.652,0,1,1-3.295,0,7.755,7.755,0,1,1,15.509-.122c0,3.069-.734,4.956-2.533,6.512Z" transform="translate(-6.5 0)"/>
          <path id="Path_979018" data-name="Path 979018" d="M171.843,56.169a1.1,1.1,0,1,0-.777-1.882l0,0a1.1,1.1,0,0,0,.78,1.879Z" transform="translate(-152.638 -48.016)"/>
        </g>
      </g>
    </g>
  </g>
</svg>
