<svg xmlns="http://www.w3.org/2000/svg" xmlns:xlink="http://www.w3.org/1999/xlink" width="108" height="108" viewBox="0 0 108 108">
  <defs>
    <filter id="Fondo" x="0" y="0" width="108" height="108" filterUnits="userSpaceOnUse">
      <feOffset dy="3" input="SourceAlpha"/>
      <feGaussianBlur stdDeviation="3" result="blur"/>
      <feFlood flood-opacity="0.161"/>
      <feComposite operator="in" in2="blur"/>
      <feComposite in="SourceGraphic"/>
    </filter>
  </defs>
  <g id="Group_1144381" data-name="Group 1144381" transform="translate(-1165.999 -6137)">
    <g id="Group_1144380" data-name="Group 1144380">
      <g id="Group_1144313" data-name="Group 1144313">
        <g transform="matrix(1, 0, 0, 1, 1166, 6137)" filter="url(#Fondo)">
          <g id="Fondo-2" data-name="Fondo" transform="translate(9 6)" fill="#fff2ee" stroke="#ff8a60" stroke-width="3">
            <circle cx="45" cy="45" r="45" stroke="none"/>
            <circle cx="45" cy="45" r="43.5" fill="none"/>
          </g>
        </g>
        <g id="Group_1144312" data-name="Group 1144312" transform="translate(1195.287 6159.582)">
          <g id="Group_1144311" data-name="Group 1144311" transform="translate(1.709 1.82)">
            <g id="Group_1144295" data-name="Group 1144295" transform="translate(8.199 24.598)">
              <path id="Path_979433" data-name="Path 979433" d="M15.55,33.369,16.92,40.2l-1.3,2.165a4,4,0,0,0-1.976-.525,3.912,3.912,0,0,0-.623.049L12,40.2l1.369-6.83L14.46,32Z" transform="translate(-12 -32)" fill="#ff826e"/>
            </g>
            <g id="Group_1144296" data-name="Group 1144296" transform="translate(11.75 21.605)">
              <path id="Path_979434" data-name="Path 979434" d="M23.545,31.015a9.118,9.118,0,0,0-4.313-2.665l-.713,7.092-2.189-2.73,1.369,6.83-1.3,2.165a3.977,3.977,0,0,1,1.265,1.142l6.447-.027.667-1.837A4.614,4.614,0,0,1,25.9,39.247V37.123a9.087,9.087,0,0,0-2.353-6.109Z" transform="translate(-16.33 -28.35)" fill="#e6e9ed"/>
            </g>
            <g id="Group_1144297" data-name="Group 1144297" transform="translate(0 21.605)">
              <path id="Path_979435" data-name="Path 979435" d="M11.569,32.712,10.2,39.542l1.017,1.689a3.92,3.92,0,0,0-2.591,1.591H2v-5.7A9.108,9.108,0,0,1,8.666,28.35l.713,7.092Z" transform="translate(-2 -28.35)" fill="#e6e9ed"/>
            </g>
            <g id="Group_1144298" data-name="Group 1144298" transform="translate(10.659 21.318)">
              <path id="Path_979436" data-name="Path 979436" d="M18.993,28.287l-.713,7.092-2.189-2.73L15,31.28,17.46,28a8.583,8.583,0,0,1,1.533.287Z" transform="translate(-15 -28)" fill="#ccd1d9"/>
            </g>
            <g id="Group_1144299" data-name="Group 1144299" transform="translate(6.666 21.318)">
              <path id="Path_979437" data-name="Path 979437" d="M11.663,28l2.46,3.28-1.091,1.369-2.189,2.73-.713-7.092A8.583,8.583,0,0,1,11.663,28Z" transform="translate(-10.13 -28)" fill="#ccd1d9"/>
            </g>
            <g id="Group_1144300" data-name="Group 1144300" transform="translate(1.64)">
              <path id="Path_979438" data-name="Path 979438" d="M15.791,2.8A3.279,3.279,0,1,1,17.939,8.56h-4.92a2.457,2.457,0,0,0-2.46,2.46v1.64l-.32.164a2.379,2.379,0,0,0-.623,3.813l.943.943v3.28l-1.23-.615A9.643,9.643,0,0,1,4,11.618v-.139A9.662,9.662,0,0,1,8.534,3.263l.336-.2a6.933,6.933,0,0,1,6.92-.254Z" transform="translate(-4 -2)" fill="#656d78"/>
            </g>
            <g id="Group_1144301" data-name="Group 1144301" transform="translate(31.773 33.617)">
              <path id="Path_979439" data-name="Path 979439" d="M54.017,45.066l4.157,13.513H43.415l-2.665-7.33,1.9-6.174c.517,1.345.968,2.845,1.992,2.845,1.845,0,1.845-4.92,3.682-4.92,1.853,0,1.853,4.92,3.7,4.92,1.017,0,1.476-1.509,1.992-2.853Z" transform="translate(-40.75 -43)" fill="#cf9e76"/>
            </g>
            <g id="Group_1144302" data-name="Group 1144302" transform="translate(16.833 36.077)">
              <path id="Path_979440" data-name="Path 979440" d="M37.469,51.789l2.665,7.33H25.375l-2.845-5.7,2.009-5.535c.549,1.386,1,3.034,2.066,3.034,1.845,0,1.845-4.92,3.682-4.92,1.853,0,1.853,4.92,3.7,4.92,1.066,0,1.517-1.648,2.066-3.034Z" transform="translate(-22.53 -46)" fill="#cf9e76"/>
            </g>
            <g id="Group_1144303" data-name="Group 1144303" transform="translate(0 39.357)">
              <path id="Path_979441" data-name="Path 979441" d="M18.833,54.141l2.845,5.7H2l4.255-8.511c.672,1.459,1.091,3.591,2.3,3.591C10.4,54.92,10.4,50,12.249,50s1.845,4.92,3.69,4.92c.984,0,1.443-1.394,1.935-2.689Z" transform="translate(-2 -50)" fill="#cf9e76"/>
            </g>
            <g id="Group_1144304" data-name="Group 1144304" transform="translate(33.675 27.878)">
              <path id="Path_979442" data-name="Path 979442" d="M53,39.132l1.435,4.674c-.517,1.345-.976,2.853-1.992,2.853-1.845,0-1.845-4.92-3.7-4.92-1.837,0-1.837,4.92-3.682,4.92-1.025,0-1.476-1.5-1.992-2.845L44.5,39.132a4.446,4.446,0,0,1,8.495,0Z" transform="translate(-43.07 -36)" fill="#b4dd7f"/>
            </g>
            <g id="Group_1144305" data-name="Group 1144305" transform="translate(39.357 6.56)">
              <path id="Path_979443" data-name="Path 979443" d="M58.2,14.92,50,19.839V10Z" transform="translate(-50 -10)" fill="#ff826e"/>
            </g>
            <g id="Group_1144306" data-name="Group 1144306" transform="translate(14.759 4.92)">
              <path id="Path_979444" data-name="Path 979444" d="M38.949,10.091a1.333,1.333,0,0,1,0,2.378l-4.19,2.091V12.92H22.46V12.1A2.457,2.457,0,0,0,20,9.64H34.759V8Z" transform="translate(-20 -8)" fill="#ffeaa7"/>
            </g>
            <g id="Group_1144307" data-name="Group 1144307" transform="translate(13.119 16.399)">
              <path id="Path_979445" data-name="Path 979445" d="M38.589,24.091a1.333,1.333,0,0,1,0,2.378L34.4,28.56V26.92H18V24.46h.82a2.4,2.4,0,0,0,1.828-.828l.008.008H34.4V22Z" transform="translate(-18 -22)" fill="#ffeaa7"/>
            </g>
            <g id="Group_1144308" data-name="Group 1144308" transform="translate(18.842 31.158)">
              <path id="Path_979446" data-name="Path 979446" d="M35.139,43.083l1.353,3.723c-.549,1.386-1,3.034-2.066,3.034-1.845,0-1.845-4.92-3.7-4.92-1.837,0-1.837,4.92-3.682,4.92-1.066,0-1.517-1.648-2.066-3.034l1.353-3.723a4.614,4.614,0,0,1,1.123-1.738v-.008a4.683,4.683,0,0,1,7.683,1.746Z" transform="translate(-24.98 -40)" fill="#b4dd7f"/>
            </g>
            <g id="Group_1144309" data-name="Group 1144309" transform="translate(6.56 6.56)">
              <path id="Path_979447" data-name="Path 979447" d="M16.56,22.3v2.46l-2.46,3.28-2.46-3.28v-5.74l-.943-.943a2.379,2.379,0,0,1,.623-3.813l.32-.164V12.46A2.457,2.457,0,0,1,14.1,10h4.1a2.457,2.457,0,0,1,2.46,2.46v.894a2.55,2.55,0,0,0,.41,1.369l1.017,1.517a1.259,1.259,0,0,1-1.05,1.96h-1.2v1.64a2.482,2.482,0,0,1-2.46,2.46Z" transform="translate(-10 -10)" fill="#f0d0b4"/>
            </g>
            <g id="Group_1144310" data-name="Group 1144310" transform="translate(4.255 34.437)">
              <path id="Path_979448" data-name="Path 979448" d="M16.332,46.2l2.476,4.952c-.492,1.3-.951,2.689-1.935,2.689-1.845,0-1.845-4.92-3.69-4.92s-1.845,4.92-3.69,4.92c-1.214,0-1.632-2.132-2.3-3.591V50.24L9.215,46.2a3.514,3.514,0,0,1,.344-.558,3.92,3.92,0,0,1,2.591-1.591A3.912,3.912,0,0,1,12.774,44a4,4,0,0,1,1.976.525A3.947,3.947,0,0,1,16.332,46.2Z" transform="translate(-7.19 -44)" fill="#b4dd7f"/>
            </g>
          </g>
          <path id="Path_979449" data-name="Path 979449" d="M52.015,51.836,46.094,32.591a5.229,5.229,0,0,0-4.209-3.648V18.683L50.858,13.3,41.886,7.915v-2h-1.64V28.943a5.229,5.229,0,0,0-4.209,3.648L33.416,41.11l-1.938-5.331a5.491,5.491,0,0,0-7.631-3.035V32.2a9.888,9.888,0,0,0-4.387-8.24H30.406V26.1l5.374-2.686a2.148,2.148,0,0,0,0-3.841l-5.373-2.686v2.147H18.812a3.293,3.293,0,0,0,.116-.82V17.4h.381a2.079,2.079,0,0,0,1.729-3.232l-1.014-1.522a1.8,1.8,0,0,1-.079-.166H30.406v2.147L35.78,11.94a2.148,2.148,0,0,0,0-3.841L30.406,5.413V7.56H20.546a4.057,4.057,0,0,0,.841-2.46,4.092,4.092,0,0,0-6.35-3.42,7.905,7.905,0,0,0-7.254.5l-.335.21a10.435,10.435,0,0,0-4.919,8.9v.143A10.411,10.411,0,0,0,8.315,20.8l.773.386v1.237A9.891,9.891,0,0,0,.889,32.2v6.519H6.942L.382,51.836ZM3.035,50.2l2.844-5.688c.484,1.225,1.1,2.408,2.388,2.408,1.491,0,2.087-1.589,2.613-2.992C11.131,43.251,11.6,42,11.955,42s.826,1.255,1.078,1.928c.526,1.4,1.123,2.991,2.614,2.991a2.3,2.3,0,0,0,2-1.541l2.411,4.82Zm7.739-15.729L12.04,28.14l.328-.41.328.41,1.265,6.327L13.2,35.738a4.812,4.812,0,0,0-1.651-.3c-.062,0-.122.011-.184.013ZM9.545,24.02,11.331,26.4,9.7,28.435,9.267,24.06c.091-.016.185-.025.278-.04Zm5.646,0c.093.014.187.024.278.041l-.438,4.375L13.4,26.4ZM11.548,37.077a3.141,3.141,0,0,1,2.826,1.747l2.313,4.626c-.26.69-.7,1.826-1.04,1.826-.355,0-.826-1.254-1.077-1.928-.526-1.4-1.123-2.992-2.615-2.992S9.87,41.946,9.343,43.348c-.252.675-.722,1.928-1.077,1.928s-.823-1.254-1.076-1.928c-.1-.28-.212-.554-.321-.82l1.852-3.7a3.141,3.141,0,0,1,2.826-1.747Zm6.872,6.171-2.265-4.531h3.913Zm1.01,2.02L20.6,42.062a2.319,2.319,0,0,0,2.017,1.575c1.491,0,2.087-1.589,2.613-2.991.252-.675.722-1.928,1.077-1.928s.826,1.254,1.077,1.928c.526,1.4,1.123,2.991,2.614,2.991a2.325,2.325,0,0,0,2.022-1.579l2.96,8.139H21.894ZM47.672,13.3l-5.786,3.472V9.827ZM37.6,33.074a3.621,3.621,0,0,1,6.922,0l1.355,4.4-.049.13c-.271.722-.724,1.929-1.08,1.929s-.826-1.254-1.077-1.928c-.526-1.4-1.123-2.991-2.614-2.991s-2.087,1.589-2.613,2.991c-.252.675-.722,1.928-1.077,1.928s-.822-1.254-1.075-1.928l-.048-.129Zm-2.1,6.812a2.149,2.149,0,0,0,1.863,1.291c1.491,0,2.087-1.589,2.613-2.991.252-.675.722-1.928,1.077-1.928s.826,1.254,1.077,1.928c.526,1.4,1.123,2.991,2.614,2.991a2.152,2.152,0,0,0,1.868-1.3L49.795,50.2H36.72l-2.375-6.529ZM29.937,36.34l1.248,3.433c-.038.1-.075.2-.112.294C30.8,40.789,30.35,42,29.994,42s-.826-1.254-1.077-1.928c-.526-1.4-1.123-2.991-2.614-2.991s-2.087,1.589-2.613,2.991c-.252.675-.722,1.928-1.077,1.928s-.822-1.253-1.075-1.927c-.037-.1-.075-.2-.112-.294l1.25-3.437a3.864,3.864,0,0,1,7.261,0ZM22.207,32.2v1.819a5.461,5.461,0,0,0-1.072,1.762l-.471,1.3H15.156a4.807,4.807,0,0,0-.53-.527l1.069-1.783-.768-3.84L16.263,32.6l.807-8.067A8.255,8.255,0,0,1,22.207,32.2Zm9.839-11.52V19.545l3,1.5a.506.506,0,0,1,0,.907l-3,1.5V22.318h-16.4V21.5h0a3.245,3.245,0,0,0,2.147-.82ZM19.309,15.76H17.287v2.459a1.639,1.639,0,0,1-1.639,1.64H12.368V21.5h1.64v1.367l-1.64,2.186-1.64-2.186V17.059L9.546,15.878a1.564,1.564,0,0,1,.405-2.5l.776-.387V10.839a1.642,1.642,0,0,1,1.64-1.64h4.1a1.642,1.642,0,0,1,1.64,1.64v.9a3.273,3.273,0,0,0,.551,1.819l1.015,1.523a.434.434,0,0,1,.074.244.439.439,0,0,1-.439.439ZM32.046,9.2V8.066l3,1.5a.506.506,0,0,1,0,.907l-3,1.5V10.839h-12.3a3.246,3.246,0,0,0-.456-1.64Zm-23,10.133a8.778,8.778,0,0,1-4.879-7.9v-.143A8.8,8.8,0,0,1,8.317,3.781l.335-.21a6.249,6.249,0,0,1,5.156-.613,4.061,4.061,0,0,0-.62,2.142v.82h1.64V5.1a2.46,2.46,0,1,1,2.46,2.46h-4.92a3.283,3.283,0,0,0-3.28,3.28v1.136a3.2,3.2,0,0,0-.7,5.061l.7.7v1.614ZM2.529,32.2a8.255,8.255,0,0,1,5.137-7.666L8.472,32.6,9.81,30.928l-.768,3.84.631,1.053A4.745,4.745,0,0,0,7.94,37.077H2.529Z" transform="translate(0)"/>
        </g>
      </g>
    </g>
  </g>
</svg>
