<svg xmlns="http://www.w3.org/2000/svg" xmlns:xlink="http://www.w3.org/1999/xlink" width="108" height="108" viewBox="0 0 108 108">
  <defs>
    <filter id="Fondo" x="0" y="0" width="108" height="108" filterUnits="userSpaceOnUse">
      <feOffset dy="3" input="SourceAlpha"/>
      <feGaussianBlur stdDeviation="3" result="blur"/>
      <feFlood flood-opacity="0.161"/>
      <feComposite operator="in" in2="blur"/>
      <feComposite in="SourceGraphic"/>
    </filter>
  </defs>
  <g id="Group_1144348" data-name="Group 1144348" transform="translate(-903 -4001)">
    <g id="Group_1144163" data-name="Group 1144163">
      <g transform="matrix(1, 0, 0, 1, 903, 4001)" filter="url(#Fondo)">
        <g id="Fondo-2" data-name="Fondo" transform="translate(9 6)" fill="#fff2ee" stroke="#ff8a60" stroke-width="3">
          <circle cx="45" cy="45" r="45" stroke="none"/>
          <circle cx="45" cy="45" r="43.5" fill="none"/>
        </g>
      </g>
      <g id="Group_1144162" data-name="Group 1144162" transform="translate(924.578 4021.083)">
        <circle id="Ellipse_11581" data-name="Ellipse 11581" cx="3.147" cy="3.147" r="3.147" transform="translate(23.775 40.562) rotate(-67.486)" fill="#f23353"/>
        <path id="Path_979176" data-name="Path 979176" d="M186.722,287.737a3.148,3.148,0,0,1,0-5.948,3.148,3.148,0,0,1,0,5.948Z" transform="translate(-159.877 -245.912)" fill="#ff5471" fill-rule="evenodd"/>
        <path id="Path_979177" data-name="Path 979177" d="M138.4,254.2a2.034,2.034,0,1,0-2.034-2.034A2.038,2.038,0,0,0,138.4,254.2Z" transform="translate(-117.176 -217.888)" fill="#2dcffc" fill-rule="evenodd"/>
        <path id="Path_979178" data-name="Path 979178" d="M137.77,254.878a2.035,2.035,0,1,1,1.4-1.933A2.035,2.035,0,0,1,137.77,254.878Z" transform="translate(-117.176 -218.667)" fill="#78eaff" fill-rule="evenodd"/>
        <path id="Path_979179" data-name="Path 979179" d="M19.811,128.136a8.585,8.585,0,0,1,8.549,7.8v2.841h-17.1v-2.841a8.585,8.585,0,0,1,8.549-7.8Z" transform="translate(-6.425 -109.891)" fill="#9cf" fill-rule="evenodd"/>
        <path id="Path_979180" data-name="Path 979180" d="M26.263,138.836h-15v-2.842a8.585,8.585,0,0,1,8.219-7.8,8.887,8.887,0,0,1,6.782,7.8Z" transform="translate(-6.425 -109.945)" fill="#b6dbff" fill-rule="evenodd"/>
        <circle id="Ellipse_11582" data-name="Ellipse 11582" cx="4.089" cy="4.089" r="4.089" transform="translate(9.102 10.249) rotate(-2.865)" fill="#fdb0a0"/>
        <g id="Group_1144161" data-name="Group 1144161" transform="translate(9.298 4.834)">
          <path id="Path_979181" data-name="Path 979181" d="M53.4,65.366a4.09,4.09,0,0,1,0-8.013,4.09,4.09,0,0,1,0,8.013Z" transform="translate(-50.133 -52.065)" fill="#ffcec0" fill-rule="evenodd"/>
          <path id="Path_979182" data-name="Path 979182" d="M73.321,128.175l-.689,6.89,1.512,2.165,1.512-2.165-.689-6.889q-.409-.039-.829-.039T73.321,128.175Z" transform="translate(-70.05 -114.726)" fill="#f23353" fill-rule="evenodd"/>
          <path id="Path_979183" data-name="Path 979183" d="M73.321,128.189l-.689,6.89,1.013,1.45,1.013-1.45-.587-5.873-.105-1.054q-.325.007-.644.037Z" transform="translate(-70.05 -114.74)" fill="#ff5471" fill-rule="evenodd"/>
          <path id="Path_979184" data-name="Path 979184" d="M190.062,82.774a8.585,8.585,0,0,1,8.549,7.8V93.42h-17.1V90.579A8.585,8.585,0,0,1,190.062,82.774Z" transform="translate(-166.436 -74.569)" fill="#2a92fa" fill-rule="evenodd"/>
          <path id="Path_979185" data-name="Path 979185" d="M196.514,93.474h-15V90.632a8.585,8.585,0,0,1,8.219-7.8,8.887,8.887,0,0,1,6.782,7.8v2.841Z" transform="translate(-166.436 -74.622)" fill="#4eb1fc" fill-rule="evenodd"/>
          <path id="Path_979186" data-name="Path 979186" d="M224.474,11.276a4.089,4.089,0,1,1-4.089,4.089A4.089,4.089,0,0,1,224.474,11.276Z" transform="translate(-200.847 -11.276)" fill="#fdb0a0" fill-rule="evenodd"/>
          <path id="Path_979187" data-name="Path 979187" d="M223.654,20A4.09,4.09,0,1,1,226.923,16,4.09,4.09,0,0,1,223.654,20Z" transform="translate(-200.847 -11.909)" fill="#ffcec0" fill-rule="evenodd"/>
          <path id="Path_979188" data-name="Path 979188" d="M243.572,82.813l-.689,6.89,1.512,2.165,1.512-2.165-.689-6.889q-.409-.039-.829-.039T243.572,82.813Z" transform="translate(-220.764 -74.569)" fill="#f23353" fill-rule="evenodd"/>
          <path id="Path_979189" data-name="Path 979189" d="M243.572,82.826l-.689,6.89,1.013,1.45,1.013-1.45-.587-5.873-.105-1.054Q243.891,82.8,243.572,82.826Z" transform="translate(-220.764 -74.582)" fill="#ff5471" fill-rule="evenodd"/>
          <path id="Path_979190" data-name="Path 979190" d="M360.313,128.136a8.585,8.585,0,0,1,8.549,7.8v2.841h-17.1v-2.841A8.585,8.585,0,0,1,360.313,128.136Z" transform="translate(-317.15 -114.726)" fill="#9cf" fill-rule="evenodd"/>
          <path id="Path_979191" data-name="Path 979191" d="M366.766,138.836h-15v-2.842a8.585,8.585,0,0,1,8.219-7.8,8.887,8.887,0,0,1,6.782,7.8Z" transform="translate(-317.151 -114.779)" fill="#b6dbff" fill-rule="evenodd"/>
        </g>
        <circle id="Ellipse_11583" data-name="Ellipse 11583" cx="4.089" cy="4.089" r="4.089" transform="translate(48.373 10.04)" fill="#fdb0a0"/>
        <path id="Path_979192" data-name="Path 979192" d="M393.906,65.366a4.09,4.09,0,1,1,3.27-4.007A4.09,4.09,0,0,1,393.906,65.366Z" transform="translate(-342.263 -47.231)" fill="#ffcec0" fill-rule="evenodd"/>
        <path id="Path_979193" data-name="Path 979193" d="M413.824,128.175l-.689,6.89,1.512,2.165,1.512-2.165-.689-6.889q-.409-.039-.829-.039t-.818.039Z" transform="translate(-362.18 -109.891)" fill="#f23353" fill-rule="evenodd"/>
        <path id="Path_979194" data-name="Path 979194" d="M413.824,128.189l-.689,6.89,1.013,1.45,1.013-1.45-.587-5.873-.105-1.054q-.325.007-.644.037Z" transform="translate(-362.18 -109.906)" fill="#ff5471" fill-rule="evenodd"/>
        <path id="Path_979195" data-name="Path 979195" d="M18.571,56.6a.8.8,0,0,1-1.131.117l-1.589-1.293a.8.8,0,0,1,1.013-1.246l1.59,1.293a.8.8,0,0,1,.116,1.129Zm4.91,2.67a.8.8,0,0,1-1.076.365l-1.836-.909a.8.8,0,1,1,.711-1.44l1.837.909a.8.8,0,0,1,.363,1.075Zm11.577,1.766a.8.8,0,0,1-.8.8H31.591a.8.8,0,0,1,0-1.607h2.663A.8.8,0,0,1,35.059,61.033ZM11.485,47.3a.8.8,0,0,1-.383,1.07.789.789,0,0,1-.342.077.8.8,0,0,1-.728-.46l-.874-1.853a.8.8,0,1,1,1.453-.685l.874,1.852Zm-2.57-4.074a.84.84,0,0,1-.175.019.8.8,0,0,1-.784-.631l-.441-2a.8.8,0,0,1,1.569-.347l.441,2a.8.8,0,0,1-.61.957Zm5.6,8.546a.8.8,0,1,1-1.264.991l-1.263-1.613a.8.8,0,1,1,1.265-.99l1.263,1.612ZM7.921,37.731a.8.8,0,0,1-.8-.808l.013-2.05a.8.8,0,0,1,1.607.01L8.73,36.932a.805.805,0,0,1-.8.8H7.921ZM28.862,60.783a.8.8,0,0,1-.78.616.827.827,0,0,1-.189-.023L25.9,60.9a.8.8,0,1,1,.375-1.562l1.992.479a.8.8,0,0,1,.594.968ZM58.334,40.619l-.442,2a.8.8,0,0,1-1.571-.345l.443-2a.8.8,0,0,1,1.571.347Zm.376-5.746.011,2.05a.8.8,0,0,1-.8.808h-.006a.8.8,0,0,1-.8-.8l-.011-2.048a.8.8,0,0,1,.8-.808h.006a.8.8,0,0,1,.8.8ZM56.685,46.138l-.874,1.853a.8.8,0,1,1-1.451-.686l.876-1.852a.8.8,0,1,1,1.449.685ZM45.642,57.647a.8.8,0,0,1-.364,1.076l-1.837.909a.8.8,0,0,1-.711-1.44l1.836-.909a.8.8,0,0,1,1.076.364Zm-5.1,2.283a.8.8,0,0,1-.593.968l-1.992.479a.818.818,0,0,1-.188.023.8.8,0,0,1-.187-1.585l1.992-.479a.8.8,0,0,1,.969.593Zm9.572-5.638a.8.8,0,0,1-.117,1.129L48.4,56.714a.8.8,0,0,1-1.013-1.246l1.59-1.293a.8.8,0,0,1,1.13.117Zm3.751-3.136L52.6,52.769a.8.8,0,0,1-1.265-.991L52.6,50.165a.8.8,0,0,1,1.266.99ZM25.148,20.9A7.755,7.755,0,0,1,31.2,14.028l-.589,5.879a.807.807,0,0,0,.142.539l1.517,2.172a.8.8,0,0,0,.387.295H25.148V20.9Zm7.775-15.3a3.3,3.3,0,1,1-3.3,3.3A3.3,3.3,0,0,1,32.923,5.606ZM40.7,20.9v2.01H33.2a.8.8,0,0,0,.387-.295L35.1,20.446a.807.807,0,0,0,.141-.539l-.587-5.877A7.755,7.755,0,0,1,40.7,20.9ZM32.833,13.84,32.24,19.77l.689.986.689-.986-.594-5.929-.1,0ZM24.345,24.52H41.5a.8.8,0,0,0,.8-.8V20.866c0-.024,0-.048,0-.072a9.427,9.427,0,0,0-6.324-8.055,4.906,4.906,0,1,0-6.108,0,9.425,9.425,0,0,0-6.324,8.055c0,.024,0,.048,0,.072v2.851a.8.8,0,0,0,.8.8Zm-3.184,3.6h-7.5a.8.8,0,0,0,.387-.295l1.517-2.171a.808.808,0,0,0,.141-.541l-.588-5.877a7.756,7.756,0,0,1,6.041,6.873v2.011ZM5.611,26.108a7.756,7.756,0,0,1,6.052-6.875l-.588,5.879a.8.8,0,0,0,.141.541l1.517,2.171a.8.8,0,0,0,.387.295H5.611Zm7.775-15.3a3.3,3.3,0,1,1-3.3,3.3A3.3,3.3,0,0,1,13.386,10.811Zm.694,14.164-.594-5.93-.1,0-.09,0-.594,5.93.689.986Zm8.687,3.946V26.071c0-.024,0-.048,0-.072a9.421,9.421,0,0,0-6.324-8.054,4.906,4.906,0,1,0-6.107,0A9.421,9.421,0,0,0,4.007,26c0,.024,0,.048,0,.072v2.851a.8.8,0,0,0,.8.8H21.964A.8.8,0,0,0,22.767,28.922Zm37.47-.8h-7.5a.8.8,0,0,0,.386-.295l1.517-2.171a.787.787,0,0,0,.141-.541L54.2,19.235a7.761,7.761,0,0,1,6.041,6.873ZM44.685,26.108a7.758,7.758,0,0,1,6.052-6.875l-.588,5.879a.808.808,0,0,0,.141.541l1.517,2.171a.8.8,0,0,0,.387.295H44.685Zm7.775-15.3a3.3,3.3,0,1,1-3.3,3.3A3.305,3.305,0,0,1,52.46,10.811Zm.694,14.164-.593-5.93-.1,0-.09,0-.593,5.93.688.986ZM61.841,26a9.417,9.417,0,0,0-6.328-8.054,4.9,4.9,0,1,0-6.106,0A9.421,9.421,0,0,0,43.082,26c0,.024,0,.048,0,.072v2.851a.8.8,0,0,0,.8.8H61.039a.8.8,0,0,0,.8-.8V26Zm-39.382,8.28a1.231,1.231,0,1,1-1.23-1.231A1.232,1.232,0,0,1,22.458,34.279Zm-4.068,0a2.837,2.837,0,1,0,2.838-2.838A2.84,2.84,0,0,0,18.39,34.279ZM40.892,53.9a1.125,1.125,0,0,1-.857.656c-1.178.171-3.079-1.194-5.084-3.679q.817-.959,1.6-2.014a35.189,35.189,0,0,0,4.472-.945c.571,2.9.434,4.993-.127,5.982ZM25.714,55.185a1.7,1.7,0,0,1-1.37-.966c-.541-1.02-.639-2.9-.059-5.422a33.3,33.3,0,0,0,6.062.515q.713,0,1.447-.024l.039,0q.511.792,1.041,1.517c-2.762,2.964-5.472,4.582-7.161,4.383Zm-6.3-10.145A1.128,1.128,0,0,1,19.106,44c.207-.927,1.7-2.286,5.215-3.43a3.973,3.973,0,0,0,.9,1.2A32.573,32.573,0,0,0,23.132,46.9a7.521,7.521,0,0,1-3.718-1.857Zm8.462-8.532a2.343,2.343,0,1,1-2.345,2.343A2.346,2.346,0,0,1,27.876,36.508Zm.3-6.809a1.065,1.065,0,0,1,.749-.484c.939-.136,2.339.7,3.882,2.308A29.79,29.79,0,0,0,29.4,35.207a3.924,3.924,0,0,0-1.525-.307l-.1,0c-.37-2.406-.227-4.322.4-5.2Zm11.291.185a1.7,1.7,0,0,1,1.37.966c.637,1.2.66,3.606-.321,6.837q-.788-.115-1.634-.193a34.434,34.434,0,0,0-3.775-5.8c1.679-1.279,3.22-1.95,4.36-1.815Zm.3,13.786.039-.079c.345.971.627,1.893.854,2.757-.875.252-1.826.48-2.843.672.7-1.074,1.352-2.2,1.95-3.35Zm.116-4.144c-.05-.11-.1-.219-.154-.329l.266.036C39.96,39.329,39.922,39.428,39.883,39.525Zm-6.006-6.8a28.287,28.287,0,0,0-3.149,3.395,3.938,3.938,0,0,1,.867,1.4c.815-.075,1.638-.127,2.457-.155,1.011-.035,1.995-.033,2.942,0a31.772,31.772,0,0,0-3.117-4.645Zm-6,10.073a3.945,3.945,0,0,1-1.264-.208,30.811,30.811,0,0,0-1.906,4.652,32.249,32.249,0,0,0,6.16.457,42.374,42.374,0,0,1-2.355-4.75l-.079-.192A3.911,3.911,0,0,1,27.876,42.8Zm6.45,6.324c-.121.15-.241.3-.363.442-.089-.126-.18-.256-.27-.388C33.905,49.163,34.115,49.145,34.326,49.125ZM32.7,47.638c1.021-.057,2.01-.151,2.956-.274a38.459,38.459,0,0,0,2.689-4.433c.243-.469.467-.928.678-1.378-.017-.038-.032-.074-.048-.114-.352-.839-.724-1.645-1.107-2.416-1.153-.073-2.4-.094-3.756-.048-.764.026-1.532.073-2.292.142a3.955,3.955,0,0,1-1.871,3.1c.015.038.031.077.047.115a40.248,40.248,0,0,0,2.7,5.309Zm13.737-6.021a1.131,1.131,0,0,1,.308,1.036c-.24,1.071-1.916,2.252-4.553,3.2a37.149,37.149,0,0,0-1.42-4.266q.472-1.062.841-2.085c2.507.512,4.161,1.313,4.824,2.114Zm-3.876,5.81.146-.049c2.3-.824,5.131-2.251,5.606-4.373a2.743,2.743,0,0,0-.638-2.412c-.965-1.164-2.94-2.067-5.556-2.622.985-3.321,1.069-6.132.147-7.872a3.284,3.284,0,0,0-2.6-1.808c-1.576-.188-3.538.612-5.613,2.2-1.527-1.607-3.509-3.134-5.349-2.868a2.685,2.685,0,0,0-1.827,1.142c-1.127,1.58-1.019,4.29-.663,6.506a3.955,3.955,0,0,0-2.283,3.579c0,.055,0,.109,0,.163-2.411.777-5.863,2.282-6.39,4.64a2.743,2.743,0,0,0,.639,2.412,8.88,8.88,0,0,0,4.537,2.38c-.633,2.731-.585,5.026.21,6.525a3.286,3.286,0,0,0,2.6,1.81,3.9,3.9,0,0,0,.467.026c1.9,0,4.287-1.274,6.79-3.638q.545-.517,1.083-1.086c.106.129.211.256.317.379,1.482,1.729,3.626,3.712,5.655,3.711a2.963,2.963,0,0,0,.428-.03,2.745,2.745,0,0,0,2.026-1.456c.849-1.5.91-4.106.264-7.261Z" transform="translate(0)" fill-rule="evenodd"/>
      </g>
    </g>
  </g>
</svg>
