<svg xmlns="http://www.w3.org/2000/svg" xmlns:xlink="http://www.w3.org/1999/xlink" width="108" height="108" viewBox="0 0 108 108">
  <defs>
    <filter id="Fondo" x="0" y="0" width="108" height="108" filterUnits="userSpaceOnUse">
      <feOffset dy="3" input="SourceAlpha"/>
      <feGaussianBlur stdDeviation="3" result="blur"/>
      <feFlood flood-opacity="0.161"/>
      <feComposite operator="in" in2="blur"/>
      <feComposite in="SourceGraphic"/>
    </filter>
  </defs>
  <g id="Group_1144377" data-name="Group 1144377" transform="translate(-1008 -5058.333)">
    <g id="Group_1144286" data-name="Group 1144286">
      <g transform="matrix(1, 0, 0, 1, 1008, 5058.33)" filter="url(#Fondo)">
        <g id="Fondo-2" data-name="Fondo" transform="translate(9 6)" fill="#fff2ee" stroke="#ff8a60" stroke-width="3">
          <circle cx="45" cy="45" r="45" stroke="none"/>
          <circle cx="45" cy="45" r="43.5" fill="none"/>
        </g>
      </g>
      <g id="_x32_0_Planning" transform="translate(963.672 5079.745)">
        <g id="Group_1144285" data-name="Group 1144285" transform="translate(78.932 1.738)">
          <path id="Path_979385" data-name="Path 979385" d="M212.824,185.048v5.33H195.411l-3.112-2.665,3.112-2.665Z" transform="translate(-179.881 -164.969)" fill="#7cc558"/>
          <path id="Path_979386" data-name="Path 979386" d="M212.824,273.855v5.33H195.411L192.3,276.52l3.112-2.665Z" transform="translate(-179.881 -244.049)" fill="#7cc558"/>
          <g id="Group_1144284" data-name="Group 1144284" transform="translate(0 0)">
            <path id="Path_979387" data-name="Path 979387" d="M212.824,362.661v5.33H195.411l-3.112-2.665,3.112-2.665Z" transform="translate(-179.881 -323.128)" fill="#7cc558"/>
            <g id="Group_1144283" data-name="Group 1144283">
              <path id="Path_979388" data-name="Path 979388" d="M114.564,1.738H82.09A3.162,3.162,0,0,0,78.932,4.9V54.28a3.162,3.162,0,0,0,3.158,3.158h32.473a3.162,3.162,0,0,0,3.158-3.158V4.9a3.162,3.162,0,0,0-3.158-3.158ZM116,54.28a1.437,1.437,0,0,1-1.436,1.436H82.09a1.437,1.437,0,0,1-1.436-1.436V4.9A1.437,1.437,0,0,1,82.09,3.461h32.473A1.437,1.437,0,0,1,116,4.9Z" transform="translate(-78.932 -1.738)" fill="#3f3f3f"/>
              <path id="Path_979389" data-name="Path 979389" d="M143.21,54.312h-2.144a.861.861,0,0,0-.861.861v7a.861.861,0,1,0,1.723,0V59.534h1.283a2.611,2.611,0,1,0,0-5.222Zm0,3.5h-1.283V56.035h1.283a.888.888,0,1,1,0,1.777Z" transform="translate(-133.493 -48.553)" fill="#3f3f3f"/>
              <path id="Path_979390" data-name="Path 979390" d="M249.013,63.032a.861.861,0,0,0,.861-.861v-2.1h2.171v2.1a.861.861,0,0,0,1.723,0V57.12a2.808,2.808,0,1,0-5.617,0v5.051A.861.861,0,0,0,249.013,63.032Zm1.947-7a1.087,1.087,0,0,1,1.086,1.086V58.35h-2.171V57.12A1.087,1.087,0,0,1,250.96,56.034Z" transform="translate(-229.617 -48.552)" fill="#3f3f3f"/>
              <path id="Path_979391" data-name="Path 979391" d="M317.5,54.312a.861.861,0,0,0-.861.861v4.243l-3.281-4.734a.861.861,0,0,0-1.569.491v7a.861.861,0,1,0,1.723,0V57.928l3.281,4.734a.861.861,0,0,0,1.569-.491v-7a.861.861,0,0,0-.861-.861Z" transform="translate(-286.282 -48.553)" fill="#3f3f3f"/>
              <path id="Path_979392" data-name="Path 979392" d="M201.432,62.171a.861.861,0,0,0-.861-.861H198V55.172a.861.861,0,0,0-1.723,0v7a.861.861,0,0,0,.861.861h3.435A.861.861,0,0,0,201.432,62.171Z" transform="translate(-183.421 -48.552)" fill="#3f3f3f"/>
              <path id="Path_979393" data-name="Path 979393" d="M128.45,189.023l-2.183,2.183-.347-.347a.861.861,0,1,0-1.218,1.218l.956.956a.861.861,0,0,0,1.218,0l2.792-2.792a.861.861,0,1,0-1.218-1.218Z" transform="translate(-119.464 -168.284)" fill="#3f3f3f"/>
              <path id="Path_979394" data-name="Path 979394" d="M231.377,201.517H223.21a.861.861,0,1,0,0,1.723h8.167a.861.861,0,1,0,0-1.723Z" transform="translate(-206.64 -179.634)" fill="#3f3f3f"/>
              <path id="Path_979395" data-name="Path 979395" d="M128.45,277.829l-2.183,2.183-.347-.347a.861.861,0,1,0-1.218,1.218l.956.956a.861.861,0,0,0,1.218,0l2.792-2.792a.861.861,0,1,0-1.218-1.218Z" transform="translate(-119.464 -247.363)" fill="#3f3f3f"/>
              <path id="Path_979396" data-name="Path 979396" d="M231.377,290.322H223.21a.861.861,0,1,0,0,1.723h8.167a.861.861,0,1,0,0-1.723Z" transform="translate(-206.64 -258.712)" fill="#3f3f3f"/>
              <path id="Path_979397" data-name="Path 979397" d="M128.45,366.634l-2.183,2.183-.347-.347a.861.861,0,1,0-1.218,1.218l.956.956a.861.861,0,0,0,1.218,0l2.792-2.792a.861.861,0,1,0-1.218-1.218Z" transform="translate(-119.464 -326.441)" fill="#3f3f3f"/>
              <path id="Path_979398" data-name="Path 979398" d="M231.377,379.127H223.21a.861.861,0,0,0,0,1.723h8.167a.861.861,0,0,0,0-1.723Z" transform="translate(-206.64 -337.79)" fill="#3f3f3f"/>
            </g>
          </g>
        </g>
      </g>
    </g>
  </g>
</svg>
